STARTFONT 2.1
COMMENT
COMMENT Converted from OpenType font "manrope-bold.otf" by "otf2bdf 3.0".
COMMENT
FONT -FreeType-Manrope-Bold-R-Normal--101-730-100-100-P-483-ISO10646-1
SIZE 73 100 100
FONTBOUNDINGBOX 103 132 -5 -27
STARTPROPERTIES 19
FOUNDRY "FreeType"
FAMILY_NAME "Manrope"
WEIGHT_NAME "Bold"
SLANT "R"
SETWIDTH_NAME "Normal"
ADD_STYLE_NAME ""
PIXEL_SIZE 101
POINT_SIZE 730
RESOLUTION_X 100
RESOLUTION_Y 100
SPACING "P"
AVERAGE_WIDTH 483
CHARSET_REGISTRY "ISO10646"
CHARSET_ENCODING "1"
FONT_ASCENT 107
FONT_DESCENT 30
COPYRIGHT "Copyright 2019-2021 The Manrope Project Authors (https://github.com/sharanda/manrope)"
_OTF_FONTFILE "manrope-bold.otf"
_OTF_PSNAME "Manrope-Bold"
ENDPROPERTIES
CHARS 191
STARTCHAR 0020
ENCODING 32
SWIDTH 197 0
DWIDTH 20 0
BBX 0 0 0 0
BITMAP
ENDCHAR
STARTCHAR 0021
ENCODING 33
SWIDTH 364 0
DWIDTH 37 0
BBX 12 73 12 0
BITMAP
FFF0
FFF0
FFF0
FFF0
FFF0
FFF0
FFF0
FFF0
FFF0
FFF0
FFF0
FFF0
FFF0
FFF0
FFF0
FFF0
FFF0
FFF0
FFF0
FFF0
FFF0
FFF0
FFF0
FFF0
FFF0
FFF0
FFF0
FFF0
FFF0
FFF0
FFF0
FFF0
FFF0
FFF0
FFF0
FFF0
FFF0
FFF0
FFF0
FFF0
FFF0
FFF0
FFF0
FFF0
FFF0
FFF0
FFF0
FFF0
FFF0
FFF0
FFF0
FFF0
FFF0
FFF0
FFF0
0000
0000
0000
0000
0000
0000
0000
FFF0
FFF0
FFF0
FFF0
FFF0
FFF0
FFF0
FFF0
FFF0
FFF0
FFF0
ENDCHAR
STARTCHAR 0022
ENCODING 34
SWIDTH 463 0
DWIDTH 47 0
BBX 31 18 6 55
BITMAP
FFF01FFE
FFF01FFE
FFF01FFE
FFF01FFE
FFF01FFE
FFF01FFE
FFF01FFE
FFF01FFE
FFF01FFE
FFF01FFE
FFF01FFE
FFF01FFE
FFF01FFE
FFF01FFE
FFF01FFE
FFF01FFE
FFF01FFE
FFF01FFE
ENDCHAR
STARTCHAR 0023
ENCODING 35
SWIDTH 927 0
DWIDTH 94 0
BBX 82 73 6 0
BITMAP
000000007FF0007FF80000
00000000FFF0007FF00000
00000000FFF000FFF00000
00000000FFF000FFF00000
00000001FFE000FFF00000
00000001FFE001FFE00000
00000001FFE001FFE00000
00000001FFE001FFE00000
00000003FFC001FFE00000
00000003FFC003FFC00000
00000003FFC003FFC00000
00000003FF8003FFC00000
00000007FF8003FF800000
00000007FF8007FF800000
00000007FF8007FF800000
0000000FFF0007FF800000
0000000FFF000FFF000000
0000000FFF000FFF000000
007FFFFFFFFFFFFFFFFFC0
007FFFFFFFFFFFFFFFFFC0
007FFFFFFFFFFFFFFFFFC0
00FFFFFFFFFFFFFFFFFF80
00FFFFFFFFFFFFFFFFFF80
00FFFFFFFFFFFFFFFFFF80
00FFFFFFFFFFFFFFFFFF80
01FFFFFFFFFFFFFFFFFF00
01FFFFFFFFFFFFFFFFFF00
01FFFFFFFFFFFFFFFFFF00
01FFFFFFFFFFFFFFFFFF00
0000007FF8007FF8000000
000000FFF0007FF8000000
000000FFF000FFF0000000
000000FFF000FFF0000000
000000FFF000FFF0000000
000001FFE000FFF0000000
000001FFE001FFE0000000
000001FFE001FFE0000000
000001FFC001FFE0000000
000003FFC001FFC0000000
000003FFC003FFC0000000
000003FFC003FFC0000000
1FFFFFFFFFFFFFFFFFF000
1FFFFFFFFFFFFFFFFFF000
1FFFFFFFFFFFFFFFFFF000
3FFFFFFFFFFFFFFFFFE000
3FFFFFFFFFFFFFFFFFE000
3FFFFFFFFFFFFFFFFFE000
3FFFFFFFFFFFFFFFFFC000
7FFFFFFFFFFFFFFFFFC000
7FFFFFFFFFFFFFFFFFC000
7FFFFFFFFFFFFFFFFFC000
FFFFFFFFFFFFFFFFFF8000
FFFFFFFFFFFFFFFFFF8000
00003FFC001FFC00000000
00003FFC003FFC00000000
00003FFC003FFC00000000
00003FF8003FFC00000000
00007FF8007FF800000000
00007FF8007FF800000000
00007FF8007FF800000000
0000FFF0007FF800000000
0000FFF000FFF000000000
0000FFF000FFF000000000
0000FFE000FFF000000000
0001FFE000FFF000000000
0001FFE001FFE000000000
0001FFE001FFE000000000
0001FFC001FFE000000000
0003FFC001FFC000000000
0003FFC003FFC000000000
0003FFC003FFC000000000
0007FF8003FFC000000000
0007FF8003FF8000000000
ENDCHAR
STARTCHAR 0024
ENCODING 36
SWIDTH 631 0
DWIDTH 64 0
BBX 56 93 4 -10
BITMAP
000003FFC00000
000003FFC00000
000003FFC00000
000003FFC00000
000003FFC00000
000003FFC00000
000003FFC00000
000003FFC00000
000003FFC00000
00000FFFF80000
0000FFFFFF0000
0003FFFFFFC000
000FFFFFFFF000
001FFFFFFFF800
007FFFFFFFFC00
00FFFFFFFFFF00
01FFFFFFFFFF80
01FFFFFFFFFF80
03FFFFFFFFFFC0
07FFFFFFFFFFE0
07FFFC00FFFFF0
0FFFF0001FFFF0
0FFFC00007FFF8
1FFF800003FFF8
1FFF000001FFFC
1FFF000000FFFC
1FFE0000007FFC
1FFE0000007FFE
1FFE0000003FFE
1FFE0000003FFE
1FFE0000003FE0
1FFE0000001C00
1FFF0000000000
1FFF0000000000
1FFF8000000000
1FFFE000000000
0FFFF800000000
0FFFFE00000000
0FFFFFE0000000
07FFFFFC000000
03FFFFFFC00000
03FFFFFFF80000
01FFFFFFFF0000
00FFFFFFFFE000
003FFFFFFFF800
001FFFFFFFFE00
0007FFFFFFFF80
0001FFFFFFFFC0
00003FFFFFFFE0
000007FFFFFFF0
000000FFFFFFF8
0000001FFFFFF8
00000003FFFFFC
000000003FFFFC
0000000007FFFE
0000000001FFFE
00000000007FFE
00000000003FFE
00000000001FFF
00000000001FFF
03F00000001FFF
FFF80000000FFF
FFF80000000FFF
FFF80000000FFF
FFFC0000001FFF
7FFC0000001FFE
7FFE0000001FFE
7FFF0000003FFE
3FFF8000007FFE
3FFFC00000FFFC
1FFFF00001FFFC
1FFFF80007FFF8
0FFFFF003FFFF8
07FFFFFFFFFFF0
07FFFFFFFFFFF0
03FFFFFFFFFFE0
01FFFFFFFFFFC0
00FFFFFFFFFF80
003FFFFFFFFF00
001FFFFFFFFC00
000FFFFFFFF800
0003FFFFFFE000
00007FFFFF0000
00000FFFF80000
000003FFC00000
000003FFC00000
000003FFC00000
000003FFC00000
000003FFC00000
000003FFC00000
000003FFC00000
000003FFC00000
000003FFC00000
ENDCHAR
STARTCHAR 0025
ENCODING 37
SWIDTH 897 0
DWIDTH 91 0
BBX 79 77 6 -2
BITMAP
0003FE00000000000000
001FFFC0000000000000
007FFFF0000000000800
00FFFFF8000000001C00
03FFFFFC000000003E00
07FFFFFE000000007F00
07FFFFFF00000000FF80
0FFFFFFF80000001FFC0
1FFFFFFFC0000003FFE0
3FFFFFFFC0000007FFE0
3FFFDFFFE000000FFFF0
7FFE03FFE000001FFFE0
7FF801FFF000003FFFC0
7FF000FFF000007FFF80
7FF0007FF00000FFFF00
FFE0007FF00001FFFE00
FFE0003FF00003FFFC00
FFE0003FF80007FFF800
FFE0003FF8000FFFF000
FFE0003FF8001FFFE000
FFE0003FF0003FFFC000
FFE0003FF0007FFF8000
FFE0007FF000FFFF0000
7FF000FFF001FFFE0000
7FF801FFF003FFFC0000
7FFC03FFE007FFF80000
3FFFDFFFE00FFFF00000
3FFFFFFFC01FFFE00000
1FFFFFFFC03FFFC00000
0FFFFFFF807FFF800000
0FFFFFFF00FFFF000000
07FFFFFE01FFFE000000
03FFFFFC03FFFC000000
00FFFFF807FFF8000000
007FFFF00FFFF0000000
001FFFC01FFFE0000000
0003FE003FFFC0000000
000000007FFF80000000
00000000FFFF00000000
00000001FFFE00000000
00000003FFFC007F8000
00000007FFF803FFF000
0000000FFFF00FFFFC00
0000001FFFE03FFFFF00
0000003FFFC07FFFFF80
0000007FFF80FFFFFFC0
000000FFFF01FFFFFFE0
000001FFFE03FFFFFFF0
000003FFFC03FFFFFFF0
000007FFF807FFFFFFF8
00000FFFF007FFFFFFF8
00001FFFE00FFF807FFC
00003FFFC00FFF003FFC
00007FFF801FFE001FFE
0000FFFF001FFC000FFE
0001FFFE001FFC000FFE
0003FFFC001FF8000FFE
0007FFF8001FF80007FE
000FFFF0001FF80007FE
001FFFE0001FF80007FE
003FFFC0001FF8000FFE
007FFF80001FFC000FFE
00FFFF00001FFC000FFE
01FFFE00001FFE001FFE
03FFFC00000FFF003FFC
07FFF800000FFF807FFC
0FFFF000000FFFF3FFF8
1FFFE0000007FFFFFFF8
0FFFC0000003FFFFFFF0
07FF80000003FFFFFFF0
03FF00000001FFFFFFE0
01FE00000000FFFFFFC0
007C000000007FFFFF80
0038000000003FFFFF00
0010000000000FFFFC00
00000000000003FFF000
000000000000007F8000
ENDCHAR
STARTCHAR 0026
ENCODING 38
SWIDTH 670 0
DWIDTH 68 0
BBX 61 76 5 -2
BITMAP
000007FF00000000
00007FFFF0000000
0001FFFFFE000000
0007FFFFFF000000
001FFFFFFFC00000
003FFFFFFFE00000
007FFFFFFFF00000
00FFFFFFFFF80000
01FFFFFFFFFC0000
01FFFFFFFFFC0000
03FFFFFFFFFE0000
03FFFFDFFFFF0000
07FFF800FFFF0000
07FFE0003FFF0000
0FFFC0001FFF8000
0FFF80000FFE0000
0FFF80000FE00000
0FFF000004000000
0FFF000000000000
0FFF000000000000
0FFF000000000000
0FFF000000000000
0FFF000000000000
0FFF000000000000
0FFF800000000000
0FFFC00000000000
07FFC00000000000
07FFE00000000000
03FFF00000000000
03FFF80000000000
01FFFC0000000000
00FFFE0000000000
00FFFF0000000000
007FFFC000000000
007FFFE000000000
00FFFFF000000000
03FFFFF8001FF800
07FFFFFC001FF800
07FFFFFE001FF800
0FFFFFFF001FF800
1FFFFFFF801FF800
1FFFFFFFC01FF800
3FFFFFFFE01FF800
3FFFDFFFF01FF800
7FFF0FFFFC1FF800
7FFE07FFFE1FF800
7FFC01FFFF1FF800
7FFC00FFFF9FF800
FFF8007FFFDFF800
FFF8003FFFFFF800
FFF8001FFFFFF800
FFF0000FFFFFF800
FFF00007FFFFF800
FFF00003FFFFF800
FFF80001FFFFF800
FFF80000FFFFF800
FFF800007FFFF800
7FF800003FFFF800
7FFC00000FFFF800
7FFE000007FFFC00
7FFE000003FFFE00
3FFF000007FFFF00
3FFFC0001FFFFF80
1FFFF8007FFFFFC0
1FFFFFFFFFFFFFE0
0FFFFFFFFFFFFFF0
07FFFFFFFFFFFFF8
07FFFFFFFFFFFFF8
03FFFFFFFFFFFFF0
01FFFFFFFFFDFFE0
00FFFFFFFFF87FC0
003FFFFFFFF03F80
001FFFFFFFC01F00
0007FFFFFF000E00
0000FFFFF8000400
00000FFF80000000
ENDCHAR
STARTCHAR 0027
ENCODING 39
SWIDTH 256 0
DWIDTH 26 0
BBX 12 18 6 55
BITMAP
FFF0
FFF0
FFF0
FFF0
FFF0
FFF0
FFF0
FFF0
FFF0
FFF0
FFF0
FFF0
FFF0
FFF0
FFF0
FFF0
FFF0
FFF0
ENDCHAR
STARTCHAR 0028
ENCODING 40
SWIDTH 453 0
DWIDTH 46 0
BBX 28 105 14 -20
BITMAP
00002000
00007800
00007C00
0000FE00
0001FF80
0003FFC0
0003FFF0
0007FFE0
000FFFC0
000FFFC0
001FFF80
001FFF00
003FFE00
003FFE00
007FFC00
007FF800
00FFF800
00FFF000
01FFF000
01FFE000
03FFE000
03FFC000
03FFC000
07FF8000
07FF8000
07FF0000
0FFF0000
0FFF0000
0FFE0000
1FFE0000
1FFE0000
1FFC0000
3FFC0000
3FFC0000
3FF80000
3FF80000
3FF80000
7FF80000
7FF80000
7FF00000
7FF00000
7FF00000
7FF00000
7FF00000
FFF00000
FFF00000
FFE00000
FFE00000
FFE00000
FFE00000
FFE00000
FFE00000
FFE00000
FFE00000
FFE00000
FFE00000
FFE00000
FFE00000
FFE00000
FFF00000
FFF00000
FFF00000
7FF00000
7FF00000
7FF00000
7FF00000
7FF00000
7FF80000
7FF80000
3FF80000
3FF80000
3FFC0000
3FFC0000
1FFC0000
1FFC0000
1FFE0000
1FFE0000
0FFE0000
0FFF0000
0FFF0000
07FF0000
07FF8000
07FF8000
03FFC000
03FFC000
01FFE000
01FFE000
01FFF000
00FFF000
00FFF800
007FFC00
007FFC00
003FFE00
003FFF00
001FFF00
000FFF80
000FFFC0
0007FFE0
0007FFF0
0003FFE0
0001FF80
0001FF00
0000FE00
00007800
00003000
ENDCHAR
STARTCHAR 0029
ENCODING 41
SWIDTH 453 0
DWIDTH 46 0
BBX 28 105 4 -20
BITMAP
00C00000
01C00000
03E00000
0FF00000
1FF80000
3FF80000
FFFC0000
7FFE0000
3FFE0000
3FFF0000
1FFF8000
0FFF8000
07FFC000
07FFC000
03FFE000
03FFE000
01FFF000
00FFF000
00FFF800
007FF800
007FF800
003FFC00
003FFC00
001FFE00
001FFE00
000FFE00
000FFF00
000FFF00
0007FF00
0007FF80
0007FF80
0003FF80
0003FF80
0003FFC0
0003FFC0
0001FFC0
0001FFC0
0001FFC0
0001FFE0
0000FFE0
0000FFE0
0000FFE0
0000FFE0
0000FFE0
0000FFE0
0000FFE0
0000FFF0
0000FFF0
00007FF0
00007FF0
00007FF0
00007FF0
00007FF0
00007FF0
00007FF0
00007FF0
00007FF0
0000FFF0
0000FFF0
0000FFF0
0000FFE0
0000FFE0
0000FFE0
0000FFE0
0000FFE0
0000FFE0
0001FFE0
0001FFE0
0001FFC0
0001FFC0
0001FFC0
0003FFC0
0003FFC0
0003FF80
0003FF80
0007FF80
0007FF00
0007FF00
000FFF00
000FFF00
001FFE00
001FFE00
003FFC00
003FFC00
003FFC00
007FF800
00FFF800
00FFF000
01FFF000
01FFF000
03FFE000
03FFE000
07FFC000
0FFF8000
1FFF8000
1FFF0000
3FFF0000
7FFE0000
FFFC0000
7FFC0000
3FF80000
0FF00000
07F00000
03E00000
00C00000
ENDCHAR
STARTCHAR 002A
ENCODING 42
SWIDTH 463 0
DWIDTH 47 0
BBX 38 36 3 37
BITMAP
0003FF0000
0003FF0000
0003FF0000
0003FF0000
0003FF0000
0003FF0000
0003FF0000
0003FF0000
1C03FF00E0
1F03FF03E0
3FC3FF0FF0
3FFBFF7FF0
3FFFFFFFF0
7FFFFFFFF8
7FFFFFFFF8
7FFFFFFFF8
7FFFFFFFFC
FFFFFFFFFC
3FFFFFFFF0
03FFFFFF80
007FFFF800
001FFFE000
003FFFF000
007FFFF800
007FFFF800
00FFFFFC00
01FFFFFE00
03FFCFFF00
07FFCFFF80
0FFF87FFC0
0FFF03FFC0
03FF03FF00
01FE01FE00
007E00F800
003C00F000
0018006000
ENDCHAR
STARTCHAR 002B
ENCODING 43
SWIDTH 572 0
DWIDTH 58 0
BBX 46 46 6 14
BITMAP
00003FF00000
00003FF00000
00003FF00000
00003FF00000
00003FF00000
00003FF00000
00003FF00000
00003FF00000
00003FF00000
00003FF00000
00003FF00000
00003FF00000
00003FF00000
00003FF00000
00003FF00000
00003FF00000
00003FF00000
00003FF00000
FFFFFFFFFFFC
FFFFFFFFFFFC
FFFFFFFFFFFC
FFFFFFFFFFFC
FFFFFFFFFFFC
FFFFFFFFFFFC
FFFFFFFFFFFC
FFFFFFFFFFFC
FFFFFFFFFFFC
FFFFFFFFFFFC
00003FF00000
00003FF00000
00003FF00000
00003FF00000
00003FF00000
00003FF00000
00003FF00000
00003FF00000
00003FF00000
00003FF00000
00003FF00000
00003FF00000
00003FF00000
00003FF00000
00003FF00000
00003FF00000
00003FF00000
00003FF00000
ENDCHAR
STARTCHAR 002C
ENCODING 44
SWIDTH 305 0
DWIDTH 31 0
BBX 13 26 6 -14
BITMAP
FFF8
FFF8
FFF8
FFF8
FFF8
FFF8
FFF8
FFF8
FFF8
FFF8
FFF8
FFF8
FFF8
01F8
01F8
01F8
03F0
03F0
03F0
07F0
1FE0
7FE0
7FC0
FFC0
FF00
FE00
ENDCHAR
STARTCHAR 002D
ENCODING 45
SWIDTH 424 0
DWIDTH 43 0
BBX 30 10 6 27
BITMAP
FFFFFFFC
FFFFFFFC
FFFFFFFC
FFFFFFFC
FFFFFFFC
FFFFFFFC
FFFFFFFC
FFFFFFFC
FFFFFFFC
FFFFFFFC
ENDCHAR
STARTCHAR 002E
ENCODING 46
SWIDTH 305 0
DWIDTH 31 0
BBX 13 13 9 0
BITMAP
FFF8
FFF8
FFF8
FFF8
FFF8
FFF8
FFF8
FFF8
FFF8
FFF8
FFF8
FFF8
FFF8
ENDCHAR
STARTCHAR 002F
ENCODING 47
SWIDTH 433 0
DWIDTH 44 0
BBX 32 73 6 0
BITMAP
00001FFF
00001FFE
00001FFE
00001FFE
00003FFE
00003FFC
00003FFC
00003FFC
00007FFC
00007FF8
00007FF8
0000FFF8
0000FFF0
0000FFF0
0000FFF0
0001FFF0
0001FFE0
0001FFE0
0001FFE0
0003FFE0
0003FFC0
0003FFC0
0003FFC0
0007FFC0
0007FF80
0007FF80
000FFF80
000FFF00
000FFF00
000FFF00
001FFF00
001FFE00
001FFE00
001FFE00
003FFE00
003FFC00
003FFC00
003FFC00
007FFC00
007FF800
007FF800
00FFF800
00FFF000
00FFF000
00FFF000
01FFF000
01FFE000
01FFE000
01FFE000
03FFE000
03FFC000
03FFC000
03FFC000
07FFC000
07FF8000
07FF8000
0FFF8000
0FFF0000
0FFF0000
0FFF0000
1FFF0000
1FFE0000
1FFE0000
1FFE0000
3FFE0000
3FFC0000
3FFC0000
3FFC0000
7FFC0000
7FF80000
7FF80000
FFF80000
FFF00000
ENDCHAR
STARTCHAR 0030
ENCODING 48
SWIDTH 660 0
DWIDTH 67 0
BBX 53 77 7 -2
BITMAP
000007FF000000
00007FFFF00000
0003FFFFFC0000
000FFFFFFF0000
001FFFFFFFC000
007FFFFFFFE000
00FFFFFFFFF000
01FFFFFFFFF800
03FFFFFFFFFC00
07FFFFFFFFFE00
07FFFFFFFFFF00
0FFFFFFFFFFF80
1FFFF801FFFF80
1FFFE0007FFFC0
3FFFC0001FFFC0
3FFF80000FFFE0
3FFF000007FFE0
7FFE000003FFE0
7FFC000003FFF0
7FFC000001FFF0
7FF8000001FFF0
FFF8000000FFF0
FFF8000000FFF0
FFF8000000FFF0
FFF8000000FFF8
FFF8000000FFF8
FFF8000000FFF8
FFF8000000FFF8
FFF8000000FFF8
FFF8000000FFF8
FFF8000000FFF8
FFF8000000FFF8
FFF8000000FFF8
FFF8000000FFF8
FFF8000000FFF8
FFF8000000FFF8
FFF8000000FFF8
FFF8000000FFF8
FFF8000000FFF8
FFF8000000FFF8
FFF8000000FFF8
FFF8000000FFF8
FFF8000000FFF8
FFF8000000FFF8
FFF8000000FFF8
FFF8000000FFF8
FFF8000000FFF8
FFF8000000FFF8
FFF8000000FFF8
FFF8000000FFF8
FFF8000000FFF8
FFF8000000FFF8
FFF8000000FFF8
FFF8000000FFF0
FFF8000000FFF0
FFF8000000FFF0
7FF8000001FFF0
7FFC000001FFF0
7FFC000003FFF0
7FFE000003FFE0
3FFF000007FFE0
3FFF80000FFFE0
3FFFC0001FFFC0
1FFFE0007FFFC0
1FFFF801FFFF80
0FFFFFFFFFFF80
07FFFFFFFFFF00
07FFFFFFFFFE00
03FFFFFFFFFC00
01FFFFFFFFFC00
00FFFFFFFFF000
007FFFFFFFE000
001FFFFFFFC000
000FFFFFFF0000
0003FFFFFC0000
00007FFFF00000
000007FF000000
ENDCHAR
STARTCHAR 0031
ENCODING 49
SWIDTH 433 0
DWIDTH 44 0
BBX 26 73 6 0
BITMAP
0007FFC0
001FFFC0
003FFFC0
00FFFFC0
03FFFFC0
07FFFFC0
1FFFFFC0
7FFFFFC0
FFFFFFC0
FFFFFFC0
FFFFFFC0
FFFFFFC0
FFFFFFC0
FFFFFFC0
FFF3FFC0
FFC3FFC0
FF83FFC0
FE03FFC0
F803FFC0
F003FFC0
C003FFC0
0003FFC0
0003FFC0
0003FFC0
0003FFC0
0003FFC0
0003FFC0
0003FFC0
0003FFC0
0003FFC0
0003FFC0
0003FFC0
0003FFC0
0003FFC0
0003FFC0
0003FFC0
0003FFC0
0003FFC0
0003FFC0
0003FFC0
0003FFC0
0003FFC0
0003FFC0
0003FFC0
0003FFC0
0003FFC0
0003FFC0
0003FFC0
0003FFC0
0003FFC0
0003FFC0
0003FFC0
0003FFC0
0003FFC0
0003FFC0
0003FFC0
0003FFC0
0003FFC0
0003FFC0
0003FFC0
0003FFC0
0003FFC0
0003FFC0
0003FFC0
0003FFC0
0003FFC0
0003FFC0
0003FFC0
0003FFC0
0003FFC0
0003FFC0
0003FFC0
0003FFC0
ENDCHAR
STARTCHAR 0032
ENCODING 50
SWIDTH 591 0
DWIDTH 60 0
BBX 50 75 5 0
BITMAP
00000FFE000000
0000FFFFE00000
0007FFFFF80000
001FFFFFFE0000
003FFFFFFF0000
007FFFFFFFC000
01FFFFFFFFE000
03FFFFFFFFF000
07FFFFFFFFF800
07FFFFFFFFFC00
0FFFFFFFFFFC00
1FFFFFFFFFFE00
1FFFF001FFFE00
3FFFE000FFFF00
3FFF80003FFF00
3FFF00001FFF80
7FFE00001FFF80
7FFE00000FFF80
7FFC000007FFC0
7FFC000007FFC0
FFF8000007FFC0
FFF8000007FFC0
FFF8000003FFC0
FFF8000003FFC0
0000000003FFC0
0000000003FFC0
0000000003FFC0
0000000007FFC0
0000000007FFC0
0000000007FFC0
000000000FFFC0
000000001FFF80
000000001FFF80
000000003FFF80
000000007FFF00
00000000FFFF00
00000001FFFE00
00000003FFFE00
00000007FFFC00
0000000FFFF800
0000001FFFF000
0000007FFFE000
000000FFFFC000
000001FFFF8000
000003FFFF0000
000007FFFE0000
00000FFFFC0000
00001FFFF80000
00003FFFF00000
00007FFFE00000
0001FFFF800000
0003FFFF000000
0007FFFE000000
000FFFFC000000
001FFFF8000000
003FFFF0000000
007FFFE0000000
00FFFFC0000000
01FFFF80000000
07FFFE00000000
0FFFFC00000000
1FFFF800000000
3FFFF000000000
7FFFFFFFFFFFC0
FFFFFFFFFFFFC0
FFFFFFFFFFFFC0
FFFFFFFFFFFFC0
FFFFFFFFFFFFC0
FFFFFFFFFFFFC0
FFFFFFFFFFFFC0
FFFFFFFFFFFFC0
FFFFFFFFFFFFC0
FFFFFFFFFFFFC0
FFFFFFFFFFFFC0
FFFFFFFFFFFFC0
ENDCHAR
STARTCHAR 0033
ENCODING 51
SWIDTH 581 0
DWIDTH 59 0
BBX 49 74 4 -1
BITMAP
1FFFFFFFFFFF00
1FFFFFFFFFFF00
1FFFFFFFFFFF00
1FFFFFFFFFFF00
1FFFFFFFFFFF00
1FFFFFFFFFFF00
1FFFFFFFFFFF00
1FFFFFFFFFFF00
1FFFFFFFFFFF00
1FFFFFFFFFFF00
1FFFFFFFFFFF00
1FFFFFFFFFFF00
00000000FFFE00
00000001FFFC00
00000003FFF800
0000000FFFF000
0000001FFFC000
0000003FFF8000
0000007FFF0000
000000FFFE0000
000003FFFC0000
000007FFF80000
00000FFFF00000
00001FFFE00000
00003FFFC00000
00007FFF800000
0001FFFF000000
0003FFFF000000
0007FFFFE00000
000FFFFFF80000
0007FFFFFE0000
0007FFFFFF0000
0003FFFFFFC000
0003FFFFFFE000
0001FFFFFFF000
0000FFFFFFF000
0000FFFFFFF800
00007C3FFFFC00
00006003FFFC00
00000001FFFE00
000000007FFE00
000000007FFF00
000000003FFF00
000000001FFF00
000000001FFF00
000000000FFF80
000000000FFF80
000000000FFF80
000000000FFF80
000000000FFF80
000000000FFF80
000000000FFF80
000000000FFF80
000000000FFF80
00F000000FFF00
0FF800001FFF00
7FF800001FFF00
FFFC00003FFF00
7FFE00007FFE00
7FFF0000FFFE00
3FFF8001FFFC00
3FFFE007FFFC00
1FFFFFFFFFF800
1FFFFFFFFFF800
0FFFFFFFFFF000
07FFFFFFFFE000
03FFFFFFFFC000
01FFFFFFFF8000
00FFFFFFFF0000
007FFFFFFE0000
001FFFFFF80000
0007FFFFE00000
0001FFFF800000
00001FF8000000
ENDCHAR
STARTCHAR 0034
ENCODING 52
SWIDTH 611 0
DWIDTH 62 0
BBX 52 73 5 0
BITMAP
000001FFF80000
000001FFF80000
000003FFF00000
000003FFF00000
000007FFE00000
000007FFE00000
00000FFFC00000
00000FFFC00000
00001FFF800000
00001FFF800000
00003FFF000000
00003FFF000000
00003FFE000000
00007FFE000000
00007FFE000000
0000FFFC000000
0000FFFC000000
0001FFF8000000
0001FFF8000000
0003FFF0000000
0003FFF0000000
0007FFE0000000
0007FFE0000000
000FFFC0000000
000FFFC0000000
001FFF80000000
001FFF80000000
003FFF00000000
003FFF00000000
003FFE00000000
007FFE00000000
007FFE00FFF800
00FFFC00FFF800
00FFFC00FFF800
01FFF800FFF800
01FFF800FFF800
03FFF000FFF800
03FFF000FFF800
07FFE000FFF800
07FFE000FFF800
0FFFC000FFF800
0FFFC000FFF800
1FFF8000FFF800
1FFF8000FFF800
3FFF0000FFF800
3FFF0000FFF800
3FFE0000FFF800
7FFE0000FFF800
7FFE0000FFF800
FFFC0000FFF800
FFFFFFFFFFFFF0
FFFFFFFFFFFFF0
FFFFFFFFFFFFF0
FFFFFFFFFFFFF0
FFFFFFFFFFFFF0
FFFFFFFFFFFFF0
FFFFFFFFFFFFF0
FFFFFFFFFFFFF0
FFFFFFFFFFFFF0
FFFFFFFFFFFFF0
FFFFFFFFFFFFF0
00000000FFF800
00000000FFF800
00000000FFF800
00000000FFF800
00000000FFF800
00000000FFF800
00000000FFF800
00000000FFF800
00000000FFF800
00000000FFF800
00000000FFF800
00000000FFF800
ENDCHAR
STARTCHAR 0035
ENCODING 53
SWIDTH 581 0
DWIDTH 59 0
BBX 49 75 5 -2
BITMAP
07FFFFFFFFF000
07FFFFFFFFF000
07FFFFFFFFF000
07FFFFFFFFF000
07FFFFFFFFF000
0FFFFFFFFFF000
0FFFFFFFFFF000
0FFFFFFFFFF000
0FFFFFFFFFF000
0FFFFFFFFFF000
0FFFFFFFFFF000
0FFF0000000000
0FFF0000000000
0FFE0000000000
0FFE0000000000
0FFE0000000000
0FFE0000000000
0FFE0000000000
0FFE0000000000
0FFE0000000000
0FFE0000000000
0FFE0000000000
1FFE0000000000
1FFE0000000000
1FFE0000000000
1FFE0000000000
1FFE07FE000000
1FFE3FFFC00000
1FFEFFFFF80000
1FFFFFFFFE0000
1FFFFFFFFF0000
1FFFFFFFFF8000
1FFFFFFFFFC000
1FFFFFFFFFE000
1FFFFFFFFFF000
1FFFFFFFFFF800
1FFFFFFFFFFC00
1FFFF01FFFFC00
1FFFC003FFFE00
03FF0000FFFE00
007C00007FFF00
000800003FFF00
000000001FFF00
000000001FFF80
000000000FFF80
000000000FFF80
0000000007FF80
0000000007FF80
0000000007FF80
0000000007FF80
0000000007FF80
0000000007FF80
0000000007FF80
0000000007FF80
00F000000FFF80
07F000000FFF80
7FF800001FFF00
FFFC00001FFF00
7FFC00003FFF00
7FFE00007FFE00
7FFF0000FFFE00
3FFFC001FFFC00
3FFFF007FFFC00
1FFFFFFFFFF800
0FFFFFFFFFF800
0FFFFFFFFFF000
07FFFFFFFFE000
03FFFFFFFFC000
01FFFFFFFF8000
00FFFFFFFF0000
003FFFFFFC0000
001FFFFFF80000
0007FFFFE00000
0001FFFF800000
00001FF8000000
ENDCHAR
STARTCHAR 0036
ENCODING 54
SWIDTH 621 0
DWIDTH 63 0
BBX 51 76 7 -2
BITMAP
000007FF000000
00007FFFF00000
0003FFFFFE0000
000FFFFFFF8000
001FFFFFFFC000
003FFFFFFFE000
00FFFFFFFFF800
01FFFFFFFFFC00
03FFFFFFFFF800
03FFFFFFFFF000
07FFFFFFFFE000
0FFFFFDFFFC000
0FFFF800FF8000
1FFFE0003F0000
1FFFC0001E0000
3FFF80000C0000
3FFF0000000000
3FFE0000000000
7FFE0000000000
7FFC0000000000
7FFC0000000000
7FF80000000000
FFF80000000000
FFF80000000000
FFF80000000000
FFF80000000000
FFF80000000000
FFF80000000000
FFF801FF000000
FFF81FFFF00000
FFF87FFFFC0000
FFF9FFFFFF0000
FFFBFFFFFF8000
FFFFFFFFFFE000
FFFFFFFFFFF000
FFFFFFFFFFF800
FFFFFFFFFFFC00
FFFFFFFFFFFC00
FFFFFFFFFFFE00
FFFFFC07FFFF00
FFFFE001FFFF00
FFFFC0007FFF80
FFFF80003FFF80
FFFF00001FFF80
FFFE00000FFFC0
FFFC000007FFC0
FFFC000007FFC0
FFF8000007FFC0
FFF8000003FFC0
FFF8000003FFE0
FFF8000003FFE0
FFF8000003FFE0
FFF8000003FFE0
FFF8000003FFE0
FFF8000003FFC0
7FF8000003FFC0
7FFC000007FFC0
7FFC000007FFC0
7FFE00000FFFC0
3FFE00001FFF80
3FFF00001FFF80
3FFF80007FFF00
1FFFE000FFFF00
0FFFF803FFFE00
0FFFFFFFFFFE00
07FFFFFFFFFC00
03FFFFFFFFF800
03FFFFFFFFF800
01FFFFFFFFF000
00FFFFFFFFE000
007FFFFFFF8000
001FFFFFFF0000
000FFFFFFC0000
0003FFFFF80000
00007FFFC00000
00000FFE000000
ENDCHAR
STARTCHAR 0037
ENCODING 55
SWIDTH 532 0
DWIDTH 54 0
BBX 45 73 4 0
BITMAP
FFFFFFFFFFF8
FFFFFFFFFFF8
FFFFFFFFFFF8
FFFFFFFFFFF8
FFFFFFFFFFF8
FFFFFFFFFFF8
FFFFFFFFFFF8
FFFFFFFFFFF8
FFFFFFFFFFF8
FFFFFFFFFFF8
FFFFFFFFFFF8
FFFFFFFFFFF8
00000000FFF8
00000001FFF0
00000001FFF0
00000003FFE0
00000003FFE0
00000007FFE0
00000007FFC0
00000007FFC0
0000000FFF80
0000000FFF80
0000001FFF80
0000001FFF00
0000001FFF00
0000003FFE00
0000003FFE00
0000007FFE00
0000007FFC00
0000007FFC00
000000FFF800
000000FFF800
000001FFF000
000001FFF000
000001FFF000
000003FFE000
000003FFE000
000007FFC000
000007FFC000
00000FFFC000
00000FFF8000
00000FFF8000
00001FFF0000
00001FFF0000
00003FFF0000
00003FFE0000
00003FFE0000
00007FFC0000
00007FFC0000
0000FFFC0000
0000FFF80000
0000FFF80000
0001FFF00000
0001FFF00000
0003FFF00000
0003FFE00000
0003FFE00000
0007FFC00000
0007FFC00000
000FFF800000
000FFF800000
001FFF800000
001FFF000000
001FFF000000
003FFE000000
003FFE000000
007FFE000000
007FFC000000
007FFC000000
00FFF8000000
00FFF8000000
01FFF8000000
01FFF0000000
ENDCHAR
STARTCHAR 0038
ENCODING 56
SWIDTH 611 0
DWIDTH 62 0
BBX 50 77 6 -2
BITMAP
00001FFC000000
0000FFFFC00000
0007FFFFF80000
001FFFFFFE0000
003FFFFFFF0000
007FFFFFFF8000
01FFFFFFFFC000
01FFFFFFFFE000
03FFFFFFFFF000
07FFFFFFFFF800
0FFFFFFFFFF800
0FFFFFFFFFFC00
0FFFF003FFFC00
1FFFC000FFFE00
1FFF80007FFE00
1FFF00003FFE00
3FFF00003FFF00
3FFE00001FFF00
3FFE00001FFF00
3FFE00001FFF00
3FFE00001FFF00
3FFE00001FFF00
3FFE00001FFF00
3FFE00001FFF00
3FFE00001FFF00
3FFF00003FFF00
1FFF00003FFE00
1FFF80007FFE00
1FFFC000FFFE00
0FFFF003FFFC00
0FFFFFFFFFFC00
07FFFFFFFFF800
07FFFFFFFFF800
03FFFFFFFFF000
01FFFFFFFFE000
00FFFFFFFFC000
00FFFFFFFFC000
01FFFFFFFFE000
03FFFFFFFFF000
07FFFFFFFFF800
0FFFFFFFFFFC00
1FFFFFFFFFFE00
1FFFF807FFFE00
3FFFC001FFFF00
3FFF80007FFF00
7FFF00003FFF80
7FFE00001FFF80
7FFC00000FFF80
7FFC00000FFF80
FFFC00000FFFC0
FFF8000007FFC0
FFF8000007FFC0
FFF8000007FFC0
FFF8000007FFC0
FFF8000007FFC0
FFF8000007FFC0
FFF8000007FFC0
FFF8000007FFC0
FFFC00000FFFC0
7FFC00000FFF80
7FFE00001FFF80
7FFE00001FFF80
3FFF00003FFF00
3FFF8000FFFF00
1FFFE003FFFF00
1FFFFFFFFFFE00
0FFFFFFFFFFC00
0FFFFFFFFFFC00
07FFFFFFFFF800
03FFFFFFFFF000
01FFFFFFFFE000
00FFFFFFFFC000
003FFFFFFF8000
001FFFFFFE0000
0007FFFFF80000
0000FFFFE00000
00001FFE000000
ENDCHAR
STARTCHAR 0039
ENCODING 57
SWIDTH 621 0
DWIDTH 63 0
BBX 51 76 5 -2
BITMAP
000007FE000000
00007FFFC00000
0003FFFFF80000
0007FFFFFE0000
001FFFFFFF0000
003FFFFFFFC000
00FFFFFFFFE000
01FFFFFFFFF000
03FFFFFFFFF800
03FFFFFFFFF800
07FFFFFFFFFC00
0FFFFFFFFFFE00
0FFFF803FFFE00
1FFFE000FFFF00
3FFFC0003FFF00
3FFF00001FFF80
3FFF00000FFF80
7FFE00000FFFC0
7FFC000007FFC0
7FFC000007FFC0
7FF8000003FFC0
FFF8000003FFE0
FFF8000003FFE0
FFF8000003FFE0
FFF8000003FFE0
FFF8000003FFE0
FFF8000003FFE0
7FF8000003FFE0
7FF8000003FFE0
7FFC000007FFE0
7FFC000007FFE0
7FFE00000FFFE0
3FFF00001FFFE0
3FFF80003FFFE0
3FFFC0007FFFE0
1FFFE000FFFFE0
1FFFFC07FFFFE0
0FFFFFFFFFFFE0
07FFFFFFFFFFE0
07FFFFFFFFFFE0
03FFFFFFFFFFE0
01FFFFFFFFFFE0
00FFFFFFFFFFE0
003FFFFFFBFFE0
001FFFFFF3FFE0
0007FFFFC3FFE0
0001FFFF03FFE0
00001FF003FFE0
0000000003FFE0
0000000003FFE0
0000000003FFE0
0000000003FFE0
0000000003FFE0
0000000003FFE0
0000000003FFC0
0000000007FFC0
0000000007FFC0
000000000FFFC0
000000000FFF80
000000001FFF80
000600003FFF80
000F00007FFF00
001F8000FFFF00
003FE003FFFE00
007FFE7FFFFE00
00FFFFFFFFFC00
01FFFFFFFFF800
03FFFFFFFFF800
07FFFFFFFFF000
03FFFFFFFFE000
01FFFFFFFF8000
007FFFFFFF0000
003FFFFFFC0000
000FFFFFF00000
0001FFFFC00000
00001FFC000000
ENDCHAR
STARTCHAR 003A
ENCODING 58
SWIDTH 345 0
DWIDTH 35 0
BBX 13 42 11 6
BITMAP
FFF8
FFF8
FFF8
FFF8
FFF8
FFF8
FFF8
FFF8
FFF8
FFF8
FFF8
FFF8
FFF8
0000
0000
0000
0000
0000
0000
0000
0000
0000
0000
0000
0000
0000
0000
0000
0000
FFF8
FFF8
FFF8
FFF8
FFF8
FFF8
FFF8
FFF8
FFF8
FFF8
FFF8
FFF8
FFF8
ENDCHAR
STARTCHAR 003B
ENCODING 59
SWIDTH 345 0
DWIDTH 35 0
BBX 13 68 11 -14
BITMAP
FFF8
FFF8
FFF8
FFF8
FFF8
FFF8
FFF8
FFF8
FFF8
FFF8
FFF8
FFF8
FFF8
0000
0000
0000
0000
0000
0000
0000
0000
0000
0000
0000
0000
0000
0000
0000
0000
0000
0000
0000
0000
0000
0000
0000
0000
0000
0000
0000
0000
0000
FFF8
FFF8
FFF8
FFF8
FFF8
FFF8
FFF8
FFF8
FFF8
FFF8
FFF8
FFF8
FFF8
01F8
01F8
01F8
01F0
03F0
03F0
07F0
1FE0
7FE0
7FC0
FFC0
FF00
FE00
ENDCHAR
STARTCHAR 003C
ENCODING 60
SWIDTH 641 0
DWIDTH 65 0
BBX 32 49 14 7
BITMAP
00000080
000001C0
000003E0
000007F0
00000FF8
00001FFC
00003FFE
00007FFF
0000FFFE
0001FFFC
0003FFF8
0007FFF0
000FFFE0
001FFFC0
003FFF80
007FFF00
00FFFE00
01FFFC00
03FFF800
07FFF000
0FFFE000
1FFFC000
3FFF8000
7FFF0000
FFFE0000
7FFF0000
3FFF8000
1FFFC000
0FFFE000
07FFF000
03FFF800
01FFFC00
00FFFE00
007FFF00
003FFF80
001FFFC0
000FFFE0
0007FFF0
0003FFF8
0001FFFC
0000FFFF
00007FFF
00003FFE
00001FFC
00000FF8
000007F0
000003E0
000001C0
00000080
ENDCHAR
STARTCHAR 003D
ENCODING 61
SWIDTH 749 0
DWIDTH 76 0
BBX 52 29 12 22
BITMAP
FFFFFFFFFFFFF0
FFFFFFFFFFFFF0
FFFFFFFFFFFFF0
FFFFFFFFFFFFF0
FFFFFFFFFFFFF0
FFFFFFFFFFFFF0
FFFFFFFFFFFFF0
FFFFFFFFFFFFF0
FFFFFFFFFFFFF0
FFFFFFFFFFFFF0
00000000000000
00000000000000
00000000000000
00000000000000
00000000000000
00000000000000
00000000000000
00000000000000
00000000000000
FFFFFFFFFFFFF0
FFFFFFFFFFFFF0
FFFFFFFFFFFFF0
FFFFFFFFFFFFF0
FFFFFFFFFFFFF0
FFFFFFFFFFFFF0
FFFFFFFFFFFFF0
FFFFFFFFFFFFF0
FFFFFFFFFFFFF0
FFFFFFFFFFFFF0
ENDCHAR
STARTCHAR 003E
ENCODING 62
SWIDTH 641 0
DWIDTH 65 0
BBX 31 48 19 7
BITMAP
01000000
03800000
07C00000
0FE00000
1FF00000
3FF80000
7FFC0000
FFFE0000
FFFF0000
7FFF8000
1FFFC000
0FFFE000
07FFF000
03FFF800
01FFFC00
00FFFE00
007FFF00
003FFF80
001FFFC0
000FFFE0
0007FFF0
0003FFF8
0001FFFC
0000FFFE
00007FFE
0000FFFC
0001FFF8
0003FFF0
0007FFE0
000FFFC0
003FFF80
007FFF00
00FFFE00
01FFFC00
03FFF800
07FFF000
0FFFE000
1FFFC000
3FFF8000
7FFF0000
FFFE0000
FFFC0000
7FF80000
3FF00000
1FE00000
0FC00000
07800000
03000000
ENDCHAR
STARTCHAR 003F
ENCODING 63
SWIDTH 552 0
DWIDTH 56 0
BBX 46 74 5 0
BITMAP
00003FF00000
0003FFFF0000
000FFFFFE000
003FFFFFF800
00FFFFFFFC00
01FFFFFFFF00
03FFFFFFFF80
07FFFFFFFF80
0FFFFFFFFFC0
0FFFFFFFFFE0
1FFFFFFFFFE0
1FFFFFFFFFF0
3FFFC00FFFF0
3FFF0003FFF8
7FFE0001FFF8
7FFC0000FFF8
7FFC0000FFFC
FFF800007FFC
FFF800007FFC
FFF800007FFC
000000007FFC
000000007FFC
000000007FFC
000000007FFC
000000007FFC
00000000FFF8
00000000FFF8
00000001FFF8
00000001FFF0
00000003FFF0
00000007FFE0
0000000FFFE0
0000001FFFC0
0000003FFF80
0000007FFF80
000001FFFF00
000003FFFE00
000007FFFC00
00000FFFF800
00001FFFF000
00001FFFE000
00003FFFC000
00003FFF8000
00007FFF0000
00007FFE0000
0000FFFC0000
0000FFFC0000
0000FFF80000
0000FFF80000
0000FFF80000
0001FFF00000
0001FFF00000
0001FFF00000
0001FFF00000
000000000000
000000000000
000000000000
000000000000
000000000000
000000000000
000000000000
0001FFF00000
0001FFF00000
0001FFF00000
0001FFF00000
0001FFF00000
0001FFF00000
0001FFF00000
0001FFF00000
0001FFF00000
0001FFF00000
0001FFF00000
0001FFF00000
0001FFF00000
ENDCHAR
STARTCHAR 0040
ENCODING 64
SWIDTH 917 0
DWIDTH 93 0
BBX 76 77 8 -11
BITMAP
000000000F0000000000
0000000FFFFF00000000
000000FFFFFFF0000000
000003FFFFFFFE000000
00000FFFFFFFFF800000
00003FFFFFFFFFE00000
0000FFFFFFFFFFF80000
0001FFFFFFFFFFFC0000
0007FFFFFFFFFFFF0000
000FFFFFFFFFFFFF8000
001FFFFF800FFFFFC000
003FFFF000007FFFE000
007FFFC000001FFFF000
00FFFF00000007FFF800
00FFFC00000001FFF800
01FFF0000000007FFC00
03FFE0000000003FFE00
03FFC0000000001FFF00
07FF80000000000FFF00
07FF000000000007FF80
0FFF00007F800003FF80
0FFE0003FFF8FE03FFC0
1FFC000FFFFEFE01FFC0
1FFC003FFFFFFE01FFC0
3FF8007FFFFFFE00FFE0
3FF800FFFFFFFE00FFE0
3FF001FFFFFFFE007FE0
3FF003FFFFFFFE007FE0
7FF007FFFFFFFE007FF0
7FE007FFFFFFFE007FF0
7FE00FFFC03FFE003FF0
7FE00FFF000FFE003FF0
7FE00FFE000FFE003FF0
FFE01FFC0007FE003FF0
FFC01FFC0007FE003FF0
FFC01FF80003FE003FF0
FFC01FF80003FE003FF0
FFC01FF80003FE003FF0
FFC01FF80003FE003FF0
FFC01FF80003FE003FF0
FFC01FF80003FE003FF0
FFC01FF80003FE003FF0
FFE01FFC0003FE003FF0
FFE01FFC0007FE003FF0
FFE00FFE0007FF007FF0
FFE00FFE000FFF007FF0
7FE00FFF001FFF00FFE0
7FE007FFE07FFF81FFE0
7FF007FFFFFFFFFFFFE0
7FF003FFFFFFFFFFFFC0
7FF003FFFFFFFFFFFFC0
3FF801FFFFFFFFFFFF80
3FF800FFFFFFFFFFFF80
3FFC007FFFFF7FFFFF00
1FFC003FFFFE3FFFFE00
1FFE000FFFFC1FFFFC00
0FFF0003FFF007FFF000
0FFF00001F0000FF8000
07FF8000000000000000
07FFC000000000000000
03FFE000000000000000
01FFF000000000000000
01FFFC00000000000000
00FFFE00000000000000
007FFF80000000000000
003FFFF00000E0000000
001FFFFF000FE0000000
000FFFFFFFFFF0000000
0007FFFFFFFFF0000000
0001FFFFFFFFF0000000
0000FFFFFFFFF8000000
00003FFFFFFFF8000000
00000FFFFFFFF8000000
000003FFFFFFFC000000
0000007FFFFFF0000000
0000000FFFFF00000000
000000000F8000000000
ENDCHAR
STARTCHAR 0041
ENCODING 65
SWIDTH 670 0
DWIDTH 68 0
BBX 64 73 2 0
BITMAP
000001FFFF800000
000001FFFF800000
000003FFFFC00000
000003FFFFC00000
000003FFFFC00000
000007FFFFE00000
000007FFFFE00000
000007FFFFE00000
00000FFFFFF00000
00000FFFFFF00000
00000FFFFFF00000
00001FFFFFF80000
00001FFFFFF80000
00001FFEFFF80000
00003FFE7FFC0000
00003FFE7FFC0000
00003FFC7FFC0000
00003FFC3FFC0000
00007FFC3FFE0000
00007FF83FFE0000
00007FF81FFE0000
0000FFF81FFF0000
0000FFF01FFF0000
0000FFF00FFF0000
0001FFF00FFF8000
0001FFF00FFF8000
0001FFE007FF8000
0003FFE007FFC000
0003FFE007FFC000
0003FFC003FFC000
0007FFC003FFE000
0007FFC003FFE000
0007FF8003FFE000
000FFF8001FFF000
000FFF8001FFF000
000FFF0001FFF000
000FFF0000FFF000
001FFF0000FFF800
001FFE0000FFF800
001FFE00007FF800
003FFE00007FFC00
003FFC00007FFC00
003FFC00003FFC00
007FFC00003FFE00
007FFC00003FFE00
007FF800001FFE00
00FFFFFFFFFFFF00
00FFFFFFFFFFFF00
00FFFFFFFFFFFF00
01FFFFFFFFFFFF80
01FFFFFFFFFFFF80
01FFFFFFFFFFFF80
03FFFFFFFFFFFF80
03FFFFFFFFFFFFC0
03FFFFFFFFFFFFC0
03FFFFFFFFFFFFC0
07FFFFFFFFFFFFE0
07FF80000003FFE0
07FF80000001FFE0
0FFF80000001FFF0
0FFF00000001FFF0
0FFF00000000FFF0
1FFF00000000FFF8
1FFF00000000FFF8
1FFE000000007FF8
3FFE000000007FFC
3FFE000000007FFC
3FFC000000003FFC
7FFC000000003FFE
7FFC000000003FFE
7FF8000000001FFE
FFF8000000001FFE
FFF8000000001FFF
ENDCHAR
STARTCHAR 0042
ENCODING 66
SWIDTH 631 0
DWIDTH 64 0
BBX 54 73 7 0
BITMAP
FFFFFFFFC00000
FFFFFFFFFC0000
FFFFFFFFFF0000
FFFFFFFFFFC000
FFFFFFFFFFE000
FFFFFFFFFFF000
FFFFFFFFFFF800
FFFFFFFFFFFC00
FFFFFFFFFFFE00
FFFFFFFFFFFF00
FFFFFFFFFFFF00
FFF00003FFFF80
FFF000003FFF80
FFF000001FFFC0
FFF000000FFFC0
FFF0000007FFC0
FFF0000007FFC0
FFF0000003FFC0
FFF0000003FFC0
FFF0000003FFE0
FFF0000003FFE0
FFF0000003FFC0
FFF0000003FFC0
FFF0000003FFC0
FFF0000007FFC0
FFF0000007FFC0
FFF000000FFF80
FFF000003FFF80
FFF00000FFFF80
FFFFFFFFFFFF00
FFFFFFFFFFFE00
FFFFFFFFFFFE00
FFFFFFFFFFFC00
FFFFFFFFFFF800
FFFFFFFFFFF000
FFFFFFFFFFF800
FFFFFFFFFFFE00
FFFFFFFFFFFF00
FFFFFFFFFFFF80
FFFFFFFFFFFFC0
FFF00000FFFFE0
FFF000000FFFE0
FFF0000003FFF0
FFF0000001FFF0
FFF0000000FFF8
FFF0000000FFF8
FFF00000007FF8
FFF00000007FFC
FFF00000007FFC
FFF00000003FFC
FFF00000003FFC
FFF00000003FFC
FFF00000007FFC
FFF00000007FFC
FFF00000007FFC
FFF00000007FFC
FFF0000000FFF8
FFF0000001FFF8
FFF0000001FFF8
FFF0000007FFF8
FFF000001FFFF0
FFFFFFFFFFFFF0
FFFFFFFFFFFFF0
FFFFFFFFFFFFE0
FFFFFFFFFFFFC0
FFFFFFFFFFFFC0
FFFFFFFFFFFF80
FFFFFFFFFFFF00
FFFFFFFFFFFE00
FFFFFFFFFFF800
FFFFFFFFFFF000
FFFFFFFFFF8000
FFFFFFFFFC0000
ENDCHAR
STARTCHAR 0043
ENCODING 67
SWIDTH 739 0
DWIDTH 75 0
BBX 68 77 3 -2
BITMAP
0000000FFF80000000
000000FFFFFC000000
000007FFFFFF800000
00001FFFFFFFE00000
00007FFFFFFFF80000
0001FFFFFFFFFE0000
0003FFFFFFFFFF0000
000FFFFFFFFFFF8000
001FFFFFFFFFFFE000
003FFFFFFFFFFFF000
007FFFFFFFFFFFF800
00FFFFFFFFFFFFF800
00FFFFF0003FFFFC00
01FFFF800007FFFE00
03FFFE000003FFFF00
03FFFC000000FFFF00
07FFF80000007FFF80
07FFF00000003FFF80
0FFFE00000001FFFC0
0FFFC00000000FFFC0
1FFF8000000007FFE0
1FFF8000000007FFE0
3FFF0000000003FFE0
3FFF0000000003FFF0
3FFE0000000001FF00
3FFE0000000001F800
7FFE00000000018000
7FFC00000000000000
7FFC00000000000000
7FFC00000000000000
7FFC00000000000000
FFF800000000000000
FFF800000000000000
FFF800000000000000
FFF800000000000000
FFF800000000000000
FFF800000000000000
FFF800000000000000
FFF800000000000000
FFF800000000000000
FFF800000000000000
FFF800000000000000
FFF800000000000000
FFF800000000000000
FFF800000000000000
FFF800000000000000
7FFC00000000000000
7FFC00000000000000
7FFC00000000000000
7FFC00000000000000
7FFC00000000018000
3FFE0000000001F800
3FFE0000000001FF00
3FFF0000000003FFF0
3FFF0000000003FFE0
1FFF8000000007FFE0
1FFF8000000007FFE0
0FFFC00000000FFFC0
0FFFE00000001FFFC0
07FFF00000003FFF80
07FFF80000007FFF80
03FFFC000000FFFF00
03FFFE000001FFFF00
01FFFF800007FFFE00
00FFFFF0003FFFFC00
00FFFFFFFFFFFFF800
007FFFFFFFFFFFF800
003FFFFFFFFFFFF000
001FFFFFFFFFFFE000
000FFFFFFFFFFFC000
0003FFFFFFFFFF0000
0001FFFFFFFFFE0000
00007FFFFFFFF80000
00001FFFFFFFE00000
000007FFFFFF800000
000000FFFFFC000000
00000007FFC0000000
ENDCHAR
STARTCHAR 0044
ENCODING 68
SWIDTH 700 0
DWIDTH 71 0
BBX 59 73 7 0
BITMAP
FFFFFFFF80000000
FFFFFFFFF8000000
FFFFFFFFFF000000
FFFFFFFFFFC00000
FFFFFFFFFFF00000
FFFFFFFFFFF80000
FFFFFFFFFFFE0000
FFFFFFFFFFFF0000
FFFFFFFFFFFF8000
FFFFFFFFFFFFC000
FFFFFFFFFFFFE000
FFFFFFFFFFFFF000
FFF800007FFFF000
FFF800000FFFF800
FFF8000007FFFC00
FFF8000003FFFC00
FFF8000000FFFE00
FFF8000000FFFE00
FFF80000007FFF00
FFF80000003FFF00
FFF80000001FFF00
FFF80000001FFF80
FFF80000000FFF80
FFF80000000FFF80
FFF80000000FFFC0
FFF800000007FFC0
FFF800000007FFC0
FFF800000007FFC0
FFF800000007FFC0
FFF800000003FFE0
FFF800000003FFE0
FFF800000003FFE0
FFF800000003FFE0
FFF800000003FFE0
FFF800000003FFE0
FFF800000003FFE0
FFF800000003FFE0
FFF800000003FFE0
FFF800000003FFE0
FFF800000003FFE0
FFF800000003FFE0
FFF800000003FFE0
FFF800000003FFE0
FFF800000003FFE0
FFF800000007FFC0
FFF800000007FFC0
FFF800000007FFC0
FFF800000007FFC0
FFF80000000FFFC0
FFF80000000FFF80
FFF80000000FFF80
FFF80000001FFF80
FFF80000001FFF00
FFF80000003FFF00
FFF80000007FFF00
FFF8000000FFFE00
FFF8000000FFFE00
FFF8000003FFFC00
FFF8000007FFFC00
FFF800000FFFF800
FFF800007FFFF000
FFFFFFFFFFFFF000
FFFFFFFFFFFFE000
FFFFFFFFFFFFC000
FFFFFFFFFFFF8000
FFFFFFFFFFFF0000
FFFFFFFFFFFE0000
FFFFFFFFFFFC0000
FFFFFFFFFFF00000
FFFFFFFFFFC00000
FFFFFFFFFF000000
FFFFFFFFFC000000
FFFFFFFF80000000
ENDCHAR
STARTCHAR 0045
ENCODING 69
SWIDTH 581 0
DWIDTH 59 0
BBX 47 73 7 0
BITMAP
FFFFFFFFFFFE
FFFFFFFFFFFE
FFFFFFFFFFFE
FFFFFFFFFFFE
FFFFFFFFFFFE
FFFFFFFFFFFE
FFFFFFFFFFFE
FFFFFFFFFFFE
FFFFFFFFFFFE
FFFFFFFFFFFE
FFFFFFFFFFFE
FFF000000000
FFF000000000
FFF000000000
FFF000000000
FFF000000000
FFF000000000
FFF000000000
FFF000000000
FFF000000000
FFF000000000
FFF000000000
FFF000000000
FFF000000000
FFF000000000
FFF000000000
FFF000000000
FFF000000000
FFF000000000
FFF000000000
FFFFFFFFFF80
FFFFFFFFFF80
FFFFFFFFFF80
FFFFFFFFFF80
FFFFFFFFFF80
FFFFFFFFFF80
FFFFFFFFFF80
FFFFFFFFFF80
FFFFFFFFFF80
FFFFFFFFFF80
FFFFFFFFFF80
FFF000000000
FFF000000000
FFF000000000
FFF000000000
FFF000000000
FFF000000000
FFF000000000
FFF000000000
FFF000000000
FFF000000000
FFF000000000
FFF000000000
FFF000000000
FFF000000000
FFF000000000
FFF000000000
FFF000000000
FFF000000000
FFF000000000
FFF000000000
FFF000000000
FFFFFFFFFFFE
FFFFFFFFFFFE
FFFFFFFFFFFE
FFFFFFFFFFFE
FFFFFFFFFFFE
FFFFFFFFFFFE
FFFFFFFFFFFE
FFFFFFFFFFFE
FFFFFFFFFFFE
FFFFFFFFFFFE
FFFFFFFFFFFE
ENDCHAR
STARTCHAR 0046
ENCODING 70
SWIDTH 522 0
DWIDTH 53 0
BBX 44 73 7 0
BITMAP
FFFFFFFFFFF0
FFFFFFFFFFF0
FFFFFFFFFFF0
FFFFFFFFFFF0
FFFFFFFFFFF0
FFFFFFFFFFF0
FFFFFFFFFFF0
FFFFFFFFFFF0
FFFFFFFFFFF0
FFFFFFFFFFF0
FFFFFFFFFFF0
FFFFFFFFFFF0
FFF000000000
FFF000000000
FFF000000000
FFF000000000
FFF000000000
FFF000000000
FFF000000000
FFF000000000
FFF000000000
FFF000000000
FFF000000000
FFF000000000
FFF000000000
FFF000000000
FFF000000000
FFF000000000
FFF000000000
FFF000000000
FFF000000000
FFFFFFFFFC00
FFFFFFFFFC00
FFFFFFFFFC00
FFFFFFFFFC00
FFFFFFFFFC00
FFFFFFFFFC00
FFFFFFFFFC00
FFFFFFFFFC00
FFFFFFFFFC00
FFFFFFFFFC00
FFFFFFFFFC00
FFFFFFFFFC00
FFF000000000
FFF000000000
FFF000000000
FFF000000000
FFF000000000
FFF000000000
FFF000000000
FFF000000000
FFF000000000
FFF000000000
FFF000000000
FFF000000000
FFF000000000
FFF000000000
FFF000000000
FFF000000000
FFF000000000
FFF000000000
FFF000000000
FFF000000000
FFF000000000
FFF000000000
FFF000000000
FFF000000000
FFF000000000
FFF000000000
FFF000000000
FFF000000000
FFF000000000
FFF000000000
ENDCHAR
STARTCHAR 0047
ENCODING 71
SWIDTH 729 0
DWIDTH 74 0
BBX 68 77 3 -2
BITMAP
0000000FFF80000000
000000FFFFFC000000
000007FFFFFF800000
00001FFFFFFFE00000
00007FFFFFFFF80000
0001FFFFFFFFFC0000
0003FFFFFFFFFF0000
0007FFFFFFFFFF8000
001FFFFFFFFFFFC000
003FFFFFFFFFFFE000
007FFFFFFFFFFFF000
007FFFFFFFFFFFF800
00FFFFF0007FFFF800
01FFFF80000FFFFC00
03FFFE000007FFFC00
03FFFC000001FFFE00
07FFF8000000FFFF00
07FFF00000007FFF00
0FFFE00000003FFF00
0FFFC00000001FFF80
1FFF800000001FFF80
1FFF800000000FFF80
1FFF000000000FFFC0
3FFF0000000007FFC0
3FFE0000000007FF00
3FFE0000000007C000
7FFE00000000000000
7FFC00000000000000
7FFC00000000000000
7FFC00000000000000
7FFC00000000000000
FFF800000000000000
FFF800000000000000
FFF800000000000000
FFF800000000000000
FFF800000000000000
FFF800000000000000
FFF80000003FFFFFF0
FFF80000003FFFFFF0
FFF80000003FFFFFF0
FFF80000003FFFFFF0
FFF80000003FFFFFF0
FFF80000003FFFFFF0
FFF80000003FFFFFF0
FFF80000003FFFFFF0
FFF80000003FFFFFF0
7FFC0000003FFFFFF0
7FFC0000000001FFF0
7FFC0000000001FFF0
7FFC0000000003FFE0
7FFE0000000003FFE0
3FFE0000000003FFE0
3FFE0000000003FFE0
3FFF0000000007FFC0
3FFF0000000007FFC0
1FFF800000000FFFC0
1FFF800000000FFFC0
0FFFC00000001FFF80
0FFFE00000003FFF80
07FFF00000003FFF00
07FFF80000007FFF00
03FFFC000000FFFE00
03FFFE000003FFFE00
01FFFF800007FFFC00
00FFFFF0003FFFF800
007FFFFFEFFFFFF000
007FFFFFFFFFFFF000
003FFFFFFFFFFFE000
001FFFFFFFFFFFC000
0007FFFFFFFFFF8000
0003FFFFFFFFFE0000
0001FFFFFFFFFC0000
00007FFFFFFFF00000
00001FFFFFFFC00000
000007FFFFFF000000
000000FFFFF8000000
0000000FFF80000000
ENDCHAR
STARTCHAR 0048
ENCODING 72
SWIDTH 720 0
DWIDTH 73 0
BBX 59 73 7 0
BITMAP
FFF000000001FFE0
FFF000000001FFE0
FFF000000001FFE0
FFF000000001FFE0
FFF000000001FFE0
FFF000000001FFE0
FFF000000001FFE0
FFF000000001FFE0
FFF000000001FFE0
FFF000000001FFE0
FFF000000001FFE0
FFF000000001FFE0
FFF000000001FFE0
FFF000000001FFE0
FFF000000001FFE0
FFF000000001FFE0
FFF000000001FFE0
FFF000000001FFE0
FFF000000001FFE0
FFF000000001FFE0
FFF000000001FFE0
FFF000000001FFE0
FFF000000001FFE0
FFF000000001FFE0
FFF000000001FFE0
FFF000000001FFE0
FFF000000001FFE0
FFF000000001FFE0
FFF000000001FFE0
FFF000000001FFE0
FFF000000001FFE0
FFFFFFFFFFFFFFE0
FFFFFFFFFFFFFFE0
FFFFFFFFFFFFFFE0
FFFFFFFFFFFFFFE0
FFFFFFFFFFFFFFE0
FFFFFFFFFFFFFFE0
FFFFFFFFFFFFFFE0
FFFFFFFFFFFFFFE0
FFFFFFFFFFFFFFE0
FFFFFFFFFFFFFFE0
FFFFFFFFFFFFFFE0
FFF000000001FFE0
FFF000000001FFE0
FFF000000001FFE0
FFF000000001FFE0
FFF000000001FFE0
FFF000000001FFE0
FFF000000001FFE0
FFF000000001FFE0
FFF000000001FFE0
FFF000000001FFE0
FFF000000001FFE0
FFF000000001FFE0
FFF000000001FFE0
FFF000000001FFE0
FFF000000001FFE0
FFF000000001FFE0
FFF000000001FFE0
FFF000000001FFE0
FFF000000001FFE0
FFF000000001FFE0
FFF000000001FFE0
FFF000000001FFE0
FFF000000001FFE0
FFF000000001FFE0
FFF000000001FFE0
FFF000000001FFE0
FFF000000001FFE0
FFF000000001FFE0
FFF000000001FFE0
FFF000000001FFE0
FFF000000001FFE0
ENDCHAR
STARTCHAR 0049
ENCODING 73
SWIDTH 276 0
DWIDTH 28 0
BBX 12 73 8 0
BITMAP
FFF0
FFF0
FFF0
FFF0
FFF0
FFF0
FFF0
FFF0
FFF0
FFF0
FFF0
FFF0
FFF0
FFF0
FFF0
FFF0
FFF0
FFF0
FFF0
FFF0
FFF0
FFF0
FFF0
FFF0
FFF0
FFF0
FFF0
FFF0
FFF0
FFF0
FFF0
FFF0
FFF0
FFF0
FFF0
FFF0
FFF0
FFF0
FFF0
FFF0
FFF0
FFF0
FFF0
FFF0
FFF0
FFF0
FFF0
FFF0
FFF0
FFF0
FFF0
FFF0
FFF0
FFF0
FFF0
FFF0
FFF0
FFF0
FFF0
FFF0
FFF0
FFF0
FFF0
FFF0
FFF0
FFF0
FFF0
FFF0
FFF0
FFF0
FFF0
FFF0
FFF0
ENDCHAR
STARTCHAR 004A
ENCODING 74
SWIDTH 503 0
DWIDTH 51 0
BBX 43 75 0 -2
BITMAP
00000003FFE0
00000003FFE0
00000003FFE0
00000003FFE0
00000003FFE0
00000003FFE0
00000003FFE0
00000003FFE0
00000003FFE0
00000003FFE0
00000003FFE0
00000003FFE0
00000003FFE0
00000003FFE0
00000003FFE0
00000003FFE0
00000003FFE0
00000003FFE0
00000003FFE0
00000003FFE0
00000003FFE0
00000003FFE0
00000003FFE0
00000003FFE0
00000003FFE0
00000003FFE0
00000003FFE0
00000003FFE0
00000003FFE0
00000003FFE0
00000003FFE0
00000003FFE0
00000003FFE0
00000003FFE0
00000003FFE0
00000003FFE0
00000003FFE0
00000003FFE0
00000003FFE0
00000003FFE0
00000003FFE0
00000003FFE0
00000003FFE0
00000003FFE0
00000003FFE0
00000003FFE0
00000003FFE0
00000003FFE0
00000003FFE0
00000003FFE0
00000003FFE0
00000003FFE0
00000003FFE0
00000003FFE0
00000003FFE0
00000003FFE0
00300003FFE0
03F80003FFC0
7FF80007FFC0
FFFC0007FFC0
7FFC000FFFC0
7FFF001FFFC0
7FFF803FFF80
3FFFFBFFFF80
3FFFFFFFFF00
1FFFFFFFFF00
0FFFFFFFFE00
0FFFFFFFFE00
07FFFFFFFC00
03FFFFFFF800
00FFFFFFF000
007FFFFFC000
001FFFFF8000
0007FFFC0000
00007FE00000
ENDCHAR
STARTCHAR 004B
ENCODING 75
SWIDTH 650 0
DWIDTH 66 0
BBX 58 73 7 0
BITMAP
FFF00000007FFF00
FFF0000000FFFE00
FFF0000001FFFC00
FFF0000003FFF800
FFF0000003FFF800
FFF0000007FFF000
FFF000000FFFE000
FFF000001FFFC000
FFF000003FFF8000
FFF000007FFF0000
FFF00000FFFE0000
FFF00000FFFC0000
FFF00001FFFC0000
FFF00003FFF80000
FFF00007FFF00000
FFF0000FFFE00000
FFF0001FFFC00000
FFF0003FFF800000
FFF0003FFF000000
FFF0007FFE000000
FFF000FFFC000000
FFF001FFFC000000
FFF003FFF8000000
FFF007FFF0000000
FFF00FFFE0000000
FFF00FFFC0000000
FFF01FFF80000000
FFF03FFF00000000
FFF07FFE00000000
FFF0FFFE00000000
FFF1FFFC00000000
FFF3FFF800000000
FFF7FFF000000000
FFF7FFE000000000
FFFFFFC000000000
FFFFFF8000000000
FFFFFFC000000000
FFFFFFE000000000
FFFFFFF000000000
FFF7FFF000000000
FFF3FFF800000000
FFF1FFFC00000000
FFF0FFFE00000000
FFF0FFFF00000000
FFF07FFF80000000
FFF03FFFC0000000
FFF01FFFE0000000
FFF00FFFF0000000
FFF007FFF8000000
FFF003FFF8000000
FFF001FFFC000000
FFF000FFFE000000
FFF0007FFF000000
FFF0007FFF800000
FFF0003FFFC00000
FFF0001FFFE00000
FFF0000FFFF00000
FFF00007FFF80000
FFF00003FFFC0000
FFF00001FFFC0000
FFF00000FFFE0000
FFF000007FFF0000
FFF000003FFF8000
FFF000003FFFC000
FFF000001FFFE000
FFF000000FFFF000
FFF0000007FFF800
FFF0000003FFFC00
FFF0000001FFFE00
FFF0000000FFFE00
FFF00000007FFF00
FFF00000003FFF80
FFF00000001FFFC0
ENDCHAR
STARTCHAR 004C
ENCODING 76
SWIDTH 532 0
DWIDTH 54 0
BBX 45 73 8 0
BITMAP
FFF000000000
FFF000000000
FFF000000000
FFF000000000
FFF000000000
FFF000000000
FFF000000000
FFF000000000
FFF000000000
FFF000000000
FFF000000000
FFF000000000
FFF000000000
FFF000000000
FFF000000000
FFF000000000
FFF000000000
FFF000000000
FFF000000000
FFF000000000
FFF000000000
FFF000000000
FFF000000000
FFF000000000
FFF000000000
FFF000000000
FFF000000000
FFF000000000
FFF000000000
FFF000000000
FFF000000000
FFF000000000
FFF000000000
FFF000000000
FFF000000000
FFF000000000
FFF000000000
FFF000000000
FFF000000000
FFF000000000
FFF000000000
FFF000000000
FFF000000000
FFF000000000
FFF000000000
FFF000000000
FFF000000000
FFF000000000
FFF000000000
FFF000000000
FFF000000000
FFF000000000
FFF000000000
FFF000000000
FFF000000000
FFF000000000
FFF000000000
FFF000000000
FFF000000000
FFF000000000
FFF000000000
FFF000000000
FFFFFFFFFFF8
FFFFFFFFFFF8
FFFFFFFFFFF8
FFFFFFFFFFF8
FFFFFFFFFFF8
FFFFFFFFFFF8
FFFFFFFFFFF8
FFFFFFFFFFF8
FFFFFFFFFFF8
FFFFFFFFFFF8
FFFFFFFFFFF8
ENDCHAR
STARTCHAR 004D
ENCODING 77
SWIDTH 858 0
DWIDTH 87 0
BBX 73 73 7 0
BITMAP
FFE0000000000007FF80
FFF0000000000007FF80
FFF000000000000FFF80
FFF800000000000FFF80
FFF800000000001FFF80
FFFC00000000001FFF80
FFFC00000000003FFF80
FFFE00000000003FFF80
FFFE00000000007FFF80
FFFF00000000007FFF80
FFFF0000000000FFFF80
FFFF8000000000FFFF80
FFFF8000000001FFFF80
FFFFC000000001FFFF80
FFFFC000000003FFFF80
FFFFE000000003FFFF80
FFFFE000000003FFFF80
FFFFF000000007FFFF80
FFFFF000000007FFFF80
FFFFF80000000FFFFF80
FFFFF80000000FFFFF80
FFFFFC0000001FFFFF80
FFFFFC0000001FFFFF80
FFFFFE0000003FFFFF80
FFFFFE0000003FFFFF80
FFFFFF0000007FFFFF80
FFFFFF0000007FFFFF80
FFFFFF800000FFFFFF80
FFF7FF800000FFF7FF80
FFF7FFC00001FFF7FF80
FFF3FFC00001FFE7FF80
FFF3FFC00003FFE7FF80
FFF1FFE00003FFC7FF80
FFF1FFE00007FFC7FF80
FFF1FFF00007FF87FF80
FFF0FFF0000FFF87FF80
FFF0FFF8000FFF07FF80
FFF07FF8001FFF07FF80
FFF07FFC001FFE07FF80
FFF03FFC003FFE07FF80
FFF03FFE003FFC07FF80
FFF01FFE007FFC07FF80
FFF01FFF007FF807FF80
FFF00FFF00FFF807FF80
FFF00FFF80FFF007FF80
FFF007FF81FFF007FF80
FFF007FFC1FFE007FF80
FFF003FFC3FFE007FF80
FFF003FFE3FFC007FF80
FFF001FFE7FFC007FF80
FFF001FFF7FFC007FF80
FFF000FFFFFF8007FF80
FFF000FFFFFF8007FF80
FFF0007FFFFF0007FF80
FFF0007FFFFF0007FF80
FFF0003FFFFE0007FF80
FFF0003FFFFE0007FF80
FFF0003FFFFC0007FF80
FFF0001FFFFC0007FF80
FFF0001FFFF80007FF80
FFF0000FFFF80007FF80
FFF0000FFFF00007FF80
FFF00007FFF00007FF80
FFF00007FFE00007FF80
FFF00003FFE00007FF80
FFF00003FFC00007FF80
FFF00001FFC00007FF80
FFF00001FF800007FF80
FFF00000FF800007FF80
FFF00000FF000007FF80
FFF000007F000007FF80
FFF000007E000007FF80
FFF000003E000007FF80
ENDCHAR
STARTCHAR 004E
ENCODING 78
SWIDTH 720 0
DWIDTH 73 0
BBX 59 73 7 0
BITMAP
FFF800000003FFE0
FFF800000003FFE0
FFFC00000003FFE0
FFFE00000003FFE0
FFFE00000003FFE0
FFFF00000003FFE0
FFFF80000003FFE0
FFFF80000003FFE0
FFFFC0000003FFE0
FFFFE0000003FFE0
FFFFE0000003FFE0
FFFFF0000003FFE0
FFFFF8000003FFE0
FFFFF8000003FFE0
FFFFFC000003FFE0
FFFFFE000003FFE0
FFFFFE000003FFE0
FFFFFF000003FFE0
FFFFFF800003FFE0
FFFFFF800003FFE0
FFFFFFC00003FFE0
FFFFFFE00003FFE0
FFF7FFE00003FFE0
FFF3FFF00003FFE0
FFF3FFF80003FFE0
FFF1FFF80003FFE0
FFF0FFFC0003FFE0
FFF0FFFE0003FFE0
FFF07FFE0003FFE0
FFF03FFF0003FFE0
FFF03FFF8003FFE0
FFF01FFF8003FFE0
FFF00FFFC003FFE0
FFF00FFFE003FFE0
FFF007FFE003FFE0
FFF003FFF003FFE0
FFF003FFF003FFE0
FFF001FFF803FFE0
FFF000FFFC03FFE0
FFF000FFFC03FFE0
FFF0007FFE03FFE0
FFF0003FFF03FFE0
FFF0003FFF03FFE0
FFF0001FFF83FFE0
FFF0000FFFC3FFE0
FFF0000FFFC3FFE0
FFF00007FFE3FFE0
FFF00003FFF3FFE0
FFF00003FFF3FFE0
FFF00001FFFBFFE0
FFF00001FFFFFFE0
FFF00000FFFFFFE0
FFF000007FFFFFE0
FFF000007FFFFFE0
FFF000003FFFFFE0
FFF000001FFFFFE0
FFF000001FFFFFE0
FFF000000FFFFFE0
FFF0000007FFFFE0
FFF0000007FFFFE0
FFF0000003FFFFE0
FFF0000001FFFFE0
FFF0000001FFFFE0
FFF0000000FFFFE0
FFF00000007FFFE0
FFF00000007FFFE0
FFF00000003FFFE0
FFF00000001FFFE0
FFF00000001FFFE0
FFF00000000FFFE0
FFF000000007FFE0
FFF000000007FFE0
FFF000000003FFE0
ENDCHAR
STARTCHAR 004F
ENCODING 79
SWIDTH 749 0
DWIDTH 76 0
BBX 70 77 3 -2
BITMAP
0000000FFF80000000
000000FFFFFC000000
000007FFFFFF800000
00001FFFFFFFE00000
00007FFFFFFFF80000
0001FFFFFFFFFE0000
0003FFFFFFFFFF0000
000FFFFFFFFFFF8000
001FFFFFFFFFFFE000
003FFFFFFFFFFFF000
007FFFFFFFFFFFF800
00FFFFFFFFFFFFF800
00FFFFF0003FFFFC00
01FFFF80000FFFFE00
03FFFE000003FFFF00
03FFFC000000FFFF00
07FFF80000007FFF80
07FFF00000003FFF80
0FFFE00000001FFFC0
0FFFC00000000FFFC0
1FFF8000000007FFE0
1FFF8000000007FFE0
3FFF0000000003FFE0
3FFF0000000003FFF0
3FFE0000000001FFF0
3FFE0000000001FFF0
7FFE0000000001FFF8
7FFC0000000000FFF8
7FFC0000000000FFF8
7FFC0000000000FFF8
7FFC0000000000FFF8
FFF80000000000FFF8
FFF800000000007FFC
FFF800000000007FFC
FFF800000000007FFC
FFF800000000007FFC
FFF800000000007FFC
FFF800000000007FFC
FFF800000000007FFC
FFF800000000007FFC
FFF800000000007FFC
FFF800000000007FFC
FFF800000000007FFC
FFF800000000007FFC
FFF800000000007FFC
FFF80000000000FFF8
7FFC0000000000FFF8
7FFC0000000000FFF8
7FFC0000000000FFF8
7FFC0000000000FFF8
7FFE0000000001FFF8
3FFE0000000001FFF0
3FFE0000000001FFF0
3FFF0000000003FFF0
3FFF0000000003FFE0
1FFF8000000007FFE0
1FFF8000000007FFE0
0FFFC00000000FFFC0
0FFFE00000001FFFC0
07FFF00000003FFF80
07FFF80000007FFF80
03FFFC000000FFFF00
03FFFE000001FFFF00
01FFFF800007FFFE00
00FFFFF0003FFFFC00
00FFFFFFEFFFFFF800
007FFFFFFFFFFFF800
003FFFFFFFFFFFF000
001FFFFFFFFFFFE000
000FFFFFFFFFFF8000
0003FFFFFFFFFF0000
0001FFFFFFFFFE0000
00007FFFFFFFF80000
00001FFFFFFFE00000
000007FFFFFF800000
000000FFFFFC000000
00000007FFC0000000
ENDCHAR
STARTCHAR 0050
ENCODING 80
SWIDTH 641 0
DWIDTH 65 0
BBX 55 73 7 0
BITMAP
FFFFFFFFF80000
FFFFFFFFFF8000
FFFFFFFFFFE000
FFFFFFFFFFF800
FFFFFFFFFFFC00
FFFFFFFFFFFF00
FFFFFFFFFFFF80
FFFFFFFFFFFF80
FFFFFFFFFFFFC0
FFFFFFFFFFFFE0
FFFFFFFFFFFFF0
FFF00003FFFFF0
FFF000000FFFF8
FFF0000003FFF8
FFF0000001FFF8
FFF0000000FFFC
FFF00000007FFC
FFF00000007FFC
FFF00000007FFC
FFF00000003FFC
FFF00000003FFE
FFF00000003FFE
FFF00000003FFE
FFF00000003FFE
FFF00000003FFE
FFF00000003FFE
FFF00000003FFE
FFF00000003FFC
FFF00000003FFC
FFF00000007FFC
FFF00000007FFC
FFF0000000FFFC
FFF0000001FFF8
FFF0000003FFF8
FFF0000007FFF8
FFF000003FFFF0
FFFFFFFFFFFFF0
FFFFFFFFFFFFE0
FFFFFFFFFFFFE0
FFFFFFFFFFFFC0
FFFFFFFFFFFF80
FFFFFFFFFFFF00
FFFFFFFFFFFE00
FFFFFFFFFFFC00
FFFFFFFFFFF000
FFFFFFFFFFC000
FFFFFFFFFE0000
FFF00000000000
FFF00000000000
FFF00000000000
FFF00000000000
FFF00000000000
FFF00000000000
FFF00000000000
FFF00000000000
FFF00000000000
FFF00000000000
FFF00000000000
FFF00000000000
FFF00000000000
FFF00000000000
FFF00000000000
FFF00000000000
FFF00000000000
FFF00000000000
FFF00000000000
FFF00000000000
FFF00000000000
FFF00000000000
FFF00000000000
FFF00000000000
FFF00000000000
FFF00000000000
ENDCHAR
STARTCHAR 0051
ENCODING 81
SWIDTH 749 0
DWIDTH 76 0
BBX 70 77 3 -2
BITMAP
0000000FFF80000000
000000FFFFFC000000
000007FFFFFF800000
00001FFFFFFFE00000
00007FFFFFFFF80000
0001FFFFFFFFFE0000
0003FFFFFFFFFF0000
000FFFFFFFFFFF8000
001FFFFFFFFFFFE000
003FFFFFFFFFFFF000
007FFFFFFFFFFFF800
00FFFFFFFFFFFFF800
00FFFFF0003FFFFC00
01FFFF80000FFFFE00
03FFFE000003FFFF00
03FFFC000000FFFF00
07FFF80000007FFF80
07FFF00000003FFF80
0FFFE00000001FFFC0
0FFFC00000000FFFC0
1FFF8000000007FFE0
1FFF8000000007FFE0
3FFF0000000003FFE0
3FFF0000000003FFF0
3FFE0000000001FFF0
3FFE0000000001FFF0
7FFE0000000001FFF8
7FFC0000000000FFF8
7FFC0000000000FFF8
7FFC0000000000FFF8
7FFC0000000000FFF8
FFF80000000000FFF8
FFF800000000007FFC
FFF800000000007FFC
FFF800000000007FFC
FFF800000000007FFC
FFF800000000007FFC
FFF800000000007FFC
FFF800000000007FFC
FFF800000000007FFC
FFF800000000007FFC
FFF800000000007FFC
FFF800000000007FFC
FFF800000000007FFC
FFF800000000007FFC
FFF80000000000FFFC
7FFC0000000000FFF8
7FFC0000000000FFF8
7FFC0000000000FFF8
7FFC0000000180FFF8
7FFE00000003C1FFF8
3FFE00000007E1FFF0
3FFE0000000FF1FFF0
3FFF0000001FFBFFF0
3FFF0000003FFFFFE0
1FFF8000007FFFFFE0
1FFF8000007FFFFFE0
0FFFC000003FFFFFC0
0FFFE000001FFFFFC0
07FFF000000FFFFF80
07FFF8000007FFFF80
03FFFC000003FFFF00
03FFFE000001FFFF00
01FFFF800007FFFE00
00FFFFF0003FFFFF00
00FFFFFFEFFFFFFF80
007FFFFFFFFFFFFFC0
003FFFFFFFFFFFFFE0
001FFFFFFFFFFFFFF0
000FFFFFFFFFFFFFF8
0003FFFFFFFFFFFFF0
0001FFFFFFFFFEFFE0
00007FFFFFFFF87FC0
00001FFFFFFFE03F80
000007FFFFFF801F00
000000FFFFFC000E00
00000007FF80000400
ENDCHAR
STARTCHAR 0052
ENCODING 82
SWIDTH 660 0
DWIDTH 67 0
BBX 56 73 7 0
BITMAP
FFFFFFFFF80000
FFFFFFFFFF8000
FFFFFFFFFFE000
FFFFFFFFFFF800
FFFFFFFFFFFC00
FFFFFFFFFFFF00
FFFFFFFFFFFF80
FFFFFFFFFFFF80
FFFFFFFFFFFFC0
FFFFFFFFFFFFE0
FFFFFFFFFFFFF0
FFF00003FFFFF0
FFF000000FFFF8
FFF0000003FFF8
FFF0000001FFF8
FFF0000000FFFC
FFF00000007FFC
FFF00000007FFC
FFF00000007FFC
FFF00000003FFC
FFF00000003FFE
FFF00000003FFE
FFF00000003FFE
FFF00000003FFE
FFF00000003FFE
FFF00000003FFE
FFF00000003FFE
FFF00000003FFC
FFF00000003FFC
FFF00000007FFC
FFF00000007FFC
FFF0000000FFFC
FFF0000001FFF8
FFF0000003FFF8
FFF0000007FFF8
FFF000003FFFF0
FFFFFFFFFFFFF0
FFFFFFFFFFFFE0
FFFFFFFFFFFFE0
FFFFFFFFFFFFC0
FFFFFFFFFFFF80
FFFFFFFFFFFF00
FFFFFFFFFFFE00
FFFFFFFFFFFC00
FFFFFFFFFFF000
FFFFFFFFFFC000
FFFFFFFFFFE000
FFF00003FFE000
FFF00003FFF000
FFF00001FFF000
FFF00001FFF800
FFF00000FFF800
FFF00000FFFC00
FFF000007FFC00
FFF000007FFE00
FFF000003FFE00
FFF000003FFF00
FFF000001FFF00
FFF000001FFF80
FFF000001FFF80
FFF000000FFFC0
FFF000000FFFC0
FFF0000007FFE0
FFF0000007FFE0
FFF0000003FFF0
FFF0000003FFF0
FFF0000001FFF8
FFF0000001FFF8
FFF0000000FFFC
FFF0000000FFFC
FFF00000007FFE
FFF00000007FFE
FFF00000003FFF
ENDCHAR
STARTCHAR 0053
ENCODING 83
SWIDTH 660 0
DWIDTH 67 0
BBX 59 76 4 -2
BITMAP
000001FFE0000000
00003FFFFF000000
0001FFFFFFE00000
0007FFFFFFF80000
000FFFFFFFFC0000
003FFFFFFFFF0000
007FFFFFFFFF8000
00FFFFFFFFFFC000
01FFFFFFFFFFE000
03FFFFFFFFFFF000
03FFFFFFFFFFF800
07FFFFE3FFFFFC00
07FFFE001FFFFE00
0FFFF00007FFFE00
0FFFE00001FFFF00
1FFFC00000FFFF00
1FFF8000007FFF80
1FFF0000003FFF80
1FFF0000001FFF80
1FFF0000000FFFC0
1FFF0000000FFFC0
1FFF0000000FFF80
1FFF00000007F000
1FFF000000040000
1FFF800000000000
1FFFC00000000000
1FFFE00000000000
0FFFF00000000000
0FFFFE0000000000
0FFFFFC000000000
07FFFFFC00000000
07FFFFFF80000000
03FFFFFFF8000000
01FFFFFFFF000000
00FFFFFFFFF00000
007FFFFFFFFC0000
001FFFFFFFFF0000
000FFFFFFFFFC000
0001FFFFFFFFF000
00007FFFFFFFF800
000007FFFFFFFC00
000000FFFFFFFE00
0000001FFFFFFF00
00000001FFFFFF00
000000003FFFFF80
0000000007FFFF80
0000000000FFFFC0
00000000003FFFC0
00000000001FFFC0
00000000000FFFC0
000000000007FFE0
007800000003FFE0
3FF800000003FFE0
FFF800000003FFE0
FFFC00000003FFE0
FFFC00000003FFE0
7FFE00000003FFE0
7FFF00000007FFC0
7FFF00000007FFC0
3FFF8000000FFFC0
3FFFE000001FFFC0
1FFFF000003FFF80
1FFFFC0000FFFF80
0FFFFF0003FFFF00
07FFFFFCFFFFFF00
07FFFFFFFFFFFE00
03FFFFFFFFFFFC00
01FFFFFFFFFFF800
00FFFFFFFFFFF000
007FFFFFFFFFE000
001FFFFFFFFFC000
000FFFFFFFFF0000
0003FFFFFFFC0000
0000FFFFFFF00000
00001FFFFF800000
000001FFF8000000
ENDCHAR
STARTCHAR 0054
ENCODING 84
SWIDTH 611 0
DWIDTH 62 0
BBX 59 73 1 0
BITMAP
FFFFFFFFFFFFFFE0
FFFFFFFFFFFFFFE0
FFFFFFFFFFFFFFE0
FFFFFFFFFFFFFFE0
FFFFFFFFFFFFFFE0
FFFFFFFFFFFFFFE0
FFFFFFFFFFFFFFE0
FFFFFFFFFFFFFFE0
FFFFFFFFFFFFFFE0
FFFFFFFFFFFFFFE0
FFFFFFFFFFFFFFE0
000000FFF0000000
000000FFF0000000
000000FFF0000000
000000FFF0000000
000000FFF0000000
000000FFF0000000
000000FFF0000000
000000FFF0000000
000000FFF0000000
000000FFF0000000
000000FFF0000000
000000FFF0000000
000000FFF0000000
000000FFF0000000
000000FFF0000000
000000FFF0000000
000000FFF0000000
000000FFF0000000
000000FFF0000000
000000FFF0000000
000000FFF0000000
000000FFF0000000
000000FFF0000000
000000FFF0000000
000000FFF0000000
000000FFF0000000
000000FFF0000000
000000FFF0000000
000000FFF0000000
000000FFF0000000
000000FFF0000000
000000FFF0000000
000000FFF0000000
000000FFF0000000
000000FFF0000000
000000FFF0000000
000000FFF0000000
000000FFF0000000
000000FFF0000000
000000FFF0000000
000000FFF0000000
000000FFF0000000
000000FFF0000000
000000FFF0000000
000000FFF0000000
000000FFF0000000
000000FFF0000000
000000FFF0000000
000000FFF0000000
000000FFF0000000
000000FFF0000000
000000FFF0000000
000000FFF0000000
000000FFF0000000
000000FFF0000000
000000FFF0000000
000000FFF0000000
000000FFF0000000
000000FFF0000000
000000FFF0000000
000000FFF0000000
000000FFF0000000
ENDCHAR
STARTCHAR 0055
ENCODING 85
SWIDTH 720 0
DWIDTH 73 0
BBX 59 75 7 -2
BITMAP
FFF000000001FFE0
FFF000000001FFE0
FFF000000001FFE0
FFF000000001FFE0
FFF000000001FFE0
FFF000000001FFE0
FFF000000001FFE0
FFF000000001FFE0
FFF000000001FFE0
FFF000000001FFE0
FFF000000001FFE0
FFF000000001FFE0
FFF000000001FFE0
FFF000000001FFE0
FFF000000001FFE0
FFF000000001FFE0
FFF000000001FFE0
FFF000000001FFE0
FFF000000001FFE0
FFF000000001FFE0
FFF000000001FFE0
FFF000000001FFE0
FFF000000001FFE0
FFF000000001FFE0
FFF000000001FFE0
FFF000000001FFE0
FFF000000001FFE0
FFF000000001FFE0
FFF000000001FFE0
FFF000000001FFE0
FFF000000001FFE0
FFF000000001FFE0
FFF000000001FFE0
FFF000000001FFE0
FFF000000001FFE0
FFF000000001FFE0
FFF000000001FFE0
FFF000000001FFE0
FFF000000001FFE0
FFF000000001FFE0
FFF000000001FFE0
FFF000000001FFE0
FFF000000001FFE0
FFF000000001FFE0
FFF000000001FFE0
FFF000000001FFE0
FFF000000003FFE0
FFF800000003FFE0
FFF800000003FFE0
FFF800000003FFE0
FFF800000003FFE0
FFF800000003FFC0
7FFC00000007FFC0
7FFC00000007FFC0
7FFC00000007FFC0
7FFE0000000FFFC0
3FFF0000001FFF80
3FFF0000001FFF80
3FFF8000003FFF80
1FFFC000007FFF00
1FFFF00001FFFF00
0FFFF80003FFFE00
0FFFFF001FFFFE00
07FFFFFFFFFFFC00
03FFFFFFFFFFF800
01FFFFFFFFFFF000
00FFFFFFFFFFE000
007FFFFFFFFFC000
003FFFFFFFFF8000
001FFFFFFFFF0000
000FFFFFFFFC0000
0003FFFFFFF80000
0000FFFFFFE00000
00001FFFFF000000
000001FFF0000000
ENDCHAR
STARTCHAR 0056
ENCODING 86
SWIDTH 641 0
DWIDTH 65 0
BBX 63 73 1 0
BITMAP
FFF0000000001FFE
FFF8000000003FFE
FFF8000000003FFE
7FF8000000003FFC
7FF8000000007FFC
7FFC000000007FFC
3FFC000000007FF8
3FFC00000000FFF8
3FFE00000000FFF8
3FFE00000000FFF0
1FFE00000001FFF0
1FFF00000001FFF0
1FFF00000001FFE0
0FFF00000001FFE0
0FFF80000003FFE0
0FFF80000003FFE0
07FF80000003FFC0
07FFC0000007FFC0
07FFC0000007FFC0
03FFC0000007FF80
03FFE000000FFF80
03FFE000000FFF80
01FFE000000FFF00
01FFE000001FFF00
01FFF000001FFF00
00FFF000001FFE00
00FFF000003FFE00
00FFF800003FFE00
00FFF800003FFC00
007FF800007FFC00
007FFC00007FFC00
007FFC00007FF800
003FFC0000FFF800
003FFE0000FFF800
003FFE0000FFF800
001FFE0000FFF000
001FFF0001FFF000
001FFF0001FFF000
000FFF0001FFE000
000FFF8003FFE000
000FFF8003FFE000
0007FF8003FFC000
0007FF8007FFC000
0007FFC007FFC000
0003FFC007FF8000
0003FFC00FFF8000
0003FFE00FFF8000
0003FFE00FFF0000
0001FFE01FFF0000
0001FFF01FFF0000
0001FFF01FFE0000
0000FFF03FFE0000
0000FFF83FFE0000
0000FFF83FFE0000
00007FF87FFC0000
00007FFC7FFC0000
00007FFC7FFC0000
00003FFCFFF80000
00003FFEFFF80000
00003FFEFFF80000
00001FFEFFF00000
00001FFFFFF00000
00001FFFFFF00000
00000FFFFFE00000
00000FFFFFE00000
00000FFFFFE00000
00000FFFFFC00000
000007FFFFC00000
000007FFFFC00000
000007FFFFC00000
000003FFFF800000
000003FFFF800000
000003FFFF800000
ENDCHAR
STARTCHAR 0057
ENCODING 87
SWIDTH 976 0
DWIDTH 99 0
BBX 97 73 1 0
BITMAP
FFF80000003FFE0000000FFF80
7FF80000003FFE0000001FFF00
7FFC0000007FFF0000001FFF00
7FFC0000007FFF0000001FFF00
7FFC0000007FFF0000001FFE00
3FFE0000007FFF0000003FFE00
3FFE000000FFFF8000003FFE00
3FFE000000FFFF8000003FFE00
1FFE000000FFFF8000003FFC00
1FFF000001FFFF8000007FFC00
1FFF000001FFFFC000007FFC00
1FFF000001FFFFC000007FF800
0FFF000001FFFFC00000FFF800
0FFF800003FFFFE00000FFF800
0FFF800003FFFFE00000FFF000
07FF800003FFFFE00000FFF000
07FFC00003FFFFE00001FFF000
07FFC00007FFFFF00001FFF000
03FFC00007FFFFF00001FFE000
03FFC00007FFFFF00001FFE000
03FFE0000FFFFFF80003FFE000
03FFE0000FFF7FF80003FFC000
01FFE0000FFF7FF80003FFC000
01FFE0000FFF7FF80007FFC000
01FFF0001FFE7FFC0007FFC000
00FFF0001FFE3FFC0007FF8000
00FFF0001FFE3FFC0007FF8000
00FFF8003FFE3FFC000FFF8000
00FFF8003FFC1FFE000FFF0000
007FF8003FFC1FFE000FFF0000
007FF8003FFC1FFE000FFF0000
007FFC007FF81FFF001FFF0000
003FFC007FF80FFF001FFE0000
003FFC007FF80FFF001FFE0000
003FFE007FF80FFF003FFE0000
001FFE00FFF007FF803FFC0000
001FFE00FFF007FF803FFC0000
001FFE00FFF007FF803FFC0000
001FFF01FFE007FF807FF80000
000FFF01FFE003FFC07FF80000
000FFF01FFE003FFC07FF80000
000FFF01FFE003FFC0FFF80000
0007FF83FFC001FFE0FFF00000
0007FF83FFC001FFE0FFF00000
0007FF83FFC001FFE0FFF00000
0007FFC3FF8001FFE1FFE00000
0003FFC7FF8000FFF1FFE00000
0003FFC7FF8000FFF1FFE00000
0003FFC7FF8000FFF1FFE00000
0001FFEFFF00007FFBFFC00000
0001FFEFFF00007FFBFFC00000
0001FFEFFF00007FFBFFC00000
0001FFEFFE00007FFFFF800000
0000FFFFFE00003FFFFF800000
0000FFFFFE00003FFFFF800000
0000FFFFFE00003FFFFF800000
00007FFFFC00001FFFFF000000
00007FFFFC00001FFFFF000000
00007FFFFC00001FFFFF000000
00003FFFF800001FFFFE000000
00003FFFF800000FFFFE000000
00003FFFF800000FFFFE000000
00003FFFF800000FFFFE000000
00001FFFF0000007FFFC000000
00001FFFF0000007FFFC000000
00001FFFF0000007FFFC000000
00000FFFE0000007FFF8000000
00000FFFE0000003FFF8000000
00000FFFE0000003FFF8000000
00000FFFE0000003FFF0000000
000007FFC0000001FFF0000000
000007FFC0000001FFF0000000
000007FFC0000001FFF0000000
ENDCHAR
STARTCHAR 0058
ENCODING 88
SWIDTH 650 0
DWIDTH 66 0
BBX 64 73 1 0
BITMAP
7FFF00000000FFFF
3FFF80000000FFFE
3FFF80000001FFFC
1FFFC0000001FFFC
0FFFE0000003FFF8
0FFFE0000007FFF0
07FFF0000007FFF0
03FFF800000FFFE0
03FFF800001FFFC0
01FFFC00001FFFC0
00FFFC00003FFF80
00FFFE00007FFF00
007FFF00007FFF00
003FFF0000FFFE00
003FFF8001FFFC00
001FFFC001FFFC00
000FFFC003FFF800
000FFFE003FFF000
0007FFF007FFF000
0003FFF00FFFE000
0003FFF80FFFC000
0001FFFC1FFFC000
0000FFFC3FFF8000
0000FFFE3FFF0000
00007FFF7FFF0000
00003FFFFFFE0000
00003FFFFFFC0000
00001FFFFFFC0000
00000FFFFFF80000
00000FFFFFF00000
000007FFFFF00000
000003FFFFE00000
000003FFFFC00000
000001FFFFC00000
000000FFFF800000
000000FFFF000000
000000FFFF000000
000000FFFF800000
000001FFFF800000
000003FFFFC00000
000003FFFFE00000
000007FFFFE00000
00000FFFFFF00000
00000FFFFFF80000
00001FFFFFF80000
00003FFFFFFC0000
00003FFFFFFE0000
00007FFF7FFE0000
0000FFFE3FFF0000
0000FFFC3FFF8000
0001FFFC1FFF8000
0003FFF80FFFC000
0003FFF00FFFE000
0007FFF007FFE000
000FFFE007FFF000
000FFFC003FFF800
001FFFC001FFF800
003FFF8001FFFC00
003FFF8000FFFE00
007FFF00007FFE00
00FFFE00007FFF00
00FFFE00003FFF80
01FFFC00001FFF80
03FFF800001FFFC0
03FFF800000FFFE0
07FFF0000007FFE0
0FFFE0000007FFF0
0FFFE0000003FFF8
1FFFC0000001FFF8
3FFF80000001FFFC
3FFF80000000FFFE
7FFF00000000FFFE
FFFE000000007FFF
ENDCHAR
STARTCHAR 0059
ENCODING 89
SWIDTH 611 0
DWIDTH 62 0
BBX 62 73 0 0
BITMAP
FFFE00000001FFFC
7FFE00000001FFF8
7FFF00000003FFF8
3FFF00000003FFF0
1FFF80000007FFE0
1FFF80000007FFE0
0FFFC000000FFFC0
0FFFE000001FFFC0
07FFE000001FFF80
07FFF000003FFF80
03FFF000003FFF00
01FFF800007FFE00
01FFF800007FFE00
00FFFC0000FFFC00
00FFFE0001FFFC00
007FFE0001FFF800
007FFF0003FFF800
003FFF0003FFF000
001FFF8007FFE000
001FFF8007FFE000
000FFFC00FFFC000
000FFFE01FFFC000
0007FFE01FFF8000
0003FFF03FFF0000
0003FFF03FFF0000
0001FFF87FFE0000
0001FFFC7FFE0000
0000FFFCFFFC0000
0000FFFFFFFC0000
00007FFFFFF80000
00003FFFFFF00000
00003FFFFFF00000
00001FFFFFE00000
00001FFFFFE00000
00000FFFFFC00000
00000FFFFFC00000
000007FFFF800000
000003FFFF000000
000003FFFF000000
000001FFFE000000
000001FFFE000000
000000FFFC000000
000000FFFC000000
0000007FF8000000
0000007FF8000000
0000007FF8000000
0000007FF8000000
0000007FF8000000
0000007FF8000000
0000007FF8000000
0000007FF8000000
0000007FF8000000
0000007FF8000000
0000007FF8000000
0000007FF8000000
0000007FF8000000
0000007FF8000000
0000007FF8000000
0000007FF8000000
0000007FF8000000
0000007FF8000000
0000007FF8000000
0000007FF8000000
0000007FF8000000
0000007FF8000000
0000007FF8000000
0000007FF8000000
0000007FF8000000
0000007FF8000000
0000007FF8000000
0000007FF8000000
0000007FF8000000
0000007FF8000000
ENDCHAR
STARTCHAR 005A
ENCODING 90
SWIDTH 660 0
DWIDTH 67 0
BBX 57 73 5 0
BITMAP
1FFFFFFFFFFFFF80
1FFFFFFFFFFFFF80
1FFFFFFFFFFFFF80
1FFFFFFFFFFFFF00
1FFFFFFFFFFFFF00
1FFFFFFFFFFFFE00
1FFFFFFFFFFFFC00
1FFFFFFFFFFFFC00
1FFFFFFFFFFFF800
1FFFFFFFFFFFF800
1FFFFFFFFFFFF000
000000000FFFE000
000000001FFFE000
000000001FFFC000
000000003FFFC000
000000003FFF8000
000000007FFF0000
00000000FFFF0000
00000000FFFE0000
00000001FFFE0000
00000001FFFC0000
00000003FFF80000
00000007FFF80000
00000007FFF00000
0000000FFFF00000
0000000FFFE00000
0000001FFFC00000
0000003FFFC00000
0000003FFF800000
0000007FFF800000
0000007FFF000000
000000FFFE000000
000001FFFE000000
000001FFFC000000
000003FFFC000000
000003FFF8000000
000007FFF0000000
00000FFFF0000000
00000FFFE0000000
00001FFFE0000000
00001FFFC0000000
00003FFF80000000
00007FFF80000000
00007FFF00000000
0000FFFF00000000
0000FFFE00000000
0001FFFC00000000
0003FFFC00000000
0003FFF800000000
0007FFF800000000
0007FFF000000000
000FFFE000000000
001FFFE000000000
001FFFC000000000
003FFFC000000000
003FFF8000000000
007FFF0000000000
00FFFF0000000000
00FFFE0000000000
01FFFE0000000000
01FFFC0000000000
03FFFFFFFFFFFF00
07FFFFFFFFFFFF00
07FFFFFFFFFFFF00
0FFFFFFFFFFFFF00
0FFFFFFFFFFFFF00
1FFFFFFFFFFFFF00
3FFFFFFFFFFFFF00
3FFFFFFFFFFFFF00
7FFFFFFFFFFFFF00
7FFFFFFFFFFFFF00
FFFFFFFFFFFFFF00
FFFFFFFFFFFFFF00
ENDCHAR
STARTCHAR 005B
ENCODING 91
SWIDTH 424 0
DWIDTH 43 0
BBX 22 113 14 -22
BITMAP
FFFFFC
FFFFFC
FFFFFC
FFFFFC
FFFFFC
FFFFFC
FFFFFC
FFFFFC
FFFFFC
FFFFFC
FFFFFC
FFE000
FFE000
FFE000
FFE000
FFE000
FFE000
FFE000
FFE000
FFE000
FFE000
FFE000
FFE000
FFE000
FFE000
FFE000
FFE000
FFE000
FFE000
FFE000
FFE000
FFE000
FFE000
FFE000
FFE000
FFE000
FFE000
FFE000
FFE000
FFE000
FFE000
FFE000
FFE000
FFE000
FFE000
FFE000
FFE000
FFE000
FFE000
FFE000
FFE000
FFE000
FFE000
FFE000
FFE000
FFE000
FFE000
FFE000
FFE000
FFE000
FFE000
FFE000
FFE000
FFE000
FFE000
FFE000
FFE000
FFE000
FFE000
FFE000
FFE000
FFE000
FFE000
FFE000
FFE000
FFE000
FFE000
FFE000
FFE000
FFE000
FFE000
FFE000
FFE000
FFE000
FFE000
FFE000
FFE000
FFE000
FFE000
FFE000
FFE000
FFE000
FFE000
FFE000
FFE000
FFE000
FFE000
FFE000
FFE000
FFE000
FFE000
FFE000
FFFFFC
FFFFFC
FFFFFC
FFFFFC
FFFFFC
FFFFFC
FFFFFC
FFFFFC
FFFFFC
FFFFFC
FFFFFC
ENDCHAR
STARTCHAR 005C
ENCODING 92
SWIDTH 433 0
DWIDTH 44 0
BBX 32 73 6 0
BITMAP
FFF00000
FFF80000
7FF80000
7FF80000
7FFC0000
3FFC0000
3FFC0000
3FFC0000
3FFE0000
1FFE0000
1FFE0000
1FFE0000
1FFF0000
0FFF0000
0FFF0000
0FFF0000
0FFF8000
07FF8000
07FF8000
07FFC000
03FFC000
03FFC000
03FFC000
03FFE000
01FFE000
01FFE000
01FFE000
01FFF000
00FFF000
00FFF000
00FFF000
00FFF800
007FF800
007FF800
007FFC00
003FFC00
003FFC00
003FFC00
003FFE00
001FFE00
001FFE00
001FFE00
001FFF00
000FFF00
000FFF00
000FFF00
000FFF80
0007FF80
0007FF80
0007FFC0
0003FFC0
0003FFC0
0003FFC0
0003FFE0
0001FFE0
0001FFE0
0001FFE0
0001FFF0
0000FFF0
0000FFF0
0000FFF0
0000FFF8
00007FF8
00007FF8
00007FFC
00003FFC
00003FFC
00003FFC
00003FFE
00001FFE
00001FFE
00001FFE
00001FFF
ENDCHAR
STARTCHAR 005D
ENCODING 93
SWIDTH 424 0
DWIDTH 43 0
BBX 22 113 7 -22
BITMAP
FFFFFC
FFFFFC
FFFFFC
FFFFFC
FFFFFC
FFFFFC
FFFFFC
FFFFFC
FFFFFC
FFFFFC
FFFFFC
001FFC
001FFC
001FFC
001FFC
001FFC
001FFC
001FFC
001FFC
001FFC
001FFC
001FFC
001FFC
001FFC
001FFC
001FFC
001FFC
001FFC
001FFC
001FFC
001FFC
001FFC
001FFC
001FFC
001FFC
001FFC
001FFC
001FFC
001FFC
001FFC
001FFC
001FFC
001FFC
001FFC
001FFC
001FFC
001FFC
001FFC
001FFC
001FFC
001FFC
001FFC
001FFC
001FFC
001FFC
001FFC
001FFC
001FFC
001FFC
001FFC
001FFC
001FFC
001FFC
001FFC
001FFC
001FFC
001FFC
001FFC
001FFC
001FFC
001FFC
001FFC
001FFC
001FFC
001FFC
001FFC
001FFC
001FFC
001FFC
001FFC
001FFC
001FFC
001FFC
001FFC
001FFC
001FFC
001FFC
001FFC
001FFC
001FFC
001FFC
001FFC
001FFC
001FFC
001FFC
001FFC
001FFC
001FFC
001FFC
001FFC
001FFC
001FFC
FFFFFC
FFFFFC
FFFFFC
FFFFFC
FFFFFC
FFFFFC
FFFFFC
FFFFFC
FFFFFC
FFFFFC
FFFFFC
ENDCHAR
STARTCHAR 005E
ENCODING 94
SWIDTH 680 0
DWIDTH 69 0
BBX 48 32 11 43
BITMAP
000000800000
000001C00000
000003E00000
000007F00000
00000FF80000
00001FFC0000
00003FFE0000
00007FFF0000
0000FFFF8000
0001FFFFC000
0003FFFFE000
0007FFFFF000
000FFFFFF800
001FFFFFFC00
003FFFFFFE00
007FFE7FFF00
00FFFC3FFF80
01FFF81FFFC0
03FFF00FFFE0
07FFE007FFF0
0FFFC003FFF8
1FFF8001FFFC
3FFF0000FFFE
7FFE00007FFF
FFFC00003FFF
7FF800001FFE
3FF800000FFC
1FF000000FF8
0FE0000007F0
07C0000003E0
0380000001C0
010000000080
ENDCHAR
STARTCHAR 005F
ENCODING 95
SWIDTH 660 0
DWIDTH 67 0
BBX 67 10 0 -13
BITMAP
FFFFFFFFFFFFFFFFE0
FFFFFFFFFFFFFFFFE0
FFFFFFFFFFFFFFFFE0
FFFFFFFFFFFFFFFFE0
FFFFFFFFFFFFFFFFE0
FFFFFFFFFFFFFFFFE0
FFFFFFFFFFFFFFFFE0
FFFFFFFFFFFFFFFFE0
FFFFFFFFFFFFFFFFE0
FFFFFFFFFFFFFFFFE0
ENDCHAR
STARTCHAR 0060
ENCODING 96
SWIDTH 542 0
DWIDTH 55 0
BBX 16 19 17 81
BITMAP
FF80
FF80
FFC0
7FC0
7FE0
3FE0
3FE0
1FF0
1FF0
1FF8
0FF8
0FF8
07FC
07FC
07FE
03FE
03FF
01FF
01FF
ENDCHAR
STARTCHAR 0061
ENCODING 97
SWIDTH 572 0
DWIDTH 58 0
BBX 48 58 4 -2
BITMAP
00001FFE0000
0001FFFFF000
0007FFFFFC00
001FFFFFFF00
007FFFFFFF80
00FFFFFFFFE0
01FFFFFFFFF0
03FFFFFFFFF8
07FFFFFFFFF8
07FFFFFFFFFC
0FFFFFFFFFFC
0FFFFE07FFFE
1FFFE000FFFE
1FFF80007FFE
3FFF00003FFF
3FFE00001FFF
07FC00001FFF
00FC00000FFF
001800000FFF
000000000FFF
000000000FFF
00000000FFFF
0000007FFFFF
00000FFFFFFF
0001FFFFFFFF
000FFFFFFFFF
003FFFFFFFFF
00FFFFFFFFFF
03FFFFFFFFFF
07FFFFFFFFFF
0FFFFFFFFFFF
1FFFFFFF0FFF
3FFFFFC00FFF
3FFFF8000FFF
7FFFC0000FFF
7FFF00000FFF
7FFC00000FFF
FFF800001FFF
FFF800001FFF
FFF000001FFF
FFF000003FFF
FFF000003FFF
FFF000007FFF
FFF00000FFFF
FFF80001FFFF
FFF80003FFFF
7FFC000FFFFF
7FFF003FFFFF
7FFFFFFFFFFF
3FFFFFFFFBFF
1FFFFFFFFBFF
1FFFFFFFF3FF
0FFFFFFFE3FF
07FFFFFF83FF
03FFFFFF03FF
00FFFFFC03FF
003FFFF00000
0007FF000000
ENDCHAR
STARTCHAR 0062
ENCODING 98
SWIDTH 611 0
DWIDTH 62 0
BBX 51 75 7 -2
BITMAP
FFF00000000000
FFF00000000000
FFF00000000000
FFF00000000000
FFF00000000000
FFF00000000000
FFF00000000000
FFF00000000000
FFF00000000000
FFF00000000000
FFF00000000000
FFF00000000000
FFF00000000000
FFF00000000000
FFF00000000000
FFF00000000000
FFF00000000000
FFF007FE000000
FFF07FFFE00000
FFF1FFFFF80000
FFF7FFFFFE0000
FFFFFFFFFF0000
FFFFFFFFFFC000
FFFFFFFFFFE000
FFFFFFFFFFF000
FFFFFFFFFFF800
FFFFFFFFFFF800
FFFFFFFFFFFC00
FFFFF00FFFFE00
FFFFC001FFFE00
FFFF0000FFFF00
FFFE00007FFF00
FFFC00003FFF80
FFFC00001FFF80
FFF800000FFFC0
FFF800000FFFC0
FFF0000007FFC0
FFF0000007FFC0
FFF0000007FFE0
FFE0000003FFE0
FFE0000003FFE0
FFE0000003FFE0
FFE0000003FFE0
FFE0000003FFE0
FFE0000003FFE0
FFE0000003FFE0
FFE0000003FFE0
FFE0000003FFE0
FFE0000003FFE0
FFE0000003FFE0
FFE0000003FFE0
FFE0000003FFE0
FFE0000003FFE0
FFF0000007FFE0
FFF0000007FFC0
FFF0000007FFC0
FFF800000FFFC0
FFF800000FFFC0
FFFC00001FFF80
FFFC00001FFF80
FFFE00003FFF00
FFFF0000FFFF00
FFFFC001FFFE00
FFFFF00FFFFE00
FFFFFFFFFFFC00
FFFFFFFFFFFC00
FFFFFFFFFFF800
FFFFFFFFFFF000
FFFFFFFFFFE000
FFFFFFFFFFC000
FFEFFFFFFF8000
FFE3FFFFFE0000
FFE1FFFFF80000
00003FFFE00000
000007FE000000
ENDCHAR
STARTCHAR 0063
ENCODING 99
SWIDTH 572 0
DWIDTH 58 0
BBX 51 58 4 -2
BITMAP
000007FF800000
00007FFFF00000
0001FFFFFE0000
0007FFFFFF8000
001FFFFFFFE000
003FFFFFFFF000
007FFFFFFFF800
00FFFFFFFFFC00
01FFFFFFFFFE00
03FFFFFFFFFF00
07FFFFFFFFFF00
07FFFFFFFFFF80
0FFFF800FFFF80
0FFFE0003FFFC0
1FFFC0001FFFC0
1FFF80000FFFE0
3FFF000007FFE0
3FFF000003FFE0
3FFE000003FF00
7FFE000001F000
7FFC0000010000
7FFC0000000000
7FFC0000000000
FFF80000000000
FFF80000000000
FFF80000000000
FFF80000000000
FFF80000000000
FFF80000000000
FFF80000000000
FFF80000000000
FFF80000000000
FFF80000000000
FFF80000000000
FFF80000000000
7FFC0000000000
7FFC0000000000
7FFC0000000000
7FFE000001C000
3FFE000003FC00
3FFF000003FFE0
3FFF000007FFE0
1FFF80000FFFE0
1FFFC0001FFFC0
0FFFE0003FFFC0
0FFFF800FFFF80
07FFFFCFFFFF80
07FFFFFFFFFF00
03FFFFFFFFFE00
01FFFFFFFFFE00
00FFFFFFFFFC00
007FFFFFFFF800
003FFFFFFFF000
001FFFFFFFC000
0007FFFFFF8000
0001FFFFFE0000
00007FFFF80000
000007FF800000
ENDCHAR
STARTCHAR 0064
ENCODING 100
SWIDTH 621 0
DWIDTH 63 0
BBX 51 75 4 -2
BITMAP
0000000001FFE0
0000000001FFE0
0000000001FFE0
0000000001FFE0
0000000001FFE0
0000000001FFE0
0000000001FFE0
0000000001FFE0
0000000001FFE0
0000000001FFE0
0000000001FFE0
0000000001FFE0
0000000001FFE0
0000000001FFE0
0000000001FFE0
0000000001FFE0
0000000001FFE0
00000FFE01FFE0
00007FFFC1FFE0
0003FFFFF1FFE0
000FFFFFFDFFE0
001FFFFFFFFFE0
003FFFFFFFFFE0
007FFFFFFFFFE0
00FFFFFFFFFFE0
01FFFFFFFFFFE0
03FFFFFFFFFFE0
07FFFFFFFFFFE0
07FFFE01FFFFE0
0FFFF8003FFFE0
1FFFE0001FFFE0
1FFFC0000FFFE0
1FFF800007FFE0
3FFF000003FFE0
3FFF000003FFE0
7FFE000001FFE0
7FFE000001FFE0
7FFC000000FFE0
7FFC000000FFE0
7FFC000000FFE0
FFF8000000FFE0
FFF8000000FFE0
FFF8000000FFE0
FFF80000007FE0
FFF80000007FE0
FFF80000007FE0
FFF80000007FE0
FFF80000007FE0
FFF80000007FE0
FFF8000000FFE0
FFF8000000FFE0
FFF8000000FFE0
7FFC000000FFE0
7FFC000000FFE0
7FFC000000FFE0
7FFE000001FFE0
7FFE000001FFE0
3FFF000003FFE0
3FFF000003FFE0
1FFF800007FFE0
1FFFC0000FFFE0
1FFFE0001FFFE0
0FFFF0003FFFE0
07FFFE01FFFFE0
07FFFFFFFFFFE0
03FFFFFFFFFFE0
01FFFFFFFFFFE0
00FFFFFFFFFFE0
007FFFFFFFFFE0
003FFFFFFFFFE0
001FFFFFFE7FE0
000FFFFFFC7FE0
0003FFFFF07FE0
0000FFFFC00000
00000FFE000000
ENDCHAR
STARTCHAR 0065
ENCODING 101
SWIDTH 601 0
DWIDTH 61 0
BBX 53 58 4 -2
BITMAP
000003FF800000
00003FFFF80000
0001FFFFFE0000
0007FFFFFF8000
000FFFFFFFC000
003FFFFFFFF000
007FFFFFFFF800
00FFFFFFFFFC00
01FFFFFFFFFE00
03FFFFFFFFFE00
03FFFFFFFFFF00
07FFFC007FFF80
0FFFF0001FFF80
0FFFC0000FFFC0
1FFF800007FFC0
1FFF000003FFE0
3FFF000001FFE0
3FFE000001FFE0
3FFE000001FFF0
7FFC000000FFF0
7FFC000000FFF0
7FFC000000FFF0
7FF8000000FFF0
FFFFFFFFFFFFF8
FFFFFFFFFFFFF8
FFFFFFFFFFFFF8
FFFFFFFFFFFFF8
FFFFFFFFFFFFF8
FFFFFFFFFFFFF8
FFFFFFFFFFFFF8
FFFFFFFFFFFFF8
FFFFFFFFFFFFF8
FFF80000000000
FFF80000000000
FFF80000000000
7FFC0000000000
7FFC0000000000
7FFC0000000000
7FFE0000000000
3FFE000000E000
3FFF000001FC00
3FFF000003FFC0
1FFF800007FFF0
1FFFC0000FFFF0
0FFFE0001FFFE0
0FFFF8007FFFE0
07FFFFEFFFFFC0
03FFFFFFFFFF80
03FFFFFFFFFF00
01FFFFFFFFFF00
00FFFFFFFFFE00
007FFFFFFFFC00
001FFFFFFFF000
000FFFFFFFE000
0003FFFFFFC000
0000FFFFFF0000
00003FFFF80000
000003FFC00000
ENDCHAR
STARTCHAR 0066
ENCODING 102
SWIDTH 374 0
DWIDTH 38 0
BBX 34 75 3 0
BITMAP
00000FFFC0
00007FFFC0
0001FFFFC0
0003FFFFC0
0007FFFFC0
000FFFFFC0
001FFFFFC0
001FFFFFC0
003FFFFFC0
003FFFFFC0
003FFF8000
007FFE0000
007FFC0000
007FFC0000
007FF80000
007FF80000
007FF80000
007FF80000
007FF80000
007FF80000
FFFFFFFFC0
FFFFFFFFC0
FFFFFFFFC0
FFFFFFFFC0
FFFFFFFFC0
FFFFFFFFC0
FFFFFFFFC0
FFFFFFFFC0
FFFFFFFFC0
FFFFFFFFC0
007FF80000
007FF80000
007FF80000
007FF80000
007FF80000
007FF80000
007FF80000
007FF80000
007FF80000
007FF80000
007FF80000
007FF80000
007FF80000
007FF80000
007FF80000
007FF80000
007FF80000
007FF80000
007FF80000
007FF80000
007FF80000
007FF80000
007FF80000
007FF80000
007FF80000
007FF80000
007FF80000
007FF80000
007FF80000
007FF80000
007FF80000
007FF80000
007FF80000
007FF80000
007FF80000
007FF80000
007FF80000
007FF80000
007FF80000
007FF80000
007FF80000
007FF80000
007FF80000
007FF80000
007FF80000
ENDCHAR
STARTCHAR 0067
ENCODING 103
SWIDTH 611 0
DWIDTH 62 0
BBX 51 83 4 -27
BITMAP
00000FFE000000
00007FFFC07FE0
0003FFFFF87FE0
000FFFFFFC7FE0
001FFFFFFF7FE0
003FFFFFFFFFE0
007FFFFFFFFFE0
00FFFFFFFFFFE0
01FFFFFFFFFFE0
03FFFFFFFFFFE0
07FFFFFFFFFFE0
07FFFE01FFFFE0
0FFFF8003FFFE0
1FFFE0001FFFE0
1FFFC0000FFFE0
1FFF800007FFE0
3FFF000003FFE0
3FFF000003FFE0
7FFE000001FFE0
7FFE000001FFE0
7FFC000000FFE0
7FFC000000FFE0
7FFC000000FFE0
FFF8000000FFE0
FFF8000000FFE0
FFF8000000FFE0
FFF80000007FE0
FFF80000007FE0
FFF80000007FE0
FFF80000007FE0
FFF80000007FE0
FFF80000007FE0
FFF8000000FFE0
FFF8000000FFE0
FFF8000000FFE0
7FFC000000FFE0
7FFC000000FFE0
7FFC000000FFE0
7FFE000001FFE0
7FFE000001FFE0
3FFF000003FFE0
3FFF000003FFE0
1FFF800007FFE0
1FFFC0000FFFE0
1FFFE0001FFFE0
0FFFF0003FFFE0
07FFFE01FFFFE0
07FFFFFFFFFFE0
03FFFFFFFFFFE0
01FFFFFFFFFFE0
00FFFFFFFFFFE0
007FFFFFFFFFE0
003FFFFFFFFFE0
001FFFFFFFFFE0
000FFFFFFDFFE0
0003FFFFF1FFE0
0000FFFFC1FFE0
00000FFE01FFE0
0000000001FFE0
0000000001FFE0
0000000001FFE0
0000000001FFE0
0000000001FFE0
0000000003FFE0
0000000003FFE0
0001000003FFE0
0007800007FFE0
001F80000FFFC0
007FC0001FFFC0
01FFF0007FFFC0
07FFFE03FFFF80
07FFFFFFFFFF80
07FFFFFFFFFF00
03FFFFFFFFFF00
01FFFFFFFFFE00
00FFFFFFFFFC00
007FFFFFFFF800
003FFFFFFFF000
000FFFFFFFE000
0007FFFFFF8000
0001FFFFFE0000
00003FFFF00000
000001F4000000
ENDCHAR
STARTCHAR 0068
ENCODING 104
SWIDTH 621 0
DWIDTH 63 0
BBX 50 73 7 0
BITMAP
FFE00000000000
FFE00000000000
FFE00000000000
FFE00000000000
FFE00000000000
FFE00000000000
FFE00000000000
FFE00000000000
FFE00000000000
FFE00000000000
FFE00000000000
FFE00000000000
FFE00000000000
FFE00000000000
FFE00000000000
FFE00000000000
FFE00008000000
FFE007FFF00000
FFE03FFFFE0000
FFE0FFFFFF0000
FFE1FFFFFFC000
FFE3FFFFFFE000
FFEFFFFFFFF000
FFFFFFFFFFF800
FFFFFFFFFFFC00
FFFFFFFFFFFC00
FFFFFFFFFFFE00
FFFFFFFFFFFE00
FFFFF807FFFF00
FFFFE001FFFF00
FFFF80007FFF80
FFFF00003FFF80
FFFE00001FFF80
FFFE00001FFF80
FFFC00000FFFC0
FFFC00000FFFC0
FFF8000007FFC0
FFF8000007FFC0
FFF8000007FFC0
FFF8000007FFC0
FFF8000003FFC0
FFF0000003FFC0
FFF0000003FFC0
FFF0000003FFC0
FFF0000003FFC0
FFF0000003FFC0
FFF0000003FFC0
FFF0000003FFC0
FFF0000003FFC0
FFF0000003FFC0
FFF0000003FFC0
FFF0000003FFC0
FFF0000003FFC0
FFF0000003FFC0
FFF0000003FFC0
FFF0000003FFC0
FFF0000003FFC0
FFF0000003FFC0
FFF0000003FFC0
FFF0000003FFC0
FFF0000003FFC0
FFF0000003FFC0
FFF0000003FFC0
FFF0000003FFC0
FFF0000003FFC0
FFF0000003FFC0
FFF0000003FFC0
FFF0000003FFC0
FFF0000003FFC0
FFF0000003FFC0
FFF0000003FFC0
FFF0000003FFC0
FFF0000003FFC0
ENDCHAR
STARTCHAR 0069
ENCODING 105
SWIDTH 276 0
DWIDTH 28 0
BBX 12 74 8 0
BITMAP
FFF0
FFF0
FFF0
FFF0
FFF0
FFF0
FFF0
FFF0
FFF0
FFF0
FFF0
0000
0000
0000
0000
0000
0000
0000
0000
FFF0
FFF0
FFF0
FFF0
FFF0
FFF0
FFF0
FFF0
FFF0
FFF0
FFF0
FFF0
FFF0
FFF0
FFF0
FFF0
FFF0
FFF0
FFF0
FFF0
FFF0
FFF0
FFF0
FFF0
FFF0
FFF0
FFF0
FFF0
FFF0
FFF0
FFF0
FFF0
FFF0
FFF0
FFF0
FFF0
FFF0
FFF0
FFF0
FFF0
FFF0
FFF0
FFF0
FFF0
FFF0
FFF0
FFF0
FFF0
FFF0
FFF0
FFF0
FFF0
FFF0
FFF0
FFF0
ENDCHAR
STARTCHAR 006A
ENCODING 106
SWIDTH 286 0
DWIDTH 29 0
BBX 23 98 -1 -24
BITMAP
001FFE
001FFE
001FFE
001FFE
001FFE
001FFE
001FFE
001FFE
001FFE
001FFE
001FFE
000000
000000
000000
000000
000000
000000
000000
000000
001FFE
001FFE
001FFE
001FFE
001FFE
001FFE
001FFE
001FFE
001FFE
001FFE
001FFE
001FFE
001FFE
001FFE
001FFE
001FFE
001FFE
001FFE
001FFE
001FFE
001FFE
001FFE
001FFE
001FFE
001FFE
001FFE
001FFE
001FFE
001FFE
001FFE
001FFE
001FFE
001FFE
001FFE
001FFE
001FFE
001FFE
001FFE
001FFE
001FFE
001FFE
001FFE
001FFE
001FFE
001FFE
001FFE
001FFE
001FFE
001FFE
001FFE
001FFE
001FFE
001FFE
001FFE
001FFE
001FFE
001FFE
001FFE
001FFE
001FFE
001FFE
001FFE
001FFE
003FFE
003FFE
007FFE
00FFFE
03FFFE
FFFFFE
FFFFFC
FFFFFC
FFFFFC
FFFFF8
FFFFF8
FFFFF0
FFFFE0
FFFFC0
FFFF80
FFFC00
ENDCHAR
STARTCHAR 006B
ENCODING 107
SWIDTH 542 0
DWIDTH 55 0
BBX 49 73 7 0
BITMAP
FFF00000000000
FFF00000000000
FFF00000000000
FFF00000000000
FFF00000000000
FFF00000000000
FFF00000000000
FFF00000000000
FFF00000000000
FFF00000000000
FFF00000000000
FFF00000000000
FFF00000000000
FFF00000000000
FFF00000000000
FFF00000000000
FFF00000000000
FFF00000000000
FFF00000FFFE00
FFF00001FFFE00
FFF00001FFFC00
FFF00003FFF800
FFF00007FFF000
FFF0000FFFF000
FFF0000FFFE000
FFF0001FFFC000
FFF0003FFF8000
FFF0007FFF0000
FFF0007FFF0000
FFF000FFFE0000
FFF001FFFC0000
FFF003FFF80000
FFF003FFF80000
FFF007FFF00000
FFF00FFFE00000
FFF01FFFC00000
FFF01FFF800000
FFF03FFF800000
FFF07FFF000000
FFF0FFFE000000
FFF1FFFC000000
FFF1FFFC000000
FFF3FFF8000000
FFF7FFF0000000
FFFFFFE0000000
FFFFFFE0000000
FFFFFFE0000000
FFF7FFF0000000
FFF3FFF8000000
FFF1FFFC000000
FFF0FFFE000000
FFF0FFFF000000
FFF07FFF000000
FFF03FFF800000
FFF01FFFC00000
FFF00FFFE00000
FFF00FFFF00000
FFF007FFF80000
FFF003FFF80000
FFF001FFFC0000
FFF001FFFE0000
FFF000FFFF0000
FFF0007FFF8000
FFF0003FFFC000
FFF0001FFFC000
FFF0001FFFE000
FFF0000FFFF000
FFF00007FFF800
FFF00003FFFC00
FFF00001FFFE00
FFF00001FFFE00
FFF00000FFFF00
FFF000007FFF80
ENDCHAR
STARTCHAR 006C
ENCODING 108
SWIDTH 276 0
DWIDTH 28 0
BBX 12 73 8 0
BITMAP
FFF0
FFF0
FFF0
FFF0
FFF0
FFF0
FFF0
FFF0
FFF0
FFF0
FFF0
FFF0
FFF0
FFF0
FFF0
FFF0
FFF0
FFF0
FFF0
FFF0
FFF0
FFF0
FFF0
FFF0
FFF0
FFF0
FFF0
FFF0
FFF0
FFF0
FFF0
FFF0
FFF0
FFF0
FFF0
FFF0
FFF0
FFF0
FFF0
FFF0
FFF0
FFF0
FFF0
FFF0
FFF0
FFF0
FFF0
FFF0
FFF0
FFF0
FFF0
FFF0
FFF0
FFF0
FFF0
FFF0
FFF0
FFF0
FFF0
FFF0
FFF0
FFF0
FFF0
FFF0
FFF0
FFF0
FFF0
FFF0
FFF0
FFF0
FFF0
FFF0
FFF0
ENDCHAR
STARTCHAR 006D
ENCODING 109
SWIDTH 897 0
DWIDTH 91 0
BBX 78 56 7 0
BITMAP
000003FE000001FF0000
FFE01FFFE0001FFFE000
FFE0FFFFF8007FFFF800
FFE1FFFFFC00FFFFFE00
FFE3FFFFFE03FFFFFF00
FFEFFFFFFF07FFFFFF80
FFFFFFFFFF8FFFFFFFC0
FFFFFFFFFFDFFFFFFFE0
FFFFFFFFFFFFFFFFFFE0
FFFFFFFFFFFFFFFFFFF0
FFFFFFFFFFFFFFFFFFF0
FFFFE03FFFFFF01FFFF8
FFFF800FFFFFC007FFF8
FFFF0003FFFF8003FFF8
FFFE0003FFFF0001FFFC
FFFC0001FFFE0000FFFC
FFFC0000FFFC00007FFC
FFF80000FFFC00007FFC
FFF80000FFFC00007FFC
FFF800007FF800007FFC
FFF000007FF800003FFC
FFF000007FF800003FFC
FFF000007FF800003FFC
FFF000007FF800003FFC
FFF000007FF800003FFC
FFF000007FF800003FFC
FFF000007FF800003FFC
FFF000007FF800003FFC
FFF000007FF800003FFC
FFF000007FF800003FFC
FFF000007FF800003FFC
FFF000007FF800003FFC
FFF000007FF800003FFC
FFF000007FF800003FFC
FFF000007FF800003FFC
FFF000007FF800003FFC
FFF000007FF800003FFC
FFF000007FF800003FFC
FFF000007FF800003FFC
FFF000007FF800003FFC
FFF000007FF800003FFC
FFF000007FF800003FFC
FFF000007FF800003FFC
FFF000007FF800003FFC
FFF000007FF800003FFC
FFF000007FF800003FFC
FFF000007FF800003FFC
FFF000007FF800003FFC
FFF000007FF800003FFC
FFF000007FF800003FFC
FFF000007FF800003FFC
FFF000007FF800003FFC
FFF000007FF800003FFC
FFF000007FF800003FFC
FFF000007FF800003FFC
FFF000007FF800003FFC
ENDCHAR
STARTCHAR 006E
ENCODING 110
SWIDTH 621 0
DWIDTH 63 0
BBX 50 57 7 0
BITMAP
00000008000000
000007FFF00000
FFE03FFFFE0000
FFE0FFFFFF0000
FFE1FFFFFFC000
FFE3FFFFFFE000
FFEFFFFFFFF000
FFFFFFFFFFF800
FFFFFFFFFFFC00
FFFFFFFFFFFC00
FFFFFFFFFFFE00
FFFFFFFFFFFE00
FFFFF807FFFF00
FFFFE001FFFF00
FFFF80007FFF80
FFFF00003FFF80
FFFE00001FFF80
FFFE00001FFF80
FFFC00000FFFC0
FFFC00000FFFC0
FFF8000007FFC0
FFF8000007FFC0
FFF8000007FFC0
FFF8000007FFC0
FFF8000003FFC0
FFF0000003FFC0
FFF0000003FFC0
FFF0000003FFC0
FFF0000003FFC0
FFF0000003FFC0
FFF0000003FFC0
FFF0000003FFC0
FFF0000003FFC0
FFF0000003FFC0
FFF0000003FFC0
FFF0000003FFC0
FFF0000003FFC0
FFF0000003FFC0
FFF0000003FFC0
FFF0000003FFC0
FFF0000003FFC0
FFF0000003FFC0
FFF0000003FFC0
FFF0000003FFC0
FFF0000003FFC0
FFF0000003FFC0
FFF0000003FFC0
FFF0000003FFC0
FFF0000003FFC0
FFF0000003FFC0
FFF0000003FFC0
FFF0000003FFC0
FFF0000003FFC0
FFF0000003FFC0
FFF0000003FFC0
FFF0000003FFC0
FFF0000003FFC0
ENDCHAR
STARTCHAR 006F
ENCODING 111
SWIDTH 621 0
DWIDTH 63 0
BBX 55 58 4 -2
BITMAP
000003FF800000
00003FFFF80000
0001FFFFFE0000
0007FFFFFF8000
000FFFFFFFE000
003FFFFFFFF000
007FFFFFFFF800
00FFFFFFFFFC00
01FFFFFFFFFE00
03FFFFFFFFFF00
07FFFFFFFFFF80
07FFFFEFFFFFC0
0FFFFC007FFFC0
0FFFF0001FFFE0
1FFFC0000FFFE0
1FFF800007FFF0
3FFF000003FFF0
3FFF000001FFF8
3FFE000001FFF8
7FFE000000FFF8
7FFC000000FFFC
7FFC0000007FFC
7FFC0000007FFC
FFF80000007FFC
FFF80000007FFC
FFF80000007FFC
FFF80000003FFE
FFF80000003FFE
FFF80000003FFE
FFF80000003FFE
FFF80000003FFE
FFF80000003FFC
FFF80000007FFC
FFF80000007FFC
FFF80000007FFC
7FFC0000007FFC
7FFC0000007FFC
7FFC000000FFFC
7FFE000000FFF8
3FFE000001FFF8
3FFF000001FFF8
3FFF000003FFF0
1FFF800007FFF0
1FFFC0000FFFE0
0FFFF0001FFFE0
0FFFF8007FFFC0
07FFFFEFFFFFC0
03FFFFFFFFFF80
03FFFFFFFFFF00
01FFFFFFFFFE00
00FFFFFFFFFE00
007FFFFFFFF800
003FFFFFFFF000
000FFFFFFFE000
0007FFFFFF8000
0001FFFFFE0000
00003FFFF80000
000007FF800000
ENDCHAR
STARTCHAR 0070
ENCODING 112
SWIDTH 611 0
DWIDTH 62 0
BBX 51 81 7 -25
BITMAP
000007FE000000
FFE07FFFE00000
FFE1FFFFF80000
FFE7FFFFFE0000
FFEFFFFFFF0000
FFFFFFFFFFC000
FFFFFFFFFFE000
FFFFFFFFFFF000
FFFFFFFFFFF800
FFFFFFFFFFF800
FFFFFFFFFFFC00
FFFFF00FFFFE00
FFFFC001FFFE00
FFFF0000FFFF00
FFFE00007FFF00
FFFC00003FFF80
FFFC00001FFF80
FFF800000FFFC0
FFF800000FFFC0
FFF0000007FFC0
FFF0000007FFC0
FFF0000007FFE0
FFE0000003FFE0
FFE0000003FFE0
FFE0000003FFE0
FFE0000003FFE0
FFE0000003FFE0
FFE0000003FFE0
FFE0000003FFE0
FFE0000003FFE0
FFE0000003FFE0
FFE0000003FFE0
FFE0000003FFE0
FFE0000003FFE0
FFE0000003FFE0
FFE0000003FFE0
FFF0000007FFE0
FFF0000007FFC0
FFF0000007FFC0
FFF800000FFFC0
FFF800000FFFC0
FFFC00001FFF80
FFFC00001FFF80
FFFE00003FFF00
FFFF0000FFFF00
FFFFC001FFFE00
FFFFF00FFFFE00
FFFFFFFFFFFC00
FFFFFFFFFFFC00
FFFFFFFFFFF800
FFFFFFFFFFF000
FFFFFFFFFFE000
FFFFFFFFFFC000
FFFFFFFFFF8000
FFF7FFFFFE0000
FFF1FFFFF80000
FFF03FFFE00000
FFF007FE000000
FFF00000000000
FFF00000000000
FFF00000000000
FFF00000000000
FFF00000000000
FFF00000000000
FFF00000000000
FFF00000000000
FFF00000000000
FFF00000000000
FFF00000000000
FFF00000000000
FFF00000000000
FFF00000000000
FFF00000000000
FFF00000000000
FFF00000000000
FFF00000000000
FFF00000000000
FFF00000000000
FFF00000000000
FFF00000000000
FFF00000000000
ENDCHAR
STARTCHAR 0071
ENCODING 113
SWIDTH 621 0
DWIDTH 63 0
BBX 51 81 4 -25
BITMAP
00000FFE000000
00007FFFC07FE0
0003FFFFF87FE0
000FFFFFFC7FE0
001FFFFFFF7FE0
003FFFFFFFFFE0
007FFFFFFFFFE0
00FFFFFFFFFFE0
01FFFFFFFFFFE0
03FFFFFFFFFFE0
07FFFFFFFFFFE0
07FFFE01FFFFE0
0FFFF8003FFFE0
1FFFE0001FFFE0
1FFFC0000FFFE0
1FFF800007FFE0
3FFF000003FFE0
3FFF000003FFE0
7FFE000001FFE0
7FFE000001FFE0
7FFC000000FFE0
7FFC000000FFE0
7FFC000000FFE0
FFF8000000FFE0
FFF8000000FFE0
FFF8000000FFE0
FFF80000007FE0
FFF80000007FE0
FFF80000007FE0
FFF80000007FE0
FFF80000007FE0
FFF80000007FE0
FFF8000000FFE0
FFF8000000FFE0
FFF8000000FFE0
7FFC000000FFE0
7FFC000000FFE0
7FFC000000FFE0
7FFE000001FFE0
7FFE000001FFE0
3FFF000003FFE0
3FFF000003FFE0
1FFF800007FFE0
1FFFC0000FFFE0
1FFFE0001FFFE0
0FFFF0003FFFE0
07FFFE01FFFFE0
07FFFFFFFFFFE0
03FFFFFFFFFFE0
01FFFFFFFFFFE0
00FFFFFFFFFFE0
007FFFFFFFFFE0
003FFFFFFFFFE0
001FFFFFFFFFE0
000FFFFFFDFFE0
0003FFFFF1FFE0
0000FFFFC1FFE0
00000FFE01FFE0
0000000001FFE0
0000000001FFE0
0000000001FFE0
0000000001FFE0
0000000001FFE0
0000000001FFE0
0000000001FFE0
0000000001FFE0
0000000001FFE0
0000000001FFE0
0000000001FFE0
0000000001FFE0
0000000001FFE0
0000000001FFE0
0000000001FFE0
0000000001FFE0
0000000001FFE0
0000000001FFE0
0000000001FFE0
0000000001FFE0
0000000001FFE0
0000000001FFE0
0000000001FFE0
ENDCHAR
STARTCHAR 0072
ENCODING 114
SWIDTH 394 0
DWIDTH 40 0
BBX 31 55 7 1
BITMAP
FFE001FE
FFE01FFE
FFE07FFE
FFE0FFFE
FFE3FFFE
FFE7FFFE
FFE7FFFE
FFEFFFFE
FFFFFFFE
FFFFFFFE
FFFFFFFE
FFFFFF02
FFFFF800
FFFFE000
FFFF8000
FFFF0000
FFFE0000
FFFE0000
FFFC0000
FFFC0000
FFF80000
FFF80000
FFF80000
FFF80000
FFF00000
FFF00000
FFF00000
FFF00000
FFF00000
FFF00000
FFF00000
FFF00000
FFF00000
FFF00000
FFF00000
FFF00000
FFF00000
FFF00000
FFF00000
FFF00000
FFF00000
FFF00000
FFF00000
FFF00000
FFF00000
FFF00000
FFF00000
FFF00000
FFF00000
FFF00000
FFF00000
FFF00000
FFF00000
FFF00000
FFF00000
ENDCHAR
STARTCHAR 0073
ENCODING 115
SWIDTH 542 0
DWIDTH 55 0
BBX 47 58 4 -2
BITMAP
00003FF80000
0007FFFF8000
001FFFFFF000
007FFFFFFC00
00FFFFFFFE00
01FFFFFFFF80
03FFFFFFFFC0
07FFFFFFFFE0
0FFFFFFFFFE0
0FFFFFFFFFF0
1FFFFFFFFFF8
1FFFC00FFFF8
3FFF0003FFFC
3FFE0001FFFC
3FFC0000FFFC
3FFC00007FFC
3FFC00007FF8
3FFC00003E00
3FFE00000000
3FFF00000000
3FFF80000000
3FFFF0000000
1FFFFE000000
1FFFFFE00000
0FFFFFFE0000
07FFFFFFC000
03FFFFFFF800
01FFFFFFFE00
007FFFFFFF80
001FFFFFFFC0
0007FFFFFFE0
0000FFFFFFF0
00001FFFFFF8
000001FFFFF8
0000003FFFFC
00000007FFFC
00000000FFFC
000000007FFE
000000003FFE
01F800003FFE
FFF800003FFE
FFFC00003FFE
FFFC00003FFE
7FFE00003FFE
7FFF00007FFC
7FFF8000FFFC
3FFFE003FFFC
3FFFFFFFFFF8
1FFFFFFFFFF8
0FFFFFFFFFF0
0FFFFFFFFFF0
07FFFFFFFFE0
01FFFFFFFFC0
00FFFFFFFF80
007FFFFFFE00
001FFFFFF800
0003FFFFE000
00003FFC0000
ENDCHAR
STARTCHAR 0074
ENCODING 116
SWIDTH 433 0
DWIDTH 44 0
BBX 38 71 1 -2
BITMAP
003FFC0000
003FFC0000
003FFC0000
003FFC0000
003FFC0000
003FFC0000
003FFC0000
003FFC0000
003FFC0000
003FFC0000
003FFC0000
003FFC0000
003FFC0000
003FFC0000
003FFC0000
FFFFFFFFFC
FFFFFFFFFC
FFFFFFFFFC
FFFFFFFFFC
FFFFFFFFFC
FFFFFFFFFC
FFFFFFFFFC
FFFFFFFFFC
FFFFFFFFFC
FFFFFFFFFC
003FFC0000
003FFC0000
003FFC0000
003FFC0000
003FFC0000
003FFC0000
003FFC0000
003FFC0000
003FFC0000
003FFC0000
003FFC0000
003FFC0000
003FFC0000
003FFC0000
003FFC0000
003FFC0000
003FFC0000
003FFC0000
003FFC0000
003FFC0000
003FFC0000
003FFC0000
003FFC0000
003FFC0000
003FFC0000
003FFC0000
003FFC0000
003FFC0000
003FFC0000
003FFC0000
003FFE0000
003FFE0000
003FFF0000
003FFF8000
001FFFC000
001FFFFFFC
001FFFFFFC
000FFFFFFC
000FFFFFFC
0007FFFFFC
0007FFFFFC
0003FFFFFC
0000FFFFFC
00007FFFFC
00001FFFFC
000001FFF0
ENDCHAR
STARTCHAR 0075
ENCODING 117
SWIDTH 621 0
DWIDTH 63 0
BBX 50 57 6 -2
BITMAP
FFF0000003FFC0
FFF0000003FFC0
FFF0000003FFC0
FFF0000003FFC0
FFF0000003FFC0
FFF0000003FFC0
FFF0000003FFC0
FFF0000003FFC0
FFF0000003FFC0
FFF0000003FFC0
FFF0000003FFC0
FFF0000003FFC0
FFF0000003FFC0
FFF0000003FFC0
FFF0000003FFC0
FFF0000003FFC0
FFF0000003FFC0
FFF0000003FFC0
FFF0000003FFC0
FFF0000003FFC0
FFF0000003FFC0
FFF0000003FFC0
FFF0000003FFC0
FFF0000003FFC0
FFF0000003FFC0
FFF0000003FFC0
FFF0000003FFC0
FFF8000003FFC0
FFF0000003FFC0
FFF8000003FFC0
FFF8000003FFC0
FFF8000003FFC0
FFF8000003FFC0
FFF8000003FFC0
FFF8000007FFC0
FFF8000007FFC0
FFFC000007FFC0
7FFC000007FFC0
7FFE00000FFFC0
7FFE00000FFFC0
7FFF00001FFFC0
7FFF00003FFFC0
3FFFC0007FFFC0
3FFFE001FFFFC0
1FFFF807FFFFC0
1FFFFFFFFFFFC0
1FFFFFFFFFFFC0
0FFFFFFFFFFFC0
07FFFFFFFFFFC0
07FFFFFFFEFFC0
03FFFFFFFCFFC0
01FFFFFFF8FFC0
00FFFFFFF0FFC0
003FFFFFC0FFC0
000FFFFF00FFC0
0003FFF8000000
00000C00000000
ENDCHAR
STARTCHAR 0076
ENCODING 118
SWIDTH 552 0
DWIDTH 56 0
BBX 52 55 2 0
BITMAP
FFF0000000FFF0
7FF8000001FFE0
7FF8000001FFE0
7FF8000001FFE0
3FFC000003FFC0
3FFC000003FFC0
3FFC000003FFC0
1FFE000007FF80
1FFE000007FF80
1FFF00000FFF80
0FFF00000FFF00
0FFF00000FFF00
07FF80001FFF00
07FF80001FFE00
07FF80001FFE00
03FFC0003FFC00
03FFC0003FFC00
03FFC0003FFC00
01FFE0007FF800
01FFE0007FF800
01FFE0007FF800
00FFF000FFF000
00FFF000FFF000
00FFF000FFF000
007FF801FFE000
007FF801FFE000
003FF801FFC000
003FFC03FFC000
003FFC03FFC000
001FFC03FF8000
001FFE07FF8000
001FFE07FF8000
000FFE07FF0000
000FFF0FFF0000
000FFF0FFF0000
0007FF8FFE0000
0007FF9FFE0000
0003FF9FFC0000
0003FFDFFC0000
0003FFFFFC0000
0001FFFFF80000
0001FFFFF80000
0001FFFFF80000
0000FFFFF00000
0000FFFFF00000
0000FFFFF00000
00007FFFE00000
00007FFFE00000
00003FFFE00000
00003FFFC00000
00003FFFC00000
00001FFF800000
00001FFF800000
00001FFF800000
00000FFF000000
ENDCHAR
STARTCHAR 0077
ENCODING 119
SWIDTH 798 0
DWIDTH 81 0
BBX 77 55 2 0
BITMAP
FFF000007FF000007FF8
FFF000007FF000007FF8
7FF800007FF800007FF8
7FF80000FFF80000FFF0
7FF80000FFF80000FFF0
3FFC0000FFFC0000FFF0
3FFC0000FFFC0001FFE0
3FFC0001FFFC0001FFE0
1FFE0001FFFC0001FFE0
1FFE0001FFFE0003FFC0
1FFE0003FFFE0003FFC0
0FFE0003FFFE0003FFC0
0FFF0003FFFF0003FFC0
0FFF0007FFFF0007FF80
0FFF0007FFFF0007FF80
07FF8007FFFF8007FF80
07FF800FFFFF800FFF00
07FF800FFFFF800FFF00
03FFC00FFDFF800FFF00
03FFC00FFDFFC01FFE00
03FFC01FFCFFC01FFE00
01FFE01FF8FFC01FFE00
01FFE01FF8FFE01FFC00
01FFE03FF87FE03FFC00
01FFE03FF07FE03FFC00
00FFF03FF07FF03FFC00
00FFF07FF03FF07FF800
00FFF07FE03FF07FF800
007FF87FE03FF87FF800
007FF8FFE01FF8FFF000
007FF8FFC01FF8FFF000
003FFCFFC01FF8FFF000
003FFCFFC00FFDFFE000
003FFDFF800FFDFFE000
001FFDFF800FFDFFE000
001FFFFF8007FFFFE000
001FFFFF0007FFFFC000
001FFFFF0007FFFFC000
000FFFFF0003FFFFC000
000FFFFE0003FFFF8000
000FFFFE0003FFFF8000
0007FFFE0001FFFF8000
0007FFFC0001FFFF0000
0007FFFC0001FFFF0000
0003FFFC0000FFFF0000
0003FFF80000FFFE0000
0003FFF80000FFFE0000
0003FFF800007FFE0000
0001FFF000007FFE0000
0001FFF000007FFC0000
0001FFF000003FFC0000
0000FFE000003FFC0000
0000FFE000003FF80000
0000FFE000001FF80000
00007FC000001FF80000
ENDCHAR
STARTCHAR 0078
ENCODING 120
SWIDTH 552 0
DWIDTH 56 0
BBX 54 55 1 0
BITMAP
7FFE000001FFF8
7FFF000003FFF8
3FFF800007FFF0
1FFF800007FFE0
0FFFC0000FFFC0
0FFFE0001FFFC0
07FFE0001FFF80
03FFF0003FFF00
01FFF8007FFF00
01FFF8007FFE00
00FFFC00FFFC00
007FFE01FFF800
007FFF01FFF800
003FFF03FFF000
001FFF87FFE000
000FFFC7FFC000
000FFFCFFFC000
0007FFFFFF8000
0003FFFFFF0000
0003FFFFFF0000
0001FFFFFE0000
0000FFFFFC0000
00007FFFF80000
00007FFFF80000
00003FFFF00000
00001FFFE00000
00000FFFE00000
00000FFFC00000
00001FFFE00000
00003FFFF00000
00003FFFF00000
00007FFFF80000
0000FFFFFC0000
0001FFFFFE0000
0001FFFFFE0000
0003FFFFFF0000
0007FFFFFF8000
0007FFEFFF8000
000FFFCFFFC000
001FFF87FFE000
003FFF83FFF000
003FFF03FFF000
007FFE01FFF800
00FFFC00FFFC00
00FFFC00FFFE00
01FFF8007FFE00
03FFF0003FFF00
07FFF0001FFF80
07FFE0001FFF80
0FFFC0000FFFC0
1FFFC00007FFE0
1FFF800007FFF0
3FFF000003FFF0
7FFE000001FFF8
FFFE000001FFFC
ENDCHAR
STARTCHAR 0079
ENCODING 121
SWIDTH 562 0
DWIDTH 57 0
BBX 55 79 1 -24
BITMAP
FFF80000001FFE
7FF80000003FFE
7FFC0000003FFC
3FFC0000003FFC
3FFE0000007FFC
3FFE0000007FF8
1FFE0000007FF8
1FFF000000FFF0
0FFF000000FFF0
0FFF800001FFF0
0FFF800001FFE0
07FF800001FFE0
07FFC00003FFC0
03FFC00003FFC0
03FFE00003FFC0
03FFE00007FF80
01FFE00007FF80
01FFF0000FFF00
00FFF0000FFF00
00FFF8000FFF00
00FFF8001FFE00
007FF8001FFE00
007FFC001FFE00
003FFC003FFC00
003FFC003FFC00
001FFE007FF800
001FFE007FF800
001FFF007FF800
000FFF00FFF000
000FFF00FFF000
0007FF81FFE000
0007FF81FFE000
0007FFC1FFE000
0003FFC3FFC000
0003FFC3FFC000
0001FFE3FFC000
0001FFE7FF8000
0001FFF7FF8000
0000FFFFFF0000
0000FFFFFF0000
00007FFFFF0000
00007FFFFE0000
00007FFFFE0000
00003FFFFC0000
00003FFFFC0000
00001FFFFC0000
00001FFFF80000
00000FFFF80000
00000FFFF80000
00000FFFF00000
000007FFF00000
000007FFE00000
000003FFE00000
000003FFE00000
000003FFC00000
000003FFC00000
000003FF800000
000007FF800000
000007FF800000
00000FFF000000
00000FFF000000
00000FFF000000
00001FFE000000
00001FFE000000
00001FFC000000
00003FFC000000
00003FFC000000
00003FF8000000
00007FF8000000
00007FF0000000
0000FFF0000000
0000FFF0000000
0000FFE0000000
0001FFE0000000
0001FFE0000000
0001FFC0000000
0003FFC0000000
0003FF80000000
0007FF80000000
ENDCHAR
STARTCHAR 007A
ENCODING 122
SWIDTH 532 0
DWIDTH 54 0
BBX 48 55 2 0
BITMAP
1FFFFFFFFFFF
1FFFFFFFFFFF
1FFFFFFFFFFE
1FFFFFFFFFFE
1FFFFFFFFFFC
1FFFFFFFFFF8
1FFFFFFFFFF8
1FFFFFFFFFF0
1FFFFFFFFFE0
1FFFFFFFFFE0
1FFFFFFFFFC0
0000000FFF80
0000000FFF80
0000001FFF00
0000003FFE00
0000003FFE00
0000007FFC00
000000FFF800
000000FFF800
000001FFF000
000003FFE000
000003FFE000
000007FFC000
00000FFF8000
00000FFF8000
00001FFF0000
00003FFE0000
00003FFE0000
00007FFC0000
0000FFF80000
0000FFF00000
0001FFF00000
0003FFE00000
0003FFC00000
0007FFC00000
000FFF800000
001FFF000000
001FFF000000
003FFE000000
007FFC000000
007FFC000000
00FFF8000000
01FFF0000000
01FFF0000000
03FFFFFFFFFE
07FFFFFFFFFE
07FFFFFFFFFE
0FFFFFFFFFFE
1FFFFFFFFFFE
1FFFFFFFFFFE
3FFFFFFFFFFE
7FFFFFFFFFFE
7FFFFFFFFFFE
FFFFFFFFFFFE
FFFFFFFFFFFE
ENDCHAR
STARTCHAR 007B
ENCODING 123
SWIDTH 453 0
DWIDTH 46 0
BBX 27 112 14 -21
BITMAP
0000FFE0
0007FFE0
000FFFE0
003FFFE0
007FFFE0
007FFFE0
00FFFFE0
00FFFFE0
01FFFFE0
01FFFFE0
01FFFFE0
03FFFFE0
03FFE000
03FFC000
03FFC000
03FFC000
03FFC000
03FFC000
03FFC000
03FFC000
03FFC000
03FFC000
03FFC000
03FFC000
03FFC000
03FFC000
03FFC000
03FFC000
03FFC000
03FFC000
03FFC000
03FFC000
03FFC000
03FFC000
03FFC000
03FFC000
03FFC000
03FFC000
03FFC000
03FFC000
03FFC000
03FFC000
03FFC000
03FFC000
03FFC000
03FFC000
03FFC000
07FFC000
0FFF8000
0FFF8000
1FFF8000
3FFF0000
3FFF0000
7FFE0000
FFFC0000
FFF80000
FFF80000
FFFC0000
7FFE0000
7FFE0000
3FFF0000
1FFF0000
1FFF8000
0FFF8000
07FF8000
07FFC000
03FFC000
03FFC000
03FFC000
03FFC000
03FFC000
03FFC000
03FFC000
03FFC000
03FFC000
03FFC000
03FFC000
03FFC000
03FFC000
03FFC000
03FFC000
03FFC000
03FFC000
03FFC000
03FFC000
03FFC000
03FFC000
03FFC000
03FFC000
03FFC000
03FFC000
03FFC000
03FFC000
03FFC000
03FFC000
03FFC000
03FFC000
03FFC000
03FFC000
03FFC000
03FFF000
03FFFFE0
01FFFFE0
01FFFFE0
01FFFFE0
00FFFFE0
00FFFFE0
007FFFE0
003FFFE0
001FFFE0
0007FFE0
0001FFE0
ENDCHAR
STARTCHAR 007C
ENCODING 124
SWIDTH 295 0
DWIDTH 30 0
BBX 12 73 9 0
BITMAP
FFF0
FFF0
FFF0
FFF0
FFF0
FFF0
FFF0
FFF0
FFF0
FFF0
FFF0
FFF0
FFF0
FFF0
FFF0
FFF0
FFF0
FFF0
FFF0
FFF0
FFF0
FFF0
FFF0
FFF0
FFF0
FFF0
FFF0
FFF0
FFF0
FFF0
FFF0
FFF0
FFF0
FFF0
FFF0
FFF0
FFF0
FFF0
FFF0
FFF0
FFF0
FFF0
FFF0
FFF0
FFF0
FFF0
FFF0
FFF0
FFF0
FFF0
FFF0
FFF0
FFF0
FFF0
FFF0
FFF0
FFF0
FFF0
FFF0
FFF0
FFF0
FFF0
FFF0
FFF0
FFF0
FFF0
FFF0
FFF0
FFF0
FFF0
FFF0
FFF0
FFF0
ENDCHAR
STARTCHAR 007D
ENCODING 125
SWIDTH 453 0
DWIDTH 46 0
BBX 27 112 4 -21
BITMAP
FFE00000
FFFC0000
FFFF0000
FFFF8000
FFFFC000
FFFFE000
FFFFE000
FFFFF000
FFFFF000
FFFFF800
FFFFF800
FFFFF800
007FF800
007FF800
003FF800
003FF800
003FF800
003FF800
003FF800
003FF800
003FF800
003FF800
003FF800
003FF800
003FF800
003FF800
003FF800
003FF800
003FF800
003FF800
003FF800
003FF800
003FF800
003FF800
003FF800
003FF800
003FF800
003FF800
003FF800
003FF800
003FF800
003FF800
003FF800
003FF800
003FF800
003FF800
003FFC00
003FFC00
003FFE00
003FFF00
001FFF80
001FFF80
000FFFC0
0007FFE0
0007FFE0
0003FFE0
0003FFE0
0003FFE0
0007FFE0
000FFFC0
000FFFC0
001FFF80
001FFF00
003FFF00
003FFE00
003FFC00
003FF800
003FF800
003FF800
003FF800
003FF800
003FF800
003FF800
003FF800
003FF800
003FF800
003FF800
003FF800
003FF800
003FF800
003FF800
003FF800
003FF800
003FF800
003FF800
003FF800
003FF800
003FF800
003FF800
003FF800
003FF800
003FF800
003FF800
003FF800
003FF800
003FF800
003FF800
003FF800
007FF800
007FF800
00FFF800
FFFFF800
FFFFF800
FFFFF000
FFFFF000
FFFFF000
FFFFE000
FFFFC000
FFFFC000
FFFF8000
FFFE0000
FFF80000
ENDCHAR
STARTCHAR 007E
ENCODING 126
SWIDTH 720 0
DWIDTH 73 0
BBX 50 23 11 20
BITMAP
007F8000000000
01FFF000000000
07FFFC0001FFC0
0FFFFF0001FFC0
1FFFFF8001FFC0
3FFFFFE001FFC0
3FFFFFF001FFC0
7FFFFFFC01FFC0
7FFFFFFE03FFC0
7FFFFFFF87FFC0
FFFFFFFFFFFFC0
FFFFFFFFFFFFC0
FFFFFFFFFFFFC0
FFF83FFFFFFFC0
FFF00FFFFFFF80
FFF003FFFFFF80
FFE001FFFFFF80
FFE0007FFFFF00
7FE0003FFFFE00
7FF0000FFFFC00
00000003FFF800
00000000FFE000
00000000020000
ENDCHAR
STARTCHAR 00A0
ENCODING 160
SWIDTH 197 0
DWIDTH 20 0
BBX 0 0 0 0
BITMAP
ENDCHAR
STARTCHAR 00A1
ENCODING 161
SWIDTH 364 0
DWIDTH 37 0
BBX 12 73 12 -18
BITMAP
FFF0
FFF0
FFF0
FFF0
FFF0
FFF0
FFF0
FFF0
FFF0
FFF0
FFF0
0000
0000
0000
0000
0000
0000
0000
FFF0
FFF0
FFF0
FFF0
FFF0
FFF0
FFF0
FFF0
FFF0
FFF0
FFF0
FFF0
FFF0
FFF0
FFF0
FFF0
FFF0
FFF0
FFF0
FFF0
FFF0
FFF0
FFF0
FFF0
FFF0
FFF0
FFF0
FFF0
FFF0
FFF0
FFF0
FFF0
FFF0
FFF0
FFF0
FFF0
FFF0
FFF0
FFF0
FFF0
FFF0
FFF0
FFF0
FFF0
FFF0
FFF0
FFF0
FFF0
FFF0
FFF0
FFF0
FFF0
FFF0
FFF0
FFF0
ENDCHAR
STARTCHAR 00A2
ENCODING 162
SWIDTH 572 0
DWIDTH 58 0
BBX 51 76 4 -3
BITMAP
000001FF000000
000001FF000000
000001FF000000
000001FF000000
000001FF000000
000001FF000000
000001FF000000
000001FF000000
000001FF000000
000001FF000000
00003FFFF00000
0001FFFFFE0000
0007FFFFFF8000
000FFFFFFFC000
003FFFFFFFF000
007FFFFFFFF800
00FFFFFFFFFC00
01FFFFFFFFFE00
03FFFFFFFFFE00
03FFFFFFFFFF00
07FFFFFFFFFF80
0FFFFC00FFFF80
0FFFF0007FFFC0
1FFFC0001FFFC0
1FFF80000FFFE0
3FFF000007FFE0
3FFF000007FFE0
3FFE000003FF00
7FFE000001F000
7FFC0000018000
7FFC0000000000
7FFC0000000000
FFF80000000000
FFF80000000000
FFF80000000000
FFF80000000000
FFF80000000000
FFF80000000000
FFF80000000000
FFF80000000000
FFF80000000000
FFF80000000000
FFF80000000000
FFF80000000000
7FFC0000000000
7FFC0000000000
7FFC0000000000
7FFE000001C000
3FFE000003FC00
3FFF000003FFE0
3FFF000007FFE0
1FFF80000FFFE0
1FFFC0001FFFC0
0FFFF0003FFFC0
0FFFF800FFFF80
07FFFFFFFFFF80
07FFFFFFFFFF00
03FFFFFFFFFE00
01FFFFFFFFFE00
00FFFFFFFFFC00
007FFFFFFFF800
003FFFFFFFF000
001FFFFFFFC000
0007FFFFFF8000
0001FFFFFE0000
00003FFFF00000
000003FF000000
000001FF000000
000001FF000000
000001FF000000
000001FF000000
000001FF000000
000001FF000000
000001FF000000
000001FF000000
000001FF000000
ENDCHAR
STARTCHAR 00A3
ENCODING 163
SWIDTH 572 0
DWIDTH 58 0
BBX 50 75 4 0
BITMAP
0000007FC00000
000007FFF80000
00001FFFFE0000
00007FFFFF0000
0000FFFFFF8000
0001FFFFFFE000
0003FFFFFFE000
0007FFFFFFF000
000FFFFFFFF800
000FFFFFFFFC00
001FFFFFFFFC00
003FFFFFFFFE00
003FFF807FFE00
003FFF003FFF00
007FFE001FFF00
007FFC000FFF80
007FFC0007FF80
007FFC0007FFC0
007FF80003FFC0
007FF80003FE00
007FF80003F000
007FF800018000
007FF800000000
007FF800000000
007FF800000000
007FF800000000
007FF800000000
007FF800000000
007FF800000000
007FF800000000
007FF800000000
007FF800000000
FFFFFFFFF80000
FFFFFFFFF80000
FFFFFFFFF80000
FFFFFFFFF80000
FFFFFFFFF80000
FFFFFFFFF80000
FFFFFFFFF80000
FFFFFFFFF80000
FFFFFFFFF80000
FFFFFFFFF80000
FFFFFFFFF80000
FFFFFFFFF80000
007FF800000000
007FF800000000
007FF800000000
007FF800000000
007FF800000000
007FF800000000
007FF800000000
007FF800000000
007FF800000000
007FF800000000
007FF800000000
007FF800000000
007FF800000000
007FF800000000
00FFF800000000
00FFF800000000
01FFF800000000
03FFF800000000
07FFF800000000
3FFFF800000000
FFFFFFFFFFF800
FFFFFFFFFFF800
FFFFFFFFFFF800
FFFFFFFFFFF800
FFFFFFFFFFF800
FFFFFFFFFFF800
FFFFFFFFFFF800
FFFFFFFFFFF800
FFFFFFFFFFF800
FFFFFFFFFFF800
FFFFFFFFFFF800
ENDCHAR
STARTCHAR 00A4
ENCODING 164
SWIDTH 670 0
DWIDTH 68 0
BBX 62 61 3 6
BITMAP
0180000000000600
03C0000000000F00
07E0000000001F80
0FF0000000003FC0
1FF8003FF0007FE0
3FFC03FFFF00FFF0
7FFE0FFFFFC1FFF8
FFFF3FFFFFF3FFFC
7FFFFFFFFFFFFFF8
3FFFFFFFFFFFFFF0
1FFFFFFFFFFFFFE0
0FFFFFFFFFFFFFC0
07FFFFFFFFFFFF80
03FFFFFFFFFFFF00
01FFFFFFFFFFFE00
00FFFF8007FFFC00
00FFFE0001FFFC00
00FFF80000FFFC00
01FFF000003FFE00
01FFE000001FFE00
03FFC000000FFF00
03FFC000000FFF00
03FF80000007FF00
07FF00000003FF80
07FF00000003FF80
07FF00000003FF80
07FE00000001FF80
07FE00000001FF80
0FFE00000001FFC0
0FFE00000001FFC0
0FFE00000001FFC0
0FFE00000001FFC0
0FFE00000001FFC0
07FE00000001FF80
07FE00000001FF80
07FF00000003FF80
07FF00000003FF80
07FF00000003FF80
03FF80000007FF00
03FF8000000FFF00
03FFC000000FFF00
01FFE000001FFE00
01FFF000003FFE00
00FFF800007FFC00
00FFFE0001FFFC00
00FFFF8007FFFC00
01FFFFF87FFFFE00
03FFFFFFFFFFFF00
07FFFFFFFFFFFF80
0FFFFFFFFFFFFFC0
1FFFFFFFFFFFFFE0
3FFFFFFFFFFFFFF0
7FFFFFFFFFFFFFF8
FFFF3FFFFFF3FFFC
7FFE0FFFFFC1FFF8
3FFC03FFFF00FFF0
1FF8003FF0007FE0
0FF0000000003FC0
07E0000000001F80
03C0000000000F00
0180000000000600
ENDCHAR
STARTCHAR 00A5
ENCODING 165
SWIDTH 611 0
DWIDTH 62 0
BBX 62 73 0 0
BITMAP
FFFE00000001FFFC
7FFE00000001FFF8
7FFF00000003FFF8
3FFF00000003FFF0
1FFF80000007FFE0
1FFF80000007FFE0
0FFFC000000FFFC0
0FFFE000001FFFC0
07FFE000001FFF80
07FFF000003FFF80
03FFF000003FFF00
01FFF800007FFE00
01FFF800007FFE00
00FFFC0000FFFC00
00FFFE0001FFFC00
007FFE0001FFF800
007FFF0003FFF800
003FFF0003FFF000
001FFF8007FFE000
001FFF8007FFE000
000FFFC00FFFC000
000FFFE01FFFC000
0007FFE01FFF8000
0007FFF03FFF8000
0003FFF03FFF0000
0001FFF87FFE0000
0001FFF87FFE0000
0000FFFCFFFC0000
0000FFFFFFFC0000
00007FFFFFF80000
00007FFFFFF80000
00003FFFFFF00000
00001FFFFFE00000
00001FFFFFE00000
00000FFFFFC00000
00000FFFFFC00000
000007FFFF800000
003FFFFFFFFFF000
003FFFFFFFFFF000
003FFFFFFFFFF000
003FFFFFFFFFF000
003FFFFFFFFFF000
003FFFFFFFFFF000
003FFFFFFFFFF000
003FFFFFFFFFF000
003FFFFFFFFFF000
003FFFFFFFFFF000
0000007FF8000000
0000007FF8000000
0000007FF8000000
0000007FF8000000
0000007FF8000000
0000007FF8000000
003FFFFFFFFFF000
003FFFFFFFFFF000
003FFFFFFFFFF000
003FFFFFFFFFF000
003FFFFFFFFFF000
003FFFFFFFFFF000
003FFFFFFFFFF000
003FFFFFFFFFF000
003FFFFFFFFFF000
003FFFFFFFFFF000
0000007FF8000000
0000007FF8000000
0000007FF8000000
0000007FF8000000
0000007FF8000000
0000007FF8000000
0000007FF8000000
0000007FF8000000
0000007FF8000000
0000007FF8000000
ENDCHAR
STARTCHAR 00A6
ENCODING 166
SWIDTH 295 0
DWIDTH 30 0
BBX 12 94 9 -21
BITMAP
FFF0
FFF0
FFF0
FFF0
FFF0
FFF0
FFF0
FFF0
FFF0
FFF0
FFF0
FFF0
FFF0
FFF0
FFF0
FFF0
FFF0
FFF0
FFF0
FFF0
FFF0
FFF0
FFF0
FFF0
FFF0
FFF0
FFF0
FFF0
FFF0
FFF0
FFF0
FFF0
FFF0
FFF0
FFF0
FFF0
FFF0
FFF0
FFF0
FFF0
FFF0
0000
0000
0000
0000
0000
0000
0000
0000
0000
0000
0000
FFF0
FFF0
FFF0
FFF0
FFF0
FFF0
FFF0
FFF0
FFF0
FFF0
FFF0
FFF0
FFF0
FFF0
FFF0
FFF0
FFF0
FFF0
FFF0
FFF0
FFF0
FFF0
FFF0
FFF0
FFF0
FFF0
FFF0
FFF0
FFF0
FFF0
FFF0
FFF0
FFF0
FFF0
FFF0
FFF0
FFF0
FFF0
FFF0
FFF0
FFF0
FFF0
ENDCHAR
STARTCHAR 00A7
ENCODING 167
SWIDTH 542 0
DWIDTH 55 0
BBX 46 81 5 -14
BITMAP
0000FFC00000
000FFFFC0000
003FFFFF0000
00FFFFFFC000
01FFFFFFF000
03FFFFFFF800
07FFFFFFFC00
0FFFFFFFFE00
1FFFFFFFFF00
1FFFFFFFFF00
3FFFFFFFFF80
3FFF007FFF80
3FFE001FFFC0
7FFC000FFFC0
7FF80007FFC0
7FF80007FFC0
7FF80003FF80
7FF80003E000
7FFC00000000
7FFE00000000
7FFF80000000
3FFFF0000000
3FFFFE000000
1FFFFFE00000
1FFFFFFE0000
0FFFFFFFC000
07FFFFFFF000
03FFFFFFFC00
00FFFFFFFF00
00FFFFFFFFC0
03FFFFFFFFE0
0FFFFFFFFFF0
1FFFFFFFFFF0
3FFF81FFFFF8
3FFE001FFFF8
7FFC0007FFF8
7FF80001FFFC
FFF00000FFFC
FFF000007FFC
FFF000007FFC
FFF000007FFC
FFF000007FFC
FFF800007FFC
FFFE00007FF8
FFFF8000FFF8
7FFFF001FFF8
7FFFFF03FFF0
3FFFFFF7FFF0
3FFFFFFFFFE0
1FFFFFFFFFC0
07FFFFFFFF80
03FFFFFFFE00
00FFFFFFFF00
003FFFFFFF80
0007FFFFFFC0
0000FFFFFFE0
00000FFFFFE0
000000FFFFF0
0000001FFFF0
00000007FFF0
00000001FFF8
00000000FFF8
00F80000FFF8
7FF80000FFF8
FFFC0000FFF8
7FFC0000FFF8
7FFE0000FFF8
7FFF0001FFF0
3FFF8003FFF0
3FFFE00FFFF0
1FFFFFFFFFE0
1FFFFFFFFFE0
0FFFFFFFFFC0
07FFFFFFFFC0
07FFFFFFFF80
03FFFFFFFF00
00FFFFFFFE00
007FFFFFF800
001FFFFFE000
0003FFFF8000
00003FF80000
ENDCHAR
STARTCHAR 00A8
ENCODING 168
SWIDTH 552 0
DWIDTH 56 0
BBX 32 11 12 82
BITMAP
FFE007FF
FFE007FF
FFE007FF
FFE007FF
FFE007FF
FFE007FF
FFE007FF
FFE007FF
FFE007FF
FFE007FF
FFE007FF
ENDCHAR
STARTCHAR 00A9
ENCODING 169
SWIDTH 887 0
DWIDTH 90 0
BBX 84 84 3 -6
BITMAP
000000001FFF0000000000
00000001FFFFF800000000
0000000FFFFFFF00000000
0000007FFFFFFFE0000000
000001FFFFFFFFF8000000
000007FFFFFFFFFE000000
00001FFFFFFFFFFF000000
00003FFFFFFFFFFFC00000
00007FFFFFFFFFFFE00000
0001FFFFFFFFFFFFF00000
0003FFFFFFFFFFFFFC0000
0007FFFFFF9FFFFFFE0000
000FFFFFC0003FFFFF0000
001FFFFE000007FFFF8000
003FFFF8000001FFFFC000
007FFFE00000007FFFC000
007FFF800000001FFFE000
00FFFF000000000FFFF000
01FFFC0000000007FFF800
03FFF80000000003FFF800
03FFF000007C0001FFFC00
07FFE0001FFFC000FFFE00
07FFE0007FFFF8007FFE00
0FFFC001FFFFFC003FFF00
0FFF8003FFFFFE001FFF00
1FFF0007FFFFFF801FFF00
1FFF000FFFFFFFC00FFF80
1FFE001FFFFFFFC007FF80
3FFE003FFFFFFFE007FFC0
3FFC003FFF03FFE003FFC0
3FFC007FF800FFF003FFC0
7FF8007FF0007FF003FFC0
7FF800FFE0003FF801FFE0
7FF800FFC0003FF801FFE0
7FF000FFC0001F8001FFE0
7FF001FF80001C0000FFE0
FFF001FF8000000000FFE0
FFF001FF8000000000FFF0
FFF001FF8000000000FFF0
FFF001FF8000000000FFF0
FFF001FF0000000000FFF0
FFE001FF0000000000FFF0
FFE001FF0000000000FFF0
FFF001FF0000000000FFF0
FFF001FF8000000000FFF0
FFF001FF8000000000FFF0
FFF001FF8000000000FFF0
FFF001FF8000000000FFE0
FFF001FF8000000000FFE0
7FF000FFC0001F0001FFE0
7FF800FFC0001FF001FFE0
7FF800FFE0003FF801FFE0
7FF8007FF0007FF003FFE0
3FFC007FF800FFF003FFC0
3FFC003FFE03FFE003FFC0
3FFE003FFFFFFFE007FFC0
1FFE001FFFFFFFC007FF80
1FFF000FFFFFFF800FFF80
1FFF0007FFFFFF000FFF00
0FFF8003FFFFFE001FFF00
0FFFC001FFFFFC003FFF00
07FFC0007FFFF8007FFE00
07FFE0001FFFE000FFFE00
03FFF00001FE0000FFFC00
03FFF80000000001FFF800
01FFFC0000000007FFF800
00FFFF000000000FFFF000
007FFF800000001FFFE000
007FFFE00000007FFFE000
003FFFF8000001FFFFC000
001FFFFE000007FFFF8000
000FFFFFC0003FFFFF0000
0007FFFFFF9FFFFFFE0000
0003FFFFFFFFFFFFFC0000
0001FFFFFFFFFFFFF80000
0000FFFFFFFFFFFFE00000
00003FFFFFFFFFFFC00000
00001FFFFFFFFFFF000000
000007FFFFFFFFFE000000
000001FFFFFFFFF8000000
0000007FFFFFFFE0000000
0000000FFFFFFF00000000
00000001FFFFF800000000
000000001FFF8000000000
ENDCHAR
STARTCHAR 00AA
ENCODING 170
SWIDTH 315 0
DWIDTH 32 0
BBX 24 29 4 27
BITMAP
00FF80
03FFF0
0FFFF8
1FFFFC
1FFFFE
3FFFFF
7FC0FF
7F007F
0E003F
00003F
0000FF
003FFF
03FFFF
0FFFFF
1FFFFF
3FFFFF
7FF03F
7F803F
FE003F
FE007F
FC007F
FE00FF
FE01FF
FF07FF
7FFFFF
7FFFDF
3FFF9F
1FFE1F
07F000
ENDCHAR
STARTCHAR 00AB
ENCODING 171
SWIDTH 581 0
DWIDTH 59 0
BBX 45 45 8 5
BITMAP
000000000200
000070000700
0000F80007C0
0001FC000FE0
0003FF001FF0
0003FF003FF8
0007FE003FF0
000FFE007FE0
001FFC00FFE0
003FF801FFC0
003FF003FF80
007FE003FF00
00FFE007FE00
01FFC00FFE00
03FF801FFC00
03FF003FF800
07FE003FF000
0FFE007FE000
1FFC00FFE000
1FF801FFC000
3FF003FF8000
7FE003FF0000
FFE007FE0000
7FE003FF0000
3FF003FF8000
3FF801FFC000
1FFC00FFE000
0FFE007FE000
07FE007FF000
03FF003FF800
03FF801FFC00
01FFC00FFE00
00FFE007FE00
007FE007FF00
003FF003FF80
003FF801FFC0
001FFC00FFC0
000FFE007FE0
0007FE007FF0
0003FF003FF8
0003FF001FF0
0001FC000FE0
0000F80007C0
000070000780
000020000200
ENDCHAR
STARTCHAR 00AC
ENCODING 172
SWIDTH 601 0
DWIDTH 61 0
BBX 49 22 6 19
BITMAP
FFFFFFFFFFFF80
FFFFFFFFFFFF80
FFFFFFFFFFFF80
FFFFFFFFFFFF80
FFFFFFFFFFFF80
FFFFFFFFFFFF80
FFFFFFFFFFFF80
FFFFFFFFFFFF80
FFFFFFFFFFFF80
FFFFFFFFFFFF80
0000000001FF80
0000000001FF80
0000000001FF80
0000000001FF80
0000000001FF80
0000000001FF80
0000000001FF80
0000000001FF80
0000000001FF80
0000000001FF80
0000000001FF80
0000000001FF80
ENDCHAR
STARTCHAR 00AD
ENCODING 173
SWIDTH 424 0
DWIDTH 43 0
BBX 30 10 6 27
BITMAP
FFFFFFFC
FFFFFFFC
FFFFFFFC
FFFFFFFC
FFFFFFFC
FFFFFFFC
FFFFFFFC
FFFFFFFC
FFFFFFFC
FFFFFFFC
ENDCHAR
STARTCHAR 00AE
ENCODING 174
SWIDTH 650 0
DWIDTH 66 0
BBX 52 52 7 28
BITMAP
000007FE000000
00007FFFE00000
0001FFFFF80000
0007FFFFFE0000
000FFFFFFF8000
003FFFFFFFC000
007FFFFFFFE000
00FFFFFFFFF000
01FFFC03FFF800
03FFE0007FFC00
07FF80001FFE00
07FF000007FF00
0FFC000003FF00
1FF8000001FF80
1FF03FFE00FF80
3FF03FFF807FC0
3FE03FFFC07FC0
3FC03FFFE03FE0
7FC03C03E03FE0
7F803C01F01FE0
7F803C01F01FF0
FF803C00F00FF0
FF803C00F00FF0
FF003C01F00FF0
FF003C01F00FF0
FF003C03E00FF0
FF003FFFE00FF0
FF003FFFC00FF0
FF003FFF800FF0
FF803FFF000FF0
FF803C0F800FF0
7F803C0F801FF0
7F803C07C01FF0
7FC03C07C01FE0
7FC03C03E03FE0
3FE03C03E07FE0
3FF03C01F07FC0
1FF03C01F0FFC0
1FF8000001FF80
0FFC000003FF80
0FFF000007FF00
07FF80001FFE00
03FFE0007FFC00
01FFFC03FFFC00
00FFFFFFFFF800
007FFFFFFFF000
003FFFFFFFC000
001FFFFFFF8000
0007FFFFFF0000
0001FFFFFC0000
00007FFFE00000
00000FFF000000
ENDCHAR
STARTCHAR 00AF
ENCODING 175
SWIDTH 503 0
DWIDTH 51 0
BBX 27 9 12 85
BITMAP
FFFFFFE0
FFFFFFE0
FFFFFFE0
FFFFFFE0
FFFFFFE0
FFFFFFE0
FFFFFFE0
FFFFFFE0
FFFFFFE0
ENDCHAR
STARTCHAR 00B0
ENCODING 176
SWIDTH 453 0
DWIDTH 46 0
BBX 37 36 3 39
BITMAP
0003FC0000
001FFFC000
007FFFE000
00FFFFF800
03FFFFFC00
07FFFFFE00
0FFFFFFF00
0FFFFFFF80
1FFFFFFFC0
3FFFFFFFC0
3FFFDFFFE0
7FFE03FFE0
7FF801FFF0
7FF000FFF0
FFE0007FF0
FFE0003FF0
FFE0003FF0
FFC0003FF8
FFC0003FF8
FFE0003FF0
FFE0003FF0
FFE0007FF0
7FF0007FF0
7FF800FFF0
7FFC01FFE0
3FFF07FFE0
3FFFFFFFE0
1FFFFFFFC0
1FFFFFFF80
0FFFFFFF80
07FFFFFF00
03FFFFFE00
01FFFFFC00
00FFFFF000
003FFFE000
0007FF0000
ENDCHAR
STARTCHAR 00B1
ENCODING 177
SWIDTH 601 0
DWIDTH 61 0
BBX 49 49 6 6
BITMAP
00000FF8000000
00000FF8000000
00000FF8000000
00000FF8000000
00000FF8000000
00000FF8000000
00000FF8000000
00000FF8000000
00000FF8000000
00000FF8000000
00000FF8000000
FFFFFFFFFFFF80
FFFFFFFFFFFF80
FFFFFFFFFFFF80
FFFFFFFFFFFF80
FFFFFFFFFFFF80
FFFFFFFFFFFF80
FFFFFFFFFFFF80
FFFFFFFFFFFF80
FFFFFFFFFFFF80
FFFFFFFFFFFF80
00000FF8000000
00000FF8000000
00000FF8000000
00000FF8000000
00000FF8000000
00000FF8000000
00000FF8000000
00000FF8000000
00000FF8000000
00000FF8000000
00000FF8000000
00000FF8000000
00000000000000
00000000000000
00000000000000
00000000000000
00000000000000
00000000000000
FFFFFFFFFFFF80
FFFFFFFFFFFF80
FFFFFFFFFFFF80
FFFFFFFFFFFF80
FFFFFFFFFFFF80
FFFFFFFFFFFF80
FFFFFFFFFFFF80
FFFFFFFFFFFF80
FFFFFFFFFFFF80
FFFFFFFFFFFF80
ENDCHAR
STARTCHAR 00B2
ENCODING 178
SWIDTH 414 0
DWIDTH 42 0
BBX 32 46 5 28
BITMAP
000FF000
007FFE00
01FFFF80
07FFFFC0
0FFFFFE0
1FFFFFF0
1FFFFFF8
3FFE7FFC
7FF00FFC
7FE007FE
7FC003FE
FF8001FE
FF8001FE
FF0001FF
FF0001FF
000000FF
000001FF
000001FF
000001FE
000003FE
000007FE
00000FFC
00001FFC
00003FF8
00007FF0
0000FFE0
0001FFC0
0003FF80
0007FF00
001FFE00
003FFC00
007FF800
00FFF000
01FFE000
03FF8000
07FF0000
0FFE0000
3FFC0000
7FF80000
FFFFFFFF
FFFFFFFF
FFFFFFFF
FFFFFFFF
FFFFFFFF
FFFFFFFF
FFFFFFFF
ENDCHAR
STARTCHAR 00B3
ENCODING 179
SWIDTH 404 0
DWIDTH 41 0
BBX 31 47 4 26
BITMAP
3FFFFFFC
3FFFFFFC
3FFFFFFC
3FFFFFFC
3FFFFFFC
3FFFFFFC
3FFFFFFC
3FFFFFFC
00001FF8
00003FF0
00007FE0
0000FFC0
0001FF80
0007FF00
000FFE00
001FFC00
003FF800
007FFC00
00FFFF00
00FFFF80
007FFFE0
007FFFF0
003FFFF0
001FFFF8
00001FF8
00000FFC
000007FC
000003FC
000003FE
000001FE
000001FE
000001FE
000001FE
010003FE
0F0003FE
FF8003FC
FF8007FC
7FC00FFC
7FF03FF8
3FFFFFF0
1FFFFFF0
1FFFFFE0
0FFFFFC0
03FFFF80
01FFFE00
007FF800
00030000
ENDCHAR
STARTCHAR 00B4
ENCODING 180
SWIDTH 542 0
DWIDTH 55 0
BBX 17 19 21 81
BITMAP
00FF80
01FF80
01FF00
03FF00
03FE00
03FE00
07FC00
07FC00
0FFC00
0FF800
0FF800
1FF000
1FF000
3FF000
3FE000
7FE000
7FC000
7FC000
FF8000
ENDCHAR
STARTCHAR 00B5
ENCODING 181
SWIDTH 631 0
DWIDTH 64 0
BBX 50 79 7 -24
BITMAP
FFF0000003FFC0
FFF0000003FFC0
FFF0000003FFC0
FFF0000003FFC0
FFF0000003FFC0
FFF0000003FFC0
FFF0000003FFC0
FFF0000003FFC0
FFF0000003FFC0
FFF0000003FFC0
FFF0000003FFC0
FFF0000003FFC0
FFF0000003FFC0
FFF0000003FFC0
FFF0000003FFC0
FFF0000003FFC0
FFF0000003FFC0
FFF0000003FFC0
FFF0000003FFC0
FFF0000003FFC0
FFF0000003FFC0
FFF0000003FFC0
FFF0000003FFC0
FFF0000003FFC0
FFF0000003FFC0
FFF0000003FFC0
FFF0000003FFC0
FFF0000003FFC0
FFF0000003FFC0
FFF0000003FFC0
FFF8000003FFC0
FFF8000003FFC0
FFF8000003FFC0
FFF8000003FFC0
FFF8000007FFC0
FFF8000007FFC0
FFFC000007FFC0
FFFC00000FFFC0
FFFE00000FFFC0
FFFE00001FFFC0
FFFF00001FFFC0
FFFF00003FFFC0
FFFFC0007FFFC0
FFFFE001FFFFC0
FFFFF807FFFFC0
FFFFFFFFFFFFC0
FFFFFFFFFFFFC0
FFFFFFFFFFFFC0
FFFFFFFFFFFFC0
FFFFFFFFFFFFC0
FFFFFFFFFDFFC0
FFFFFFFFF9FFC0
FFFFFFFFE1FFC0
FFFFFFFFC1FFC0
FFEFFFFF01FFC0
FFE1FFF8000000
FFE00C00000000
FFE00000000000
FFE00000000000
FFE00000000000
FFE00000000000
FFE00000000000
FFE00000000000
FFE00000000000
FFE00000000000
FFE00000000000
FFE00000000000
FFE00000000000
FFE00000000000
FFE00000000000
FFE00000000000
FFE00000000000
FFE00000000000
FFE00000000000
FFE00000000000
FFE00000000000
FFE00000000000
FFE00000000000
FFE00000000000
ENDCHAR
STARTCHAR 00B6
ENCODING 182
SWIDTH 720 0
DWIDTH 73 0
BBX 63 87 5 -14
BITMAP
00003FFFFF803FFE
0003FFFFFF803FFE
001FFFFFFF803FFE
003FFFFFFF803FFE
00FFFFFFFF803FFE
01FFFFFFFF803FFE
03FFFFFFFF803FFE
07FFFFFFFF803FFE
0FFFFFFFFF803FFE
0FFFFFFFFF803FFE
1FFFFFFFFF803FFE
3FFFFFFFFF803FFE
3FFFFFFFFF803FFE
3FFFFFFFFF803FFE
7FFFFFFFFF803FFE
7FFFFFFFFF803FFE
7FFFFFFFFF803FFE
FFFFFFFFFF803FFE
FFFFFFFFFF803FFE
FFFFFFFFFF803FFE
FFFFFFFFFF803FFE
FFFFFFFFFF803FFE
FFFFFFFFFF803FFE
FFFFFFFFFF803FFE
FFFFFFFFFF803FFE
FFFFFFFFFF803FFE
FFFFFFFFFF803FFE
FFFFFFFFFF803FFE
FFFFFFFFFF803FFE
FFFFFFFFFF803FFE
7FFFFFFFFF803FFE
7FFFFFFFFF803FFE
7FFFFFFFFF803FFE
7FFFFFFFFF803FFE
3FFFFFFFFF803FFE
3FFFFFFFFF803FFE
1FFFFFFFFF803FFE
1FFFFFFFFF803FFE
0FFFFFFFFF803FFE
07FFFFFFFF803FFE
03FFFFFFFF803FFE
03FFFFFFFF803FFE
00FFFFFFFF803FFE
007FFFFFFF803FFE
003FFFFFFF803FFE
000FFFFFFF803FFE
0000FFFFFF803FFE
000001FFFF803FFE
00000007FF803FFE
00000007FF803FFE
00000007FF803FFE
00000007FF803FFE
00000007FF803FFE
00000007FF803FFE
00000007FF803FFE
00000007FF803FFE
00000007FF803FFE
00000007FF803FFE
00000007FF803FFE
00000007FF803FFE
00000007FF803FFE
00000007FF803FFE
00000007FF803FFE
00000007FF803FFE
00000007FF803FFE
00000007FF803FFE
00000007FF803FFE
00000007FF803FFE
00000007FF803FFE
00000007FF803FFE
00000007FF803FFE
00000007FF803FFE
00000007FF803FFE
00000007FF803FFE
00000007FF803FFE
00000007FF803FFE
00000007FF803FFE
00000007FF803FFE
00000007FF803FFE
00000007FF803FFE
00000007FF803FFE
00000007FF803FFE
00000007FF803FFE
00000007FF803FFE
00000007FF803FFE
00000007FF803FFE
00000007FF803FFE
ENDCHAR
STARTCHAR 00B7
ENCODING 183
SWIDTH 266 0
DWIDTH 27 0
BBX 15 15 6 24
BITMAP
07C0
1FF0
3FF8
7FFC
7FFC
FFFE
FFFE
FFFE
FFFE
FFFE
7FFC
7FFC
3FF8
1FF0
07C0
ENDCHAR
STARTCHAR 00B8
ENCODING 184
SWIDTH 414 0
DWIDTH 42 0
BBX 18 26 12 -24
BITMAP
03FC00
03F800
07F800
07F800
07F000
0FF000
0FF000
0FFC00
1FFE00
1FFF00
1FFF80
07FF80
01FF80
007FC0
007FC0
007FC0
007FC0
00FFC0
3FFF80
3FFF80
3FFF80
7FFF00
7FFE00
7FFC00
FFF800
3FE000
ENDCHAR
STARTCHAR 00B9
ENCODING 185
SWIDTH 345 0
DWIDTH 35 0
BBX 17 46 6 27
BITMAP
00FF80
03FF80
0FFF80
1FFF80
7FFF80
FFFF80
FFFF80
FFFF80
FFFF80
FE7F80
FC7F80
F07F80
C07F80
807F80
007F80
007F80
007F80
007F80
007F80
007F80
007F80
007F80
007F80
007F80
007F80
007F80
007F80
007F80
007F80
007F80
007F80
007F80
007F80
007F80
007F80
007F80
007F80
007F80
007F80
007F80
007F80
007F80
007F80
007F80
007F80
007F80
ENDCHAR
STARTCHAR 00BA
ENCODING 186
SWIDTH 355 0
DWIDTH 36 0
BBX 28 29 4 27
BITMAP
003FC000
01FFF000
03FFFC00
0FFFFE00
1FFFFF00
1FFFFF80
3FE0FFC0
7F803FC0
7F801FE0
7F000FE0
FF000FE0
FE000FE0
FE0007E0
FE0007F0
FE0007F0
FE0007F0
FE0007E0
FE000FE0
FF000FE0
7F000FE0
7F801FE0
7F803FC0
3FE0FFC0
1FFFFF80
1FFFFF00
0FFFFE00
03FFFC00
01FFF000
003FC000
ENDCHAR
STARTCHAR 00BB
ENCODING 187
SWIDTH 581 0
DWIDTH 59 0
BBX 45 45 6 5
BITMAP
020000100000
070000380000
0F8000F80000
3F8001FC0000
7FC003FE0000
FFE007FF0000
7FF003FF8000
3FF801FF8000
1FF800FFC000
0FFC00FFE000
0FFE007FF000
07FF003FF800
03FF801FF800
01FF800FFC00
00FFC00FFE00
00FFE007FF00
007FF003FF80
003FF801FF80
001FF801FFC0
000FFC00FFE0
000FFE007FF0
0007FF003FF0
0003FF801FF8
0007FF003FF8
000FFE007FF0
000FFC00FFE0
001FF800FFC0
003FF801FF80
007FF003FF80
00FFE007FF00
00FFC00FFE00
01FFC00FFC00
03FF801FF800
07FF003FF800
07FE007FF000
0FFC00FFE000
1FFC00FFC000
3FF801FF8000
7FF003FF8000
7FE007FF0000
7FC003FE0000
3FC001FC0000
0F8000F80000
070000380000
020000100000
ENDCHAR
STARTCHAR 00BC
ENCODING 188
SWIDTH 1035 0
DWIDTH 105 0
BBX 87 74 6 0
BITMAP
0000000000000001000000
00FF800000000003800000
03FF800000000003C00000
0FFF800000000007F00000
1FFF80000000000FF80000
7FFF80000000001FFC0000
FFFF80000000001FFC0000
FFFF80000000003FF80000
FFFF80000000007FF80000
FFFF8000000000FFF00000
FE7F8000000000FFE00000
F87F8000000001FFC00000
F07F8000000003FFC00000
C07F8000000003FF800000
807F8000000007FF000000
007F800000000FFE000000
007F800000001FFE000000
007F800000001FFC000000
007F800000003FF8000000
007F800000007FF0000000
007F80000000FFF0000000
007F80000000FFE0000000
007F80000001FFC0000000
007F80000003FFC0000000
007F80000003FF80000000
007F80000007FF00000000
007F8000000FFE00000000
007F8000001FFE00000000
007F8000001FFC0007FC00
007F8000003FF8000FF800
007F8000007FF0000FF800
007F800000FFF0001FF000
007F800000FFE0001FF000
007F800001FFC0003FF000
007F800003FF80003FE000
007F800003FF80003FE000
007F800007FF00007FC000
007F80000FFE00007FC000
007F80001FFE0000FF8000
007F80001FFC0000FF8000
007F80003FF80001FF0000
007F80007FF00001FF0000
007F8000FFF00003FE0000
007F8000FFE00003FE0000
007F8001FFC00007FC0000
007F8003FF800007FC0000
00000003FF80000FF80000
00000007FF00000FF81FE0
0000000FFE00001FF01FE0
0000001FFE00001FF01FE0
0000001FFC00003FF01FE0
0000003FF800003FE01FE0
0000007FF000003FE01FE0
000000FFF000007FC01FE0
000000FFE000007FC01FE0
000001FFC00000FF801FE0
000003FF800000FF801FE0
000007FF800001FF001FE0
000007FF000001FF001FE0
00000FFE000003FFFFFFFE
00001FFC000003FFFFFFFE
00001FFC000003FFFFFFFE
00003FF8000003FFFFFFFE
00007FF0000003FFFFFFFE
0000FFE0000003FFFFFFFE
0000FFE0000003FFFFFFFE
0001FFC000000000001FE0
0003FF8000000000001FE0
0007FF8000000000001FE0
0001FF0000000000001FE0
0000FE0000000000001FE0
00007C0000000000001FE0
00001C0000000000001FE0
0000080000000000001FE0
ENDCHAR
STARTCHAR 00BD
ENCODING 189
SWIDTH 1015 0
DWIDTH 103 0
BBX 92 74 6 0
BITMAP
000000000000000100000000
00FF80000000000380000000
03FF800000000003C0000000
07FF800000000007F0000000
1FFF80000000000FF8000000
7FFF80000000001FFC000000
FFFF80000000001FFC000000
FFFF80000000003FF8000000
FFFF80000000007FF8000000
FFFF8000000000FFF0000000
FE7F8000000000FFE0000000
FC7F8000000001FFC0000000
F07F8000000003FFC0000000
C07F8000000003FF80000000
807F8000000007FF00000000
007F800000000FFE00000000
007F800000001FFE00000000
007F800000001FFC00000000
007F800000003FF800000000
007F800000007FF800000000
007F80000000FFF000000000
007F80000000FFE000000000
007F80000001FFC000000000
007F80000003FFC000000000
007F80000003FF8000000000
007F80000007FF0000000000
007F8000000FFE0000000000
007F8000001FFE0000000000
007F8000001FFC0003FFC000
007F8000003FF8000FFFF000
007F8000007FF0003FFFFC00
007F800000FFF0007FFFFE00
007F800000FFE000FFFFFF00
007F800001FFC001FFFFFF80
007F800003FF8003FFFFFF80
007F800003FF8003FF81FFC0
007F800007FF0007FE007FC0
007F80000FFE0007FC003FE0
007F80001FFE0007F8003FE0
007F80001FFC000FF8001FE0
007F80003FF8000FF8001FF0
007F80007FF0000FF0001FF0
007F8000FFF0000FF0000FF0
007F8000FFE0000000000FF0
007F8001FFC0000000001FF0
007F8003FF80000000001FF0
007F8003FF80000000003FE0
00000007FF00000000003FE0
0000000FFE00000000007FE0
0000001FFC0000000000FFC0
0000001FFC0000000001FFC0
0000003FF80000000003FF80
0000007FF00000000007FF00
000000FFF0000000001FFE00
000000FFE0000000003FFC00
000001FFC0000000007FF800
000003FF8000000000FFF000
000003FF8000000001FFE000
000007FF0000000003FF8000
00000FFE0000000007FF0000
00001FFC000000000FFE0000
00001FFC000000003FFC0000
00003FF8000000007FF80000
00007FF000000000FFF00000
0000FFF000000001FFE00000
0000FFE000000003FFC00000
0001FFC000000007FF000000
0003FF800000000FFFFFFFF0
0003FF800000000FFFFFFFF0
0003FF000000000FFFFFFFF0
0000FE000000000FFFFFFFF0
00007C000000000FFFFFFFF0
00001C000000000FFFFFFFF0
000008000000000FFFFFFFF0
ENDCHAR
STARTCHAR 00BE
ENCODING 190
SWIDTH 1025 0
DWIDTH 104 0
BBX 94 74 4 0
BITMAP
000000000000000001000000
3FFFFFFC0000000003800000
3FFFFFFC0000000003E00000
3FFFFFFC0000000007F00000
3FFFFFFC000000000FF80000
3FFFFFFC000000001FFC0000
3FFFFFFC000000001FFC0000
3FFFFFFC000000003FF80000
3FFFFFFC000000007FF80000
00001FF8000000007FF00000
00003FF000000000FFE00000
00007FE000000001FFC00000
0000FFC000000003FFC00000
0001FF8000000003FF800000
0007FF0000000007FF000000
000FFE000000000FFE000000
001FFC000000001FFE000000
003FF8000000001FFC000000
007FFC000000003FF8000000
00FFFF000000007FF8000000
00FFFF800000007FF0000000
007FFFE0000000FFE0000000
007FFFF0000001FFC0000000
003FFFF0000003FFC0000000
001FFFF8000003FF80000000
00001FF8000007FF00000000
00000FFC00000FFE00000000
000007FC00001FFE00000000
000003FC00001FFC000FF800
000003FE00003FF8000FF800
000001FE00007FF8001FF000
000001FE0000FFF0001FF000
000001FE0000FFE0003FE000
000001FE0001FFC0003FE000
010003FE0003FFC0007FC000
0F0003FE0003FF80007FC000
FF8003FC0007FF0000FF8000
FF8007FC000FFE0000FF8000
7FC00FFC001FFE0001FF8000
7FF03FF8001FFC0001FF0000
3FFFFFF0003FF80001FF0000
1FFFFFF0007FF00003FE0000
1FFFFFE000FFF00003FE0000
0FFFFFC000FFE00007FC0000
03FFFF8001FFC00007FC0000
01FFFE0003FFC0000FF80000
007FF80003FF80000FF80000
0003000007FF00001FF03FC0
000000000FFE00001FF03FC0
000000001FFE00003FE03FC0
000000001FFC00003FE03FC0
000000003FF800007FC03FC0
000000007FF000007FC03FC0
00000000FFF00000FF803FC0
00000000FFE00000FF803FC0
00000001FFC00001FF803FC0
00000003FF800001FF003FC0
00000003FF800003FF003FC0
00000007FF000003FE003FC0
0000000FFE000003FFFFFFFC
0000001FFE000003FFFFFFFC
0000001FFC000003FFFFFFFC
0000003FF8000003FFFFFFFC
0000007FF0000003FFFFFFFC
000000FFF0000003FFFFFFFC
000000FFE0000003FFFFFFFC
000001FFC000000000003FC0
000003FF8000000000003FC0
000003FF8000000000003FC0
000001FF0000000000003FC0
000000FE0000000000003FC0
0000007C0000000000003FC0
0000001C0000000000003FC0
000000080000000000003FC0
ENDCHAR
STARTCHAR 00BF
ENCODING 191
SWIDTH 552 0
DWIDTH 56 0
BBX 46 75 5 -20
BITMAP
00003FFE0000
00003FFE0000
00003FFE0000
00003FFE0000
00003FFE0000
00003FFE0000
00003FFE0000
00003FFE0000
00003FFE0000
00003FFE0000
00003FFE0000
00003FFE0000
00003FFE0000
000000000000
000000000000
000000000000
000000000000
000000000000
000000000000
000000000000
00003FFE0000
00003FFE0000
00003FFE0000
00003FFE0000
00003FFC0000
00007FFC0000
00007FFC0000
0000FFFC0000
0000FFFC0000
0001FFF80000
0003FFF80000
0007FFF00000
000FFFF00000
001FFFE00000
003FFFE00000
007FFFC00000
00FFFF800000
01FFFF000000
03FFFE000000
03FFFC000000
07FFF8000000
0FFFE0000000
1FFFC0000000
1FFF80000000
3FFF00000000
3FFF00000000
7FFE00000000
7FFC00000000
7FFC00000000
7FF800000000
FFF800000000
FFF800000000
FFF800000000
FFF800000000
FFF800007FFC
FFF800007FFC
FFF800007FFC
FFF800007FF8
FFFC0000FFF8
7FFE0001FFF8
7FFE0001FFF0
7FFF8007FFF0
3FFFE01FFFF0
3FFFFFFFFFE0
1FFFFFFFFFE0
1FFFFFFFFFC0
0FFFFFFFFF80
07FFFFFFFF00
03FFFFFFFE00
01FFFFFFFC00
00FFFFFFF800
003FFFFFE000
000FFFFF8000
0001FFFC0000
000001000000
ENDCHAR
STARTCHAR 00C0
ENCODING 192
SWIDTH 670 0
DWIDTH 68 0
BBX 64 100 2 0
BITMAP
00003FF000000000
00001FF000000000
00001FF000000000
00000FF800000000
00000FF800000000
00000FFC00000000
000007FC00000000
000007FE00000000
000003FE00000000
000003FE00000000
000003FF00000000
000001FF00000000
000001FF80000000
000000FF80000000
000000FF80000000
0000007FC0000000
0000007FC0000000
0000007FE0000000
0000003FE0000000
0000000000000000
0000000000000000
0000000000000000
0000000000000000
0000000000000000
0000000000000000
0000000000000000
0000000000000000
000001FFFF800000
000001FFFF800000
000003FFFFC00000
000003FFFFC00000
000003FFFFC00000
000007FFFFE00000
000007FFFFE00000
000007FFFFE00000
00000FFFFFF00000
00000FFFFFF00000
00000FFFFFF00000
00001FFFFFF80000
00001FFFFFF80000
00001FFF7FF80000
00003FFE7FFC0000
00003FFE7FFC0000
00003FFE3FFC0000
00003FFC3FFC0000
00007FFC3FFE0000
00007FFC1FFE0000
00007FF81FFE0000
0000FFF81FFF0000
0000FFF81FFF0000
0000FFF00FFF0000
0001FFF00FFF8000
0001FFF00FFF8000
0001FFE007FF8000
0003FFE007FFC000
0003FFE007FFC000
0003FFC003FFC000
0007FFC003FFE000
0007FFC003FFE000
0007FF8001FFE000
000FFF8001FFF000
000FFF8001FFF000
000FFF8000FFF000
000FFF0000FFF000
001FFF0000FFF800
001FFF00007FF800
001FFE00007FF800
003FFE00007FFC00
003FFE00007FFC00
003FFC00003FFC00
007FFC00003FFE00
007FFC00003FFE00
007FF800001FFE00
00FFFFFFFFFFFF00
00FFFFFFFFFFFF00
00FFFFFFFFFFFF00
01FFFFFFFFFFFF80
01FFFFFFFFFFFF80
01FFFFFFFFFFFF80
03FFFFFFFFFFFF80
03FFFFFFFFFFFFC0
03FFFFFFFFFFFFC0
03FFFFFFFFFFFFC0
07FFFFFFFFFFFFE0
07FF80000001FFE0
07FF80000001FFE0
0FFF80000001FFF0
0FFF80000001FFF0
0FFF00000000FFF0
1FFF00000000FFF8
1FFF00000000FFF8
1FFE000000007FF8
3FFE000000007FFC
3FFE000000007FFC
3FFC000000003FFC
7FFC000000003FFE
7FFC000000003FFE
7FF8000000001FFE
FFF8000000001FFE
FFF8000000001FFF
ENDCHAR
STARTCHAR 00C1
ENCODING 193
SWIDTH 670 0
DWIDTH 68 0
BBX 64 100 2 0
BITMAP
000000000FFC0000
000000000FF80000
000000000FF80000
000000001FF00000
000000001FF00000
000000003FF00000
000000003FE00000
000000007FE00000
000000007FC00000
000000007FC00000
00000000FF800000
00000000FF800000
00000001FF800000
00000001FF000000
00000001FF000000
00000003FE000000
00000003FE000000
00000007FE000000
00000007FC000000
0000000000000000
0000000000000000
0000000000000000
0000000000000000
0000000000000000
0000000000000000
0000000000000000
0000000000000000
000001FFFF800000
000001FFFF800000
000003FFFFC00000
000003FFFFC00000
000003FFFFC00000
000007FFFFE00000
000007FFFFE00000
000007FFFFE00000
00000FFFFFF00000
00000FFFFFF00000
00000FFFFFF00000
00001FFFFFF80000
00001FFFFFF80000
00001FFEFFF80000
00003FFE7FFC0000
00003FFE7FFC0000
00003FFC7FFC0000
00003FFC3FFC0000
00007FFC3FFE0000
00007FF83FFE0000
00007FF81FFE0000
0000FFF81FFF0000
0000FFF01FFF0000
0000FFF00FFF0000
0001FFF00FFF8000
0001FFF00FFF8000
0001FFE007FF8000
0003FFE007FFC000
0003FFE007FFC000
0003FFC003FFC000
0007FFC003FFE000
0007FFC003FFE000
0007FF8003FFE000
000FFF8001FFF000
000FFF8001FFF000
000FFF0001FFF000
000FFF0000FFF000
001FFF0000FFF800
001FFE0000FFF800
001FFE00007FF800
003FFE00007FFC00
003FFC00007FFC00
003FFC00003FFC00
007FFC00003FFE00
007FFC00003FFE00
007FF800001FFE00
00FFFFFFFFFFFF00
00FFFFFFFFFFFF00
00FFFFFFFFFFFF00
01FFFFFFFFFFFF80
01FFFFFFFFFFFF80
01FFFFFFFFFFFF80
03FFFFFFFFFFFF80
03FFFFFFFFFFFFC0
03FFFFFFFFFFFFC0
03FFFFFFFFFFFFC0
07FFFFFFFFFFFFE0
07FF80000003FFE0
07FF80000001FFE0
0FFF80000001FFF0
0FFF00000001FFF0
0FFF00000000FFF0
1FFF00000000FFF8
1FFF00000000FFF8
1FFE000000007FF8
3FFE000000007FFC
3FFE000000007FFC
3FFC000000003FFC
7FFC000000003FFE
7FFC000000003FFE
7FF8000000001FFE
FFF8000000001FFE
FFF8000000001FFF
ENDCHAR
STARTCHAR 00C2
ENCODING 194
SWIDTH 670 0
DWIDTH 68 0
BBX 64 97 2 0
BITMAP
0000003FF8000000
0000007FFC000000
0000007FFE000000
000000FFFF000000
000001FFFF800000
000003FFFFC00000
000007FFFFE00000
00000FFEFFE00000
00001FFE7FF00000
00001FFC3FF80000
00003FF81FFC0000
00007FF00FFE0000
0000FFE007FF0000
0001FFC007FF8000
0003FFC003FFC000
0007FF8001FFC000
0000000000000000
0000000000000000
0000000000000000
0000000000000000
0000000000000000
0000000000000000
0000000000000000
0000000000000000
000001FFFF800000
000001FFFF800000
000003FFFFC00000
000003FFFFC00000
000003FFFFC00000
000007FFFFE00000
000007FFFFE00000
000007FFFFE00000
00000FFFFFF00000
00000FFFFFF00000
00000FFFFFF00000
00001FFFFFF80000
00001FFFFFF80000
00001FFEFFF80000
00003FFE7FFC0000
00003FFE7FFC0000
00003FFC7FFC0000
00003FFC3FFC0000
00007FFC3FFE0000
00007FF83FFE0000
00007FF81FFE0000
0000FFF81FFF0000
0000FFF01FFF0000
0000FFF00FFF0000
0001FFF00FFF8000
0001FFF00FFF8000
0001FFE007FF8000
0003FFE007FFC000
0003FFE007FFC000
0003FFC003FFC000
0007FFC003FFE000
0007FFC003FFE000
0007FF8003FFE000
000FFF8001FFF000
000FFF8001FFF000
000FFF0001FFF000
000FFF0000FFF000
001FFF0000FFF800
001FFE0000FFF800
001FFE00007FF800
003FFE00007FFC00
003FFC00007FFC00
003FFC00003FFC00
007FFC00003FFE00
007FFC00003FFE00
007FF800001FFE00
00FFFFFFFFFFFF00
00FFFFFFFFFFFF00
00FFFFFFFFFFFF00
01FFFFFFFFFFFF80
01FFFFFFFFFFFF80
01FFFFFFFFFFFF80
03FFFFFFFFFFFF80
03FFFFFFFFFFFFC0
03FFFFFFFFFFFFC0
03FFFFFFFFFFFFC0
07FFFFFFFFFFFFE0
07FF80000003FFE0
07FF80000001FFE0
0FFF80000001FFF0
0FFF00000001FFF0
0FFF00000000FFF0
1FFF00000000FFF8
1FFF00000000FFF8
1FFE000000007FF8
3FFE000000007FFC
3FFE000000007FFC
3FFC000000003FFC
7FFC000000003FFE
7FFC000000003FFE
7FF8000000001FFE
FFF8000000001FFE
FFF8000000001FFF
ENDCHAR
STARTCHAR 00C3
ENCODING 195
SWIDTH 670 0
DWIDTH 68 0
BBX 64 100 2 0
BITMAP
000007C000000000
00003FF8003F8000
00007FFE003F8000
0000FFFF003FC000
0001FFFFC03FC000
0001FFFFE03FC000
0001FFFFF87FC000
0003FFFFFFFFC000
0003FFFFFFFFC000
0003FE1FFFFF8000
0003FE07FFFF8000
0003FC03FFFF8000
0003FC00FFFF0000
0001FC007FFE0000
0001FC001FFC0000
0000000007F00000
0000000000000000
0000000000000000
0000000000000000
0000000000000000
0000000000000000
0000000000000000
0000000000000000
0000000000000000
0000000000000000
0000000000000000
0000000000000000
000001FFFF800000
000001FFFF800000
000003FFFFC00000
000003FFFFC00000
000003FFFFC00000
000007FFFFE00000
000007FFFFE00000
000007FFFFE00000
00000FFFFFF00000
00000FFFFFF00000
00000FFFFFF00000
00001FFFFFF80000
00001FFFFFF80000
00001FFEFFF80000
00003FFE7FFC0000
00003FFE7FFC0000
00003FFC7FFC0000
00003FFC3FFC0000
00007FFC3FFE0000
00007FF83FFE0000
00007FF81FFE0000
0000FFF81FFF0000
0000FFF01FFF0000
0000FFF00FFF0000
0001FFF00FFF8000
0001FFF00FFF8000
0001FFE007FF8000
0003FFE007FFC000
0003FFE007FFC000
0003FFC003FFC000
0007FFC003FFE000
0007FFC003FFE000
0007FF8003FFE000
000FFF8001FFF000
000FFF8001FFF000
000FFF0001FFF000
000FFF0000FFF000
001FFF0000FFF800
001FFE0000FFF800
001FFE00007FF800
003FFE00007FFC00
003FFC00007FFC00
003FFC00003FFC00
007FFC00003FFE00
007FFC00003FFE00
007FF800001FFE00
00FFFFFFFFFFFF00
00FFFFFFFFFFFF00
00FFFFFFFFFFFF00
01FFFFFFFFFFFF80
01FFFFFFFFFFFF80
01FFFFFFFFFFFF80
03FFFFFFFFFFFF80
03FFFFFFFFFFFFC0
03FFFFFFFFFFFFC0
03FFFFFFFFFFFFC0
07FFFFFFFFFFFFE0
07FF80000003FFE0
07FF80000001FFE0
0FFF80000001FFF0
0FFF00000001FFF0
0FFF00000000FFF0
1FFF00000000FFF8
1FFF00000000FFF8
1FFE000000007FF8
3FFE000000007FFC
3FFE000000007FFC
3FFC000000003FFC
7FFC000000003FFE
7FFC000000003FFE
7FF8000000001FFE
FFF8000000001FFE
FFF8000000001FFF
ENDCHAR
STARTCHAR 00C4
ENCODING 196
SWIDTH 670 0
DWIDTH 68 0
BBX 64 93 2 0
BITMAP
0000FFE007FF0000
0000FFE007FF0000
0000FFE007FF0000
0000FFE007FF0000
0000FFE007FF0000
0000FFE007FF0000
0000FFE007FF0000
0000FFE007FF0000
0000FFE007FF0000
0000FFE007FF0000
0000FFE007FF0000
0000000000000000
0000000000000000
0000000000000000
0000000000000000
0000000000000000
0000000000000000
0000000000000000
0000000000000000
0000000000000000
000001FFFF800000
000001FFFF800000
000003FFFFC00000
000003FFFFC00000
000003FFFFC00000
000007FFFFE00000
000007FFFFE00000
000007FFFFE00000
00000FFFFFF00000
00000FFFFFF00000
00000FFFFFF00000
00001FFFFFF80000
00001FFFFFF80000
00001FFEFFF80000
00003FFE7FFC0000
00003FFE7FFC0000
00003FFC7FFC0000
00003FFC3FFC0000
00007FFC3FFE0000
00007FF83FFE0000
00007FF81FFE0000
0000FFF81FFF0000
0000FFF01FFF0000
0000FFF00FFF0000
0001FFF00FFF8000
0001FFF00FFF8000
0001FFE007FF8000
0003FFE007FFC000
0003FFE007FFC000
0003FFC003FFC000
0007FFC003FFE000
0007FFC003FFE000
0007FF8003FFE000
000FFF8001FFF000
000FFF8001FFF000
000FFF0001FFF000
000FFF0000FFF000
001FFF0000FFF800
001FFE0000FFF800
001FFE00007FF800
003FFE00007FFC00
003FFC00007FFC00
003FFC00003FFC00
007FFC00003FFE00
007FFC00003FFE00
007FF800001FFE00
00FFFFFFFFFFFF00
00FFFFFFFFFFFF00
00FFFFFFFFFFFF00
01FFFFFFFFFFFF80
01FFFFFFFFFFFF80
01FFFFFFFFFFFF80
03FFFFFFFFFFFF80
03FFFFFFFFFFFFC0
03FFFFFFFFFFFFC0
03FFFFFFFFFFFFC0
07FFFFFFFFFFFFE0
07FF80000003FFE0
07FF80000001FFE0
0FFF80000001FFF0
0FFF00000001FFF0
0FFF00000000FFF0
1FFF00000000FFF8
1FFF00000000FFF8
1FFE000000007FF8
3FFE000000007FFC
3FFE000000007FFC
3FFC000000003FFC
7FFC000000003FFE
7FFC000000003FFE
7FF8000000001FFE
FFF8000000001FFE
FFF8000000001FFF
ENDCHAR
STARTCHAR 00C5
ENCODING 197
SWIDTH 670 0
DWIDTH 68 0
BBX 64 105 2 0
BITMAP
0000000FF0000000
0000003FFC000000
000000FFFF000000
000001FFFF800000
000003FFFFC00000
000007FFFFE00000
000007FFFFE00000
00000FFFFFF00000
00000FF81FF00000
00000FF00FF80000
00001FE007F80000
00001FE007F80000
00001FE003F80000
00001FC003F80000
00001FE007F80000
00001FE007F80000
00001FE007F80000
00000FF00FF00000
00000FFC3FF00000
000007FFFFF00000
000007FFFFE00000
000003FFFFC00000
000001FFFF800000
000000FFFF000000
0000007FFE000000
0000001FF8000000
0000000000000000
0000000000000000
0000000000000000
0000000000000000
0000000000000000
0000000000000000
000001FFFF800000
000001FFFF800000
000003FFFFC00000
000003FFFFC00000
000003FFFFC00000
000007FFFFE00000
000007FFFFE00000
000007FFFFE00000
00000FFFFFF00000
00000FFFFFF00000
00000FFFFFF00000
00001FFFFFF80000
00001FFFFFF80000
00001FFEFFF80000
00003FFE7FFC0000
00003FFE7FFC0000
00003FFC7FFC0000
00003FFC3FFC0000
00007FFC3FFE0000
00007FF83FFE0000
00007FF81FFE0000
0000FFF81FFF0000
0000FFF01FFF0000
0000FFF00FFF0000
0001FFF00FFF8000
0001FFF00FFF8000
0001FFE007FF8000
0003FFE007FFC000
0003FFE007FFC000
0003FFC003FFC000
0007FFC003FFE000
0007FFC003FFE000
0007FF8003FFE000
000FFF8001FFF000
000FFF8001FFF000
000FFF0001FFF000
000FFF0000FFF000
001FFF0000FFF800
001FFE0000FFF800
001FFE00007FF800
003FFE00007FFC00
003FFC00007FFC00
003FFC00003FFC00
007FFC00003FFE00
007FFC00003FFE00
007FF800001FFE00
00FFFFFFFFFFFF00
00FFFFFFFFFFFF00
00FFFFFFFFFFFF00
01FFFFFFFFFFFF80
01FFFFFFFFFFFF80
01FFFFFFFFFFFF80
03FFFFFFFFFFFF80
03FFFFFFFFFFFFC0
03FFFFFFFFFFFFC0
03FFFFFFFFFFFFC0
07FFFFFFFFFFFFE0
07FF80000003FFE0
07FF80000001FFE0
0FFF80000001FFF0
0FFF00000001FFF0
0FFF00000000FFF0
1FFF00000000FFF8
1FFF00000000FFF8
1FFE000000007FF8
3FFE000000007FFC
3FFE000000007FFC
3FFC000000003FFC
7FFC000000003FFE
7FFC000000003FFE
7FF8000000001FFE
FFF8000000001FFE
FFF8000000001FFF
ENDCHAR
STARTCHAR 00C6
ENCODING 198
SWIDTH 936 0
DWIDTH 95 0
BBX 88 73 2 0
BITMAP
000001FFFFFFFFFFFFFFFF
000001FFFFFFFFFFFFFFFF
000003FFFFFFFFFFFFFFFF
000003FFFFFFFFFFFFFFFF
000003FFFFFFFFFFFFFFFF
000007FFFFFFFFFFFFFFFF
000007FFFFFFFFFFFFFFFF
000007FFFFFFFFFFFFFFFF
00000FFFFFFFFFFFFFFFFF
00000FFFFFFFFFFFFFFFFF
00000FFFFFFFFFFFFFFFFF
00001FFF007FF800000000
00001FFF007FF800000000
00001FFE007FF800000000
00003FFE007FF800000000
00003FFE007FF800000000
00003FFC007FF800000000
00003FFC007FF800000000
00007FFC007FF800000000
00007FF8007FF800000000
00007FF8007FF800000000
0000FFF8007FF800000000
0000FFF0007FF800000000
0000FFF0007FF800000000
0001FFF0007FF800000000
0001FFE0007FF800000000
0001FFE0007FF800000000
0003FFE0007FF800000000
0003FFE0007FF800000000
0003FFC0007FF800000000
0007FFC0007FFFFFFFFFC0
0007FFC0007FFFFFFFFFC0
0007FF80007FFFFFFFFFC0
000FFF80007FFFFFFFFFC0
000FFF80007FFFFFFFFFC0
000FFF00007FFFFFFFFFC0
000FFF00007FFFFFFFFFC0
001FFF00007FFFFFFFFFC0
001FFE00007FFFFFFFFFC0
001FFE00007FFFFFFFFFC0
003FFE00007FFFFFFFFFC0
003FFC00007FF800000000
003FFC00007FF800000000
007FFC00007FF800000000
007FFC00007FF800000000
007FF800007FF800000000
00FFFFFFFFFFF800000000
00FFFFFFFFFFF800000000
00FFFFFFFFFFF800000000
01FFFFFFFFFFF800000000
01FFFFFFFFFFF800000000
01FFFFFFFFFFF800000000
03FFFFFFFFFFF800000000
03FFFFFFFFFFF800000000
03FFFFFFFFFFF800000000
03FFFFFFFFFFF800000000
07FFFFFFFFFFF800000000
07FF8000007FF800000000
07FF8000007FF800000000
0FFF8000007FF800000000
0FFF0000007FF800000000
0FFF0000007FF800000000
1FFF0000007FFFFFFFFFFF
1FFF0000007FFFFFFFFFFF
1FFE0000007FFFFFFFFFFF
3FFE0000007FFFFFFFFFFF
3FFE0000007FFFFFFFFFFF
3FFC0000007FFFFFFFFFFF
7FFC0000007FFFFFFFFFFF
7FFC0000007FFFFFFFFFFF
7FF80000007FFFFFFFFFFF
FFF80000007FFFFFFFFFFF
FFF80000007FFFFFFFFFFF
ENDCHAR
STARTCHAR 00C7
ENCODING 199
SWIDTH 739 0
DWIDTH 75 0
BBX 68 99 3 -24
BITMAP
0000000FFF80000000
000000FFFFFC000000
000007FFFFFF800000
00001FFFFFFFE00000
00007FFFFFFFF80000
0001FFFFFFFFFE0000
0003FFFFFFFFFF0000
000FFFFFFFFFFFC000
001FFFFFFFFFFFE000
003FFFFFFFFFFFF000
007FFFFFFFFFFFF800
00FFFFFFFFFFFFFC00
00FFFFF0003FFFFC00
01FFFF800007FFFE00
03FFFE000001FFFF00
03FFFC000000FFFF00
07FFF80000007FFF80
0FFFF00000003FFF80
0FFFE00000001FFFC0
0FFFC00000000FFFC0
1FFF8000000007FFE0
1FFF8000000007FFE0
3FFF0000000003FFF0
3FFF0000000003FFE0
3FFE0000000001FF00
3FFE0000000001F000
7FFC00000000010000
7FFC00000000000000
7FFC00000000000000
7FFC00000000000000
7FFC00000000000000
FFF800000000000000
FFF800000000000000
FFF800000000000000
FFF800000000000000
FFF800000000000000
FFF800000000000000
FFF800000000000000
FFF800000000000000
FFF800000000000000
FFF800000000000000
FFF800000000000000
FFF800000000000000
FFF800000000000000
FFF800000000000000
FFF800000000000000
7FFC00000000000000
7FFC00000000000000
7FFC00000000000000
7FFC00000000010000
7FFE0000000001F000
3FFE0000000001FE00
3FFE0000000003FFE0
3FFF0000000003FFF0
1FFF0000000007FFE0
1FFF8000000007FFE0
0FFFC00000000FFFC0
0FFFE00000001FFFC0
0FFFE00000003FFF80
07FFF00000007FFF80
03FFFC000000FFFF00
03FFFE000001FFFF00
01FFFF800007FFFE00
00FFFFE0003FFFFC00
00FFFFFFCFFFFFFC00
007FFFFFFFFFFFF800
003FFFFFFFFFFFF000
001FFFFFFFFFFFE000
000FFFFFFFFFFFC000
0003FFFFFFFFFF0000
0001FFFFFFFFFE0000
00007FFFFFFFF80000
00003FFFFFFFF00000
000007FFFFFF800000
000000FFFFFC000000
0000000FFFC0000000
00000000FE00000000
00000001FE00000000
00000001FC00000000
00000001FE00000000
00000003FF80000000
00000003FFC0000000
00000003FFE0000000
00000003FFE0000000
000000007FF0000000
000000001FF0000000
000000000FF0000000
000000000FF0000000
000000000FF0000000
000000001FF0000000
000000073FF0000000
00000007FFF0000000
00000007FFF0000000
0000000FFFE0000000
0000000FFFE0000000
0000001FFFC0000000
0000001FFF80000000
0000001FFE00000000
00000003F800000000
ENDCHAR
STARTCHAR 00C8
ENCODING 200
SWIDTH 581 0
DWIDTH 59 0
BBX 47 100 7 0
BITMAP
000FFC000000
0007FC000000
0007FC000000
0003FE000000
0003FE000000
0003FF000000
0001FF000000
0001FF800000
0000FF800000
0000FF800000
0000FFC00000
00007FC00000
00007FE00000
00003FE00000
00003FE00000
00001FF00000
00001FF00000
00001FF80000
00000FF80000
000000000000
000000000000
000000000000
000000000000
000000000000
000000000000
000000000000
000000000000
FFFFFFFFFFFE
FFFFFFFFFFFE
FFFFFFFFFFFE
FFFFFFFFFFFE
FFFFFFFFFFFE
FFFFFFFFFFFE
FFFFFFFFFFFE
FFFFFFFFFFFE
FFFFFFFFFFFE
FFFFFFFFFFFE
FFFFFFFFFFFE
FFF000000000
FFF000000000
FFF000000000
FFF000000000
FFF000000000
FFF000000000
FFF000000000
FFF000000000
FFF000000000
FFF000000000
FFF000000000
FFF000000000
FFF000000000
FFF000000000
FFF000000000
FFF000000000
FFF000000000
FFF000000000
FFF000000000
FFFFFFFFFF80
FFFFFFFFFF80
FFFFFFFFFF80
FFFFFFFFFF80
FFFFFFFFFF80
FFFFFFFFFF80
FFFFFFFFFF80
FFFFFFFFFF80
FFFFFFFFFF80
FFFFFFFFFF80
FFFFFFFFFF80
FFF000000000
FFF000000000
FFF000000000
FFF000000000
FFF000000000
FFF000000000
FFF000000000
FFF000000000
FFF000000000
FFF000000000
FFF000000000
FFF000000000
FFF000000000
FFF000000000
FFF000000000
FFF000000000
FFF000000000
FFF000000000
FFF000000000
FFF000000000
FFF000000000
FFFFFFFFFFFE
FFFFFFFFFFFE
FFFFFFFFFFFE
FFFFFFFFFFFE
FFFFFFFFFFFE
FFFFFFFFFFFE
FFFFFFFFFFFE
FFFFFFFFFFFE
FFFFFFFFFFFE
FFFFFFFFFFFE
FFFFFFFFFFFE
ENDCHAR
STARTCHAR 00C9
ENCODING 201
SWIDTH 581 0
DWIDTH 59 0
BBX 47 100 7 0
BITMAP
0000000FF800
0000000FF800
0000001FF800
0000001FF000
0000001FF000
0000003FE000
0000003FE000
0000007FE000
0000007FC000
000000FFC000
000000FF8000
000000FF8000
000001FF0000
000001FF0000
000003FF0000
000003FE0000
000003FE0000
000007FC0000
000007FC0000
000000000000
000000000000
000000000000
000000000000
000000000000
000000000000
000000000000
000000000000
FFFFFFFFFFFE
FFFFFFFFFFFE
FFFFFFFFFFFE
FFFFFFFFFFFE
FFFFFFFFFFFE
FFFFFFFFFFFE
FFFFFFFFFFFE
FFFFFFFFFFFE
FFFFFFFFFFFE
FFFFFFFFFFFE
FFFFFFFFFFFE
FFF000000000
FFF000000000
FFF000000000
FFF000000000
FFF000000000
FFF000000000
FFF000000000
FFF000000000
FFF000000000
FFF000000000
FFF000000000
FFF000000000
FFF000000000
FFF000000000
FFF000000000
FFF000000000
FFF000000000
FFF000000000
FFF000000000
FFFFFFFFFF80
FFFFFFFFFF80
FFFFFFFFFF80
FFFFFFFFFF80
FFFFFFFFFF80
FFFFFFFFFF80
FFFFFFFFFF80
FFFFFFFFFF80
FFFFFFFFFF80
FFFFFFFFFF80
FFFFFFFFFF80
FFF000000000
FFF000000000
FFF000000000
FFF000000000
FFF000000000
FFF000000000
FFF000000000
FFF000000000
FFF000000000
FFF000000000
FFF000000000
FFF000000000
FFF000000000
FFF000000000
FFF000000000
FFF000000000
FFF000000000
FFF000000000
FFF000000000
FFF000000000
FFF000000000
FFFFFFFFFFFE
FFFFFFFFFFFE
FFFFFFFFFFFE
FFFFFFFFFFFE
FFFFFFFFFFFE
FFFFFFFFFFFE
FFFFFFFFFFFE
FFFFFFFFFFFE
FFFFFFFFFFFE
FFFFFFFFFFFE
FFFFFFFFFFFE
ENDCHAR
STARTCHAR 00CA
ENCODING 202
SWIDTH 581 0
DWIDTH 59 0
BBX 47 97 7 0
BITMAP
00007FF80000
00007FF80000
0000FFFC0000
0001FFFE0000
0003FFFF0000
0007FFFF8000
000FFFFFC000
001FFFFFE000
003FFCFFE000
003FF87FF000
007FF03FF800
00FFE01FFC00
01FFC00FFE00
03FFC00FFF00
07FF8007FF80
0FFF0003FFC0
000000000000
000000000000
000000000000
000000000000
000000000000
000000000000
000000000000
000000000000
FFFFFFFFFFFE
FFFFFFFFFFFE
FFFFFFFFFFFE
FFFFFFFFFFFE
FFFFFFFFFFFE
FFFFFFFFFFFE
FFFFFFFFFFFE
FFFFFFFFFFFE
FFFFFFFFFFFE
FFFFFFFFFFFE
FFFFFFFFFFFE
FFF000000000
FFF000000000
FFF000000000
FFF000000000
FFF000000000
FFF000000000
FFF000000000
FFF000000000
FFF000000000
FFF000000000
FFF000000000
FFF000000000
FFF000000000
FFF000000000
FFF000000000
FFF000000000
FFF000000000
FFF000000000
FFF000000000
FFFFFFFFFF80
FFFFFFFFFF80
FFFFFFFFFF80
FFFFFFFFFF80
FFFFFFFFFF80
FFFFFFFFFF80
FFFFFFFFFF80
FFFFFFFFFF80
FFFFFFFFFF80
FFFFFFFFFF80
FFFFFFFFFF80
FFF000000000
FFF000000000
FFF000000000
FFF000000000
FFF000000000
FFF000000000
FFF000000000
FFF000000000
FFF000000000
FFF000000000
FFF000000000
FFF000000000
FFF000000000
FFF000000000
FFF000000000
FFF000000000
FFF000000000
FFF000000000
FFF000000000
FFF000000000
FFF000000000
FFFFFFFFFFFE
FFFFFFFFFFFE
FFFFFFFFFFFE
FFFFFFFFFFFE
FFFFFFFFFFFE
FFFFFFFFFFFE
FFFFFFFFFFFE
FFFFFFFFFFFE
FFFFFFFFFFFE
FFFFFFFFFFFE
FFFFFFFFFFFE
ENDCHAR
STARTCHAR 00CB
ENCODING 203
SWIDTH 581 0
DWIDTH 59 0
BBX 47 93 7 0
BITMAP
01FFC00FFE00
01FFC00FFE00
01FFC00FFE00
01FFC00FFE00
01FFC00FFE00
01FFC00FFE00
01FFC00FFE00
01FFC00FFE00
01FFC00FFE00
01FFC00FFE00
01FFC00FFE00
000000000000
000000000000
000000000000
000000000000
000000000000
000000000000
000000000000
000000000000
000000000000
FFFFFFFFFFFE
FFFFFFFFFFFE
FFFFFFFFFFFE
FFFFFFFFFFFE
FFFFFFFFFFFE
FFFFFFFFFFFE
FFFFFFFFFFFE
FFFFFFFFFFFE
FFFFFFFFFFFE
FFFFFFFFFFFE
FFFFFFFFFFFE
FFF000000000
FFF000000000
FFF000000000
FFF000000000
FFF000000000
FFF000000000
FFF000000000
FFF000000000
FFF000000000
FFF000000000
FFF000000000
FFF000000000
FFF000000000
FFF000000000
FFF000000000
FFF000000000
FFF000000000
FFF000000000
FFF000000000
FFFFFFFFFF80
FFFFFFFFFF80
FFFFFFFFFF80
FFFFFFFFFF80
FFFFFFFFFF80
FFFFFFFFFF80
FFFFFFFFFF80
FFFFFFFFFF80
FFFFFFFFFF80
FFFFFFFFFF80
FFFFFFFFFF80
FFF000000000
FFF000000000
FFF000000000
FFF000000000
FFF000000000
FFF000000000
FFF000000000
FFF000000000
FFF000000000
FFF000000000
FFF000000000
FFF000000000
FFF000000000
FFF000000000
FFF000000000
FFF000000000
FFF000000000
FFF000000000
FFF000000000
FFF000000000
FFF000000000
FFFFFFFFFFFE
FFFFFFFFFFFE
FFFFFFFFFFFE
FFFFFFFFFFFE
FFFFFFFFFFFE
FFFFFFFFFFFE
FFFFFFFFFFFE
FFFFFFFFFFFE
FFFFFFFFFFFE
FFFFFFFFFFFE
FFFFFFFFFFFE
ENDCHAR
STARTCHAR 00CC
ENCODING 204
SWIDTH 276 0
DWIDTH 28 0
BBX 18 100 2 0
BITMAP
FF8000
FF8000
FFC000
7FC000
7FE000
3FE000
3FE000
1FF000
1FF000
1FF800
0FF800
0FFC00
07FC00
07FC00
07FE00
03FE00
03FF00
01FF00
01FF00
000000
000000
000000
000000
000000
000000
000000
000000
03FFC0
03FFC0
03FFC0
03FFC0
03FFC0
03FFC0
03FFC0
03FFC0
03FFC0
03FFC0
03FFC0
03FFC0
03FFC0
03FFC0
03FFC0
03FFC0
03FFC0
03FFC0
03FFC0
03FFC0
03FFC0
03FFC0
03FFC0
03FFC0
03FFC0
03FFC0
03FFC0
03FFC0
03FFC0
03FFC0
03FFC0
03FFC0
03FFC0
03FFC0
03FFC0
03FFC0
03FFC0
03FFC0
03FFC0
03FFC0
03FFC0
03FFC0
03FFC0
03FFC0
03FFC0
03FFC0
03FFC0
03FFC0
03FFC0
03FFC0
03FFC0
03FFC0
03FFC0
03FFC0
03FFC0
03FFC0
03FFC0
03FFC0
03FFC0
03FFC0
03FFC0
03FFC0
03FFC0
03FFC0
03FFC0
03FFC0
03FFC0
03FFC0
03FFC0
03FFC0
03FFC0
03FFC0
03FFC0
ENDCHAR
STARTCHAR 00CD
ENCODING 205
SWIDTH 276 0
DWIDTH 28 0
BBX 19 100 8 0
BITMAP
007FE0
007FC0
007FC0
00FFC0
00FF80
01FF80
01FF00
01FF00
03FE00
03FE00
07FE00
07FC00
0FFC00
0FF800
0FF800
1FF800
1FF000
3FF000
3FE000
000000
000000
000000
000000
000000
000000
000000
000000
FFF000
FFF000
FFF000
FFF000
FFF000
FFF000
FFF000
FFF000
FFF000
FFF000
FFF000
FFF000
FFF000
FFF000
FFF000
FFF000
FFF000
FFF000
FFF000
FFF000
FFF000
FFF000
FFF000
FFF000
FFF000
FFF000
FFF000
FFF000
FFF000
FFF000
FFF000
FFF000
FFF000
FFF000
FFF000
FFF000
FFF000
FFF000
FFF000
FFF000
FFF000
FFF000
FFF000
FFF000
FFF000
FFF000
FFF000
FFF000
FFF000
FFF000
FFF000
FFF000
FFF000
FFF000
FFF000
FFF000
FFF000
FFF000
FFF000
FFF000
FFF000
FFF000
FFF000
FFF000
FFF000
FFF000
FFF000
FFF000
FFF000
FFF000
FFF000
FFF000
FFF000
ENDCHAR
STARTCHAR 00CE
ENCODING 206
SWIDTH 276 0
DWIDTH 28 0
BBX 38 97 -5 0
BITMAP
0007FF8000
0007FF8000
000FFFC000
001FFFE000
003FFFF000
007FFFF800
00FFFFFC00
01FFFFFE00
01FFCFFE00
03FF87FF00
07FF03FF80
0FFE01FFC0
1FFC00FFE0
3FFC00FFF0
7FF8007FF8
FFF0003FFC
0000000000
0000000000
0000000000
0000000000
0000000000
0000000000
0000000000
0000000000
0007FF8000
0007FF8000
0007FF8000
0007FF8000
0007FF8000
0007FF8000
0007FF8000
0007FF8000
0007FF8000
0007FF8000
0007FF8000
0007FF8000
0007FF8000
0007FF8000
0007FF8000
0007FF8000
0007FF8000
0007FF8000
0007FF8000
0007FF8000
0007FF8000
0007FF8000
0007FF8000
0007FF8000
0007FF8000
0007FF8000
0007FF8000
0007FF8000
0007FF8000
0007FF8000
0007FF8000
0007FF8000
0007FF8000
0007FF8000
0007FF8000
0007FF8000
0007FF8000
0007FF8000
0007FF8000
0007FF8000
0007FF8000
0007FF8000
0007FF8000
0007FF8000
0007FF8000
0007FF8000
0007FF8000
0007FF8000
0007FF8000
0007FF8000
0007FF8000
0007FF8000
0007FF8000
0007FF8000
0007FF8000
0007FF8000
0007FF8000
0007FF8000
0007FF8000
0007FF8000
0007FF8000
0007FF8000
0007FF8000
0007FF8000
0007FF8000
0007FF8000
0007FF8000
0007FF8000
0007FF8000
0007FF8000
0007FF8000
0007FF8000
0007FF8000
ENDCHAR
STARTCHAR 00CF
ENCODING 207
SWIDTH 276 0
DWIDTH 28 0
BBX 32 93 -2 0
BITMAP
FFE007FF
FFE007FF
FFE007FF
FFE007FF
FFE007FF
FFE007FF
FFE007FF
FFE007FF
FFE007FF
FFE007FF
FFE007FF
00000000
00000000
00000000
00000000
00000000
00000000
00000000
00000000
00000000
003FFC00
003FFC00
003FFC00
003FFC00
003FFC00
003FFC00
003FFC00
003FFC00
003FFC00
003FFC00
003FFC00
003FFC00
003FFC00
003FFC00
003FFC00
003FFC00
003FFC00
003FFC00
003FFC00
003FFC00
003FFC00
003FFC00
003FFC00
003FFC00
003FFC00
003FFC00
003FFC00
003FFC00
003FFC00
003FFC00
003FFC00
003FFC00
003FFC00
003FFC00
003FFC00
003FFC00
003FFC00
003FFC00
003FFC00
003FFC00
003FFC00
003FFC00
003FFC00
003FFC00
003FFC00
003FFC00
003FFC00
003FFC00
003FFC00
003FFC00
003FFC00
003FFC00
003FFC00
003FFC00
003FFC00
003FFC00
003FFC00
003FFC00
003FFC00
003FFC00
003FFC00
003FFC00
003FFC00
003FFC00
003FFC00
003FFC00
003FFC00
003FFC00
003FFC00
003FFC00
003FFC00
003FFC00
003FFC00
ENDCHAR
STARTCHAR 00D0
ENCODING 208
SWIDTH 700 0
DWIDTH 71 0
BBX 65 73 1 0
BITMAP
03FFFFFFFE00000000
03FFFFFFFFE0000000
03FFFFFFFFFC000000
03FFFFFFFFFF000000
03FFFFFFFFFFC00000
03FFFFFFFFFFF00000
03FFFFFFFFFFF80000
03FFFFFFFFFFFC0000
03FFFFFFFFFFFE0000
03FFFFFFFFFFFF0000
03FFFFFFFFFFFF8000
03FFFFFFFFFFFFC000
03FFE00001FFFFE000
03FFE000003FFFE000
03FFE000001FFFF000
03FFE0000007FFF000
03FFE0000003FFF800
03FFE0000001FFF800
03FFE0000001FFFC00
03FFE0000000FFFC00
03FFE00000007FFE00
03FFE00000007FFE00
03FFE00000003FFE00
03FFE00000003FFF00
03FFE00000003FFF00
03FFE00000001FFF00
03FFE00000001FFF00
03FFE00000001FFF00
03FFE00000000FFF80
03FFE00000000FFF80
03FFE00000000FFF80
FFFFFFFFC0000FFF80
FFFFFFFFC0000FFF80
FFFFFFFFC0000FFF80
FFFFFFFFC0000FFF80
FFFFFFFFC0000FFF80
FFFFFFFFC0000FFF80
FFFFFFFFC0000FFF80
FFFFFFFFC0000FFF80
FFFFFFFFC0000FFF80
FFFFFFFFC0000FFF80
03FFE00000000FFF80
03FFE00000000FFF80
03FFE00000000FFF80
03FFE00000001FFF80
03FFE00000001FFF00
03FFE00000001FFF00
03FFE00000001FFF00
03FFE00000003FFF00
03FFE00000003FFF00
03FFE00000003FFE00
03FFE00000007FFE00
03FFE00000007FFE00
03FFE0000000FFFC00
03FFE0000001FFFC00
03FFE0000001FFF800
03FFE0000003FFF800
03FFE0000007FFF000
03FFE000001FFFF000
03FFE000003FFFE000
03FFE00001FFFFC000
03FFFFFFFFFFFFC000
03FFFFFFFFFFFF8000
03FFFFFFFFFFFF0000
03FFFFFFFFFFFE0000
03FFFFFFFFFFFC0000
03FFFFFFFFFFF80000
03FFFFFFFFFFF00000
03FFFFFFFFFFC00000
03FFFFFFFFFF000000
03FFFFFFFFFC000000
03FFFFFFFFF0000000
03FFFFFFFE00000000
ENDCHAR
STARTCHAR 00D1
ENCODING 209
SWIDTH 720 0
DWIDTH 73 0
BBX 59 97 7 0
BITMAP
00001F8000000000
0000FFF000FF0000
0001FFF800FF0000
0003FFFE00FF0000
0003FFFF00FF0000
0007FFFFC0FF0000
0007FFFFF1FF0000
0007FFFFFFFF0000
0007FFFFFFFF0000
0007FC7FFFFF0000
0007F81FFFFF0000
0007F807FFFE0000
0007F803FFFE0000
0007F800FFFC0000
0007F8003FF00000
000000000FC00000
0000000000000000
0000000000000000
0000000000000000
0000000000000000
0000000000000000
0000000000000000
0000000000000000
0000000000000000
FFF800000003FFE0
FFF800000003FFE0
FFFC00000003FFE0
FFFE00000003FFE0
FFFE00000003FFE0
FFFF00000003FFE0
FFFF80000003FFE0
FFFF80000003FFE0
FFFFC0000003FFE0
FFFFE0000003FFE0
FFFFE0000003FFE0
FFFFF0000003FFE0
FFFFF8000003FFE0
FFFFF8000003FFE0
FFFFFC000003FFE0
FFFFFE000003FFE0
FFFFFE000003FFE0
FFFFFF000003FFE0
FFFFFF800003FFE0
FFFFFF800003FFE0
FFFFFFC00003FFE0
FFFFFFE00003FFE0
FFF7FFE00003FFE0
FFF3FFF00003FFE0
FFF3FFF80003FFE0
FFF1FFF80003FFE0
FFF0FFFC0003FFE0
FFF0FFFE0003FFE0
FFF07FFE0003FFE0
FFF03FFF0003FFE0
FFF03FFF8003FFE0
FFF01FFF8003FFE0
FFF00FFFC003FFE0
FFF00FFFE003FFE0
FFF007FFE003FFE0
FFF003FFF003FFE0
FFF003FFF003FFE0
FFF001FFF803FFE0
FFF000FFFC03FFE0
FFF000FFFC03FFE0
FFF0007FFE03FFE0
FFF0003FFF03FFE0
FFF0003FFF03FFE0
FFF0001FFF83FFE0
FFF0000FFFC3FFE0
FFF0000FFFC3FFE0
FFF00007FFE3FFE0
FFF00003FFF3FFE0
FFF00003FFF3FFE0
FFF00001FFFBFFE0
FFF00001FFFFFFE0
FFF00000FFFFFFE0
FFF000007FFFFFE0
FFF000007FFFFFE0
FFF000003FFFFFE0
FFF000001FFFFFE0
FFF000001FFFFFE0
FFF000000FFFFFE0
FFF0000007FFFFE0
FFF0000007FFFFE0
FFF0000003FFFFE0
FFF0000001FFFFE0
FFF0000001FFFFE0
FFF0000000FFFFE0
FFF00000007FFFE0
FFF00000007FFFE0
FFF00000003FFFE0
FFF00000001FFFE0
FFF00000001FFFE0
FFF00000000FFFE0
FFF000000007FFE0
FFF000000007FFE0
FFF000000003FFE0
ENDCHAR
STARTCHAR 00D2
ENCODING 210
SWIDTH 749 0
DWIDTH 76 0
BBX 70 102 3 -2
BITMAP
000003FE0000000000
000003FE0000000000
000003FF0000000000
000001FF0000000000
000001FF8000000000
000000FF8000000000
000000FF8000000000
0000007FC000000000
0000007FC000000000
0000007FE000000000
0000003FE000000000
0000003FF000000000
0000001FF000000000
0000001FF000000000
0000001FF800000000
0000000FF800000000
0000000FFC00000000
00000007FC00000000
00000007FC00000000
000000000000000000
000000000000000000
000000000000000000
000000000000000000
000000000000000000
000000000000000000
0000000FFF80000000
000000FFFFFC000000
000007FFFFFF800000
00001FFFFFFFE00000
00007FFFFFFFF80000
0001FFFFFFFFFE0000
0003FFFFFFFFFF0000
000FFFFFFFFFFF8000
001FFFFFFFFFFFE000
003FFFFFFFFFFFF000
007FFFFFFFFFFFF800
00FFFFFFFFFFFFF800
00FFFFF0003FFFFC00
01FFFF80000FFFFE00
03FFFE000003FFFF00
03FFFC000000FFFF00
07FFF80000007FFF80
07FFF00000003FFF80
0FFFE00000001FFFC0
0FFFC00000000FFFC0
1FFF8000000007FFE0
1FFF8000000007FFE0
3FFF0000000003FFE0
3FFF0000000003FFF0
3FFE0000000001FFF0
3FFE0000000001FFF0
7FFE0000000001FFF8
7FFC0000000000FFF8
7FFC0000000000FFF8
7FFC0000000000FFF8
7FFC0000000000FFF8
FFF80000000000FFF8
FFF800000000007FFC
FFF800000000007FFC
FFF800000000007FFC
FFF800000000007FFC
FFF800000000007FFC
FFF800000000007FFC
FFF800000000007FFC
FFF800000000007FFC
FFF800000000007FFC
FFF800000000007FFC
FFF800000000007FFC
FFF800000000007FFC
FFF800000000007FFC
FFF80000000000FFF8
7FFC0000000000FFF8
7FFC0000000000FFF8
7FFC0000000000FFF8
7FFC0000000000FFF8
7FFE0000000001FFF8
3FFE0000000001FFF0
3FFE0000000001FFF0
3FFF0000000003FFF0
3FFF0000000003FFE0
1FFF8000000007FFE0
1FFF8000000007FFE0
0FFFC00000000FFFC0
0FFFE00000001FFFC0
07FFF00000003FFF80
07FFF80000007FFF80
03FFFC000000FFFF00
03FFFE000001FFFF00
01FFFF800007FFFE00
00FFFFF0003FFFFC00
00FFFFFFEFFFFFF800
007FFFFFFFFFFFF800
003FFFFFFFFFFFF000
001FFFFFFFFFFFE000
000FFFFFFFFFFF8000
0003FFFFFFFFFF0000
0001FFFFFFFFFE0000
00007FFFFFFFF80000
00001FFFFFFFE00000
000007FFFFFF800000
000000FFFFFC000000
00000007FFC0000000
ENDCHAR
STARTCHAR 00D3
ENCODING 211
SWIDTH 749 0
DWIDTH 76 0
BBX 70 102 3 -2
BITMAP
0000000003FF000000
0000000003FE000000
0000000003FE000000
0000000007FC000000
0000000007FC000000
000000000FFC000000
000000000FF8000000
000000001FF8000000
000000001FF0000000
000000001FF0000000
000000003FF0000000
000000003FE0000000
000000007FE0000000
000000007FC0000000
000000007FC0000000
00000000FF80000000
00000000FF80000000
00000001FF80000000
00000001FF00000000
000000000000000000
000000000000000000
000000000000000000
000000000000000000
000000000000000000
000000000000000000
0000000FFF80000000
000000FFFFFC000000
000007FFFFFF800000
00001FFFFFFFE00000
00007FFFFFFFF80000
0001FFFFFFFFFE0000
0003FFFFFFFFFF0000
000FFFFFFFFFFF8000
001FFFFFFFFFFFE000
003FFFFFFFFFFFF000
007FFFFFFFFFFFF800
00FFFFFFFFFFFFF800
00FFFFF0003FFFFC00
01FFFF80000FFFFE00
03FFFE000003FFFF00
03FFFC000000FFFF00
07FFF80000007FFF80
07FFF00000003FFF80
0FFFE00000001FFFC0
0FFFC00000000FFFC0
1FFF8000000007FFE0
1FFF8000000007FFE0
3FFF0000000003FFE0
3FFF0000000003FFF0
3FFE0000000001FFF0
3FFE0000000001FFF0
7FFE0000000001FFF8
7FFC0000000000FFF8
7FFC0000000000FFF8
7FFC0000000000FFF8
7FFC0000000000FFF8
FFF80000000000FFF8
FFF800000000007FFC
FFF800000000007FFC
FFF800000000007FFC
FFF800000000007FFC
FFF800000000007FFC
FFF800000000007FFC
FFF800000000007FFC
FFF800000000007FFC
FFF800000000007FFC
FFF800000000007FFC
FFF800000000007FFC
FFF800000000007FFC
FFF800000000007FFC
FFF80000000000FFF8
7FFC0000000000FFF8
7FFC0000000000FFF8
7FFC0000000000FFF8
7FFC0000000000FFF8
7FFE0000000001FFF8
3FFE0000000001FFF0
3FFE0000000001FFF0
3FFF0000000003FFF0
3FFF0000000003FFE0
1FFF8000000007FFE0
1FFF8000000007FFE0
0FFFC00000000FFFC0
0FFFE00000001FFFC0
07FFF00000003FFF80
07FFF80000007FFF80
03FFFC000000FFFF00
03FFFE000001FFFF00
01FFFF800007FFFE00
00FFFFF0003FFFFC00
00FFFFFFEFFFFFF800
007FFFFFFFFFFFF800
003FFFFFFFFFFFF000
001FFFFFFFFFFFE000
000FFFFFFFFFFF8000
0003FFFFFFFFFF0000
0001FFFFFFFFFE0000
00007FFFFFFFF80000
00001FFFFFFFE00000
000007FFFFFF800000
000000FFFFFC000000
00000007FFC0000000
ENDCHAR
STARTCHAR 00D4
ENCODING 212
SWIDTH 749 0
DWIDTH 76 0
BBX 70 99 3 -2
BITMAP
00000007FF00000000
0000000FFF80000000
0000001FFFC0000000
0000001FFFE0000000
0000003FFFF0000000
0000007FFFF8000000
000000FFFFFC000000
000001FFDFFC000000
000003FFCFFE000000
000007FF87FF000000
000007FF03FF800000
00000FFE01FFC00000
00001FFC01FFE00000
00003FF800FFF00000
00007FF0007FF80000
0000FFF0003FF80000
000000000000000000
000000000000000000
000000000000000000
000000000000000000
000000000000000000
000000000000000000
0000000FFF80000000
000000FFFFFC000000
000007FFFFFF800000
00001FFFFFFFE00000
00007FFFFFFFF80000
0001FFFFFFFFFE0000
0003FFFFFFFFFF0000
000FFFFFFFFFFF8000
001FFFFFFFFFFFE000
003FFFFFFFFFFFF000
007FFFFFFFFFFFF800
00FFFFFFFFFFFFF800
00FFFFF0003FFFFC00
01FFFF80000FFFFE00
03FFFE000003FFFF00
03FFFC000000FFFF00
07FFF80000007FFF80
07FFF00000003FFF80
0FFFE00000001FFFC0
0FFFC00000000FFFC0
1FFF8000000007FFE0
1FFF8000000007FFE0
3FFF0000000003FFE0
3FFF0000000003FFF0
3FFE0000000001FFF0
3FFE0000000001FFF0
7FFE0000000001FFF8
7FFC0000000000FFF8
7FFC0000000000FFF8
7FFC0000000000FFF8
7FFC0000000000FFF8
FFF80000000000FFF8
FFF800000000007FFC
FFF800000000007FFC
FFF800000000007FFC
FFF800000000007FFC
FFF800000000007FFC
FFF800000000007FFC
FFF800000000007FFC
FFF800000000007FFC
FFF800000000007FFC
FFF800000000007FFC
FFF800000000007FFC
FFF800000000007FFC
FFF800000000007FFC
FFF80000000000FFF8
7FFC0000000000FFF8
7FFC0000000000FFF8
7FFC0000000000FFF8
7FFC0000000000FFF8
7FFE0000000001FFF8
3FFE0000000001FFF0
3FFE0000000001FFF0
3FFF0000000003FFF0
3FFF0000000003FFE0
1FFF8000000007FFE0
1FFF8000000007FFE0
0FFFC00000000FFFC0
0FFFE00000001FFFC0
07FFF00000003FFF80
07FFF80000007FFF80
03FFFC000000FFFF00
03FFFE000001FFFF00
01FFFF800007FFFE00
00FFFFF0003FFFFC00
00FFFFFFEFFFFFF800
007FFFFFFFFFFFF800
003FFFFFFFFFFFF000
001FFFFFFFFFFFE000
000FFFFFFFFFFF8000
0003FFFFFFFFFF0000
0001FFFFFFFFFE0000
00007FFFFFFFF80000
00001FFFFFFFE00000
000007FFFFFF800000
000000FFFFFC000000
00000007FFC0000000
ENDCHAR
STARTCHAR 00D5
ENCODING 213
SWIDTH 749 0
DWIDTH 76 0
BBX 70 100 3 -2
BITMAP
000000FC0000000000
000003FF0007F80000
000007FFC007F80000
00000FFFF007F80000
00001FFFF807F80000
00001FFFFE07F80000
00003FFFFF87F80000
00003FFFFFFFF80000
00003FFFFFFFF80000
00003FE3FFFFF80000
00003FC0FFFFF80000
00003FC03FFFF00000
00003FC01FFFF00000
00003FC007FFE00000
00003FC001FFC00000
00000000007F000000
000000000000000000
000000000000000000
000000000000000000
000000000000000000
000000000000000000
000000000000000000
000000000000000000
0000000FFF80000000
000000FFFFFC000000
000007FFFFFF800000
00001FFFFFFFE00000
00007FFFFFFFF80000
0001FFFFFFFFFE0000
0003FFFFFFFFFF0000
000FFFFFFFFFFF8000
001FFFFFFFFFFFE000
003FFFFFFFFFFFF000
007FFFFFFFFFFFF800
00FFFFFFFFFFFFF800
00FFFFF0003FFFFC00
01FFFF80000FFFFE00
03FFFE000003FFFF00
03FFFC000000FFFF00
07FFF80000007FFF80
07FFF00000003FFF80
0FFFE00000001FFFC0
0FFFC00000000FFFC0
1FFF8000000007FFE0
1FFF8000000007FFE0
3FFF0000000003FFE0
3FFF0000000003FFF0
3FFE0000000001FFF0
3FFE0000000001FFF0
7FFE0000000001FFF8
7FFC0000000000FFF8
7FFC0000000000FFF8
7FFC0000000000FFF8
7FFC0000000000FFF8
FFF80000000000FFF8
FFF800000000007FFC
FFF800000000007FFC
FFF800000000007FFC
FFF800000000007FFC
FFF800000000007FFC
FFF800000000007FFC
FFF800000000007FFC
FFF800000000007FFC
FFF800000000007FFC
FFF800000000007FFC
FFF800000000007FFC
FFF800000000007FFC
FFF800000000007FFC
FFF80000000000FFF8
7FFC0000000000FFF8
7FFC0000000000FFF8
7FFC0000000000FFF8
7FFC0000000000FFF8
7FFE0000000001FFF8
3FFE0000000001FFF0
3FFE0000000001FFF0
3FFF0000000003FFF0
3FFF0000000003FFE0
1FFF8000000007FFE0
1FFF8000000007FFE0
0FFFC00000000FFFC0
0FFFE00000001FFFC0
07FFF00000003FFF80
07FFF80000007FFF80
03FFFC000000FFFF00
03FFFE000001FFFF00
01FFFF800007FFFE00
00FFFFF0003FFFFC00
00FFFFFFEFFFFFF800
007FFFFFFFFFFFF800
003FFFFFFFFFFFF000
001FFFFFFFFFFFE000
000FFFFFFFFFFF8000
0003FFFFFFFFFF0000
0001FFFFFFFFFE0000
00007FFFFFFFF80000
00001FFFFFFFE00000
000007FFFFFF800000
000000FFFFFC000000
00000007FFC0000000
ENDCHAR
STARTCHAR 00D6
ENCODING 214
SWIDTH 749 0
DWIDTH 76 0
BBX 70 95 3 -2
BITMAP
00001FFC00FFE00000
00001FFC00FFE00000
00001FFC00FFE00000
00001FFC00FFE00000
00001FFC00FFE00000
00001FFC00FFE00000
00001FFC00FFE00000
00001FFC00FFE00000
00001FFC00FFE00000
00001FFC00FFE00000
00001FFC00FFE00000
000000000000000000
000000000000000000
000000000000000000
000000000000000000
000000000000000000
000000000000000000
000000000000000000
0000000FFF80000000
000000FFFFFC000000
000007FFFFFF800000
00001FFFFFFFE00000
00007FFFFFFFF80000
0001FFFFFFFFFE0000
0003FFFFFFFFFF0000
000FFFFFFFFFFF8000
001FFFFFFFFFFFE000
003FFFFFFFFFFFF000
007FFFFFFFFFFFF800
00FFFFFFFFFFFFF800
00FFFFF0003FFFFC00
01FFFF80000FFFFE00
03FFFE000003FFFF00
03FFFC000000FFFF00
07FFF80000007FFF80
07FFF00000003FFF80
0FFFE00000001FFFC0
0FFFC00000000FFFC0
1FFF8000000007FFE0
1FFF8000000007FFE0
3FFF0000000003FFE0
3FFF0000000003FFF0
3FFE0000000001FFF0
3FFE0000000001FFF0
7FFE0000000001FFF8
7FFC0000000000FFF8
7FFC0000000000FFF8
7FFC0000000000FFF8
7FFC0000000000FFF8
FFF80000000000FFF8
FFF800000000007FFC
FFF800000000007FFC
FFF800000000007FFC
FFF800000000007FFC
FFF800000000007FFC
FFF800000000007FFC
FFF800000000007FFC
FFF800000000007FFC
FFF800000000007FFC
FFF800000000007FFC
FFF800000000007FFC
FFF800000000007FFC
FFF800000000007FFC
FFF80000000000FFF8
7FFC0000000000FFF8
7FFC0000000000FFF8
7FFC0000000000FFF8
7FFC0000000000FFF8
7FFE0000000001FFF8
3FFE0000000001FFF0
3FFE0000000001FFF0
3FFF0000000003FFF0
3FFF0000000003FFE0
1FFF8000000007FFE0
1FFF8000000007FFE0
0FFFC00000000FFFC0
0FFFE00000001FFFC0
07FFF00000003FFF80
07FFF80000007FFF80
03FFFC000000FFFF00
03FFFE000001FFFF00
01FFFF800007FFFE00
00FFFFF0003FFFFC00
00FFFFFFEFFFFFF800
007FFFFFFFFFFFF800
003FFFFFFFFFFFF000
001FFFFFFFFFFFE000
000FFFFFFFFFFF8000
0003FFFFFFFFFF0000
0001FFFFFFFFFE0000
00007FFFFFFFF80000
00001FFFFFFFE00000
000007FFFFFF800000
000000FFFFFC000000
00000007FFC0000000
ENDCHAR
STARTCHAR 00D7
ENCODING 215
SWIDTH 503 0
DWIDTH 51 0
BBX 39 39 6 17
BITMAP
0200000080
07000001C0
0F800003E0
1FC00007F0
3FE0000FF8
7FF0001FFC
FFF8003FFE
7FFC007FFE
3FFE00FFFC
1FFF01FFF8
0FFF83FFF0
07FFC7FFE0
03FFEFFFC0
01FFFFFF80
00FFFFFF00
007FFFFE00
003FFFFC00
001FFFF800
000FFFF000
0007FFE000
000FFFE000
001FFFF000
003FFFF800
007FFFFC00
00FFFFFE00
01FFFFFF00
03FFFFFF80
07FFE7FFC0
0FFFC3FFE0
1FFF81FFF0
3FFF00FFF8
7FFE007FFC
FFFC003FFE
7FF8001FFC
3FF0000FF8
1FE00007F0
0FC00003E0
07800001C0
0300000080
ENDCHAR
STARTCHAR 00D8
ENCODING 216
SWIDTH 749 0
DWIDTH 76 0
BBX 70 77 3 -2
BITMAP
0000000FFF80000000
000000FFFFFC000400
000007FFFFFF800E00
00001FFFFFFFE00F80
00007FFFFFFFF01FC0
0001FFFFFFFFFC3FE0
0003FFFFFFFFFE7FF0
000FFFFFFFFFFFFFF8
001FFFFFFFFFFFFFFC
003FFFFFFFFFFFFFFC
007FFFFFFFFFFFFFF8
00FFFFFFFFFFFFFFF0
00FFFFF0003FFFFFE0
01FFFF800007FFFFC0
03FFFE000003FFFF80
03FFFC000000FFFF00
07FFF8000000FFFF00
07FFF0000001FFFF80
0FFFE0000003FFFF80
0FFFC0000007FFFFC0
1FFF8000000FFFFFC0
1FFF8000001FFFFFE0
3FFF0000003FFFFFE0
3FFF0000007FFFFFF0
3FFE0000007FFFFFF0
3FFE000000FFFFFFF0
7FFE000001FFFDFFF0
7FFC000003FFF8FFF8
7FFC000007FFF0FFF8
7FFC00000FFFE0FFF8
7FFC00001FFFC0FFF8
FFF800003FFF80FFF8
FFF800003FFF007FFC
FFF800007FFF007FFC
FFF80000FFFE007FFC
FFF80001FFFC007FFC
FFF80003FFF8007FFC
FFF80007FFF0007FFC
FFF8000FFFE0007FFC
FFF8001FFFC0007FFC
FFF8001FFF80007FFC
FFF8003FFF80007FFC
FFF8007FFF00007FFC
FFF800FFFE00007FFC
FFF801FFFC00007FFC
FFF803FFF80000FFFC
7FFC07FFF00000FFF8
7FFC0FFFE00000FFF8
7FFC1FFFC00000FFF8
7FFC1FFFC00000FFF8
7FFE3FFF800001FFF8
3FFE7FFF000001FFF0
3FFEFFFE000001FFF0
3FFFFFFC000003FFF0
3FFFFFF8000003FFF0
1FFFFFF0000007FFE0
1FFFFFE0000007FFE0
0FFFFFE000000FFFC0
0FFFFFC000001FFFC0
07FFFF8000003FFF80
07FFFF0000007FFF80
03FFFE000000FFFF00
03FFFE000001FFFF00
03FFFF800007FFFE00
07FFFFF0003FFFFC00
0FFFFFFFEFFFFFFC00
1FFFFFFFFFFFFFF800
1FFFFFFFFFFFFFF000
3FFFFFFFFFFFFFE000
7FFFFFFFFFFFFFC000
1FFFFFFFFFFFFF0000
0FFCFFFFFFFFFE0000
07F87FFFFFFFF80000
01F01FFFFFFFE00000
00E007FFFFFF800000
004000FFFFFC000000
00000007FFC0000000
ENDCHAR
STARTCHAR 00D9
ENCODING 217
SWIDTH 720 0
DWIDTH 73 0
BBX 59 102 7 -2
BITMAP
00003FE000000000
00003FF000000000
00001FF000000000
00001FF800000000
00000FF800000000
00000FF800000000
00000FFC00000000
000007FC00000000
000007FE00000000
000003FE00000000
000003FE00000000
000001FF00000000
000001FF00000000
000001FF80000000
000000FF80000000
000000FFC0000000
0000007FC0000000
0000007FC0000000
0000007FE0000000
0000000000000000
0000000000000000
0000000000000000
0000000000000000
0000000000000000
0000000000000000
0000000000000000
0000000000000000
FFF000000001FFE0
FFF000000001FFE0
FFF000000001FFE0
FFF000000001FFE0
FFF000000001FFE0
FFF000000001FFE0
FFF000000001FFE0
FFF000000001FFE0
FFF000000001FFE0
FFF000000001FFE0
FFF000000001FFE0
FFF000000001FFE0
FFF000000001FFE0
FFF000000001FFE0
FFF000000001FFE0
FFF000000001FFE0
FFF000000001FFE0
FFF000000001FFE0
FFF000000001FFE0
FFF000000001FFE0
FFF000000001FFE0
FFF000000001FFE0
FFF000000001FFE0
FFF000000001FFE0
FFF000000001FFE0
FFF000000001FFE0
FFF000000001FFE0
FFF000000001FFE0
FFF000000001FFE0
FFF000000001FFE0
FFF000000001FFE0
FFF000000001FFE0
FFF000000001FFE0
FFF000000001FFE0
FFF000000001FFE0
FFF000000001FFE0
FFF000000001FFE0
FFF000000001FFE0
FFF000000001FFE0
FFF000000001FFE0
FFF000000001FFE0
FFF000000001FFE0
FFF000000001FFE0
FFF000000001FFE0
FFF000000001FFE0
FFF000000001FFE0
FFF000000003FFE0
FFF800000003FFE0
FFF800000003FFE0
FFF800000003FFE0
FFF800000003FFE0
FFF800000003FFC0
7FFC00000007FFC0
7FFC00000007FFC0
7FFC00000007FFC0
7FFE0000000FFFC0
3FFF0000001FFF80
3FFF0000001FFF80
3FFF8000003FFF80
1FFFC000007FFF00
1FFFF00001FFFF00
0FFFF80003FFFE00
0FFFFF001FFFFE00
07FFFFFFFFFFFC00
03FFFFFFFFFFF800
01FFFFFFFFFFF000
00FFFFFFFFFFE000
007FFFFFFFFFC000
003FFFFFFFFF8000
001FFFFFFFFF0000
000FFFFFFFFC0000
0003FFFFFFF80000
0000FFFFFFE00000
00001FFFFF000000
000001FFF0000000
ENDCHAR
STARTCHAR 00DA
ENCODING 218
SWIDTH 720 0
DWIDTH 73 0
BBX 59 102 7 -2
BITMAP
00000000FFC00000
00000000FF800000
00000001FF800000
00000001FF000000
00000001FF000000
00000003FF000000
00000003FE000000
00000007FE000000
00000007FC000000
00000007FC000000
0000000FF8000000
0000000FF8000000
0000001FF8000000
0000001FF0000000
0000001FF0000000
0000003FE0000000
0000003FE0000000
0000007FE0000000
0000007FC0000000
0000000000000000
0000000000000000
0000000000000000
0000000000000000
0000000000000000
0000000000000000
0000000000000000
0000000000000000
FFF000000001FFE0
FFF000000001FFE0
FFF000000001FFE0
FFF000000001FFE0
FFF000000001FFE0
FFF000000001FFE0
FFF000000001FFE0
FFF000000001FFE0
FFF000000001FFE0
FFF000000001FFE0
FFF000000001FFE0
FFF000000001FFE0
FFF000000001FFE0
FFF000000001FFE0
FFF000000001FFE0
FFF000000001FFE0
FFF000000001FFE0
FFF000000001FFE0
FFF000000001FFE0
FFF000000001FFE0
FFF000000001FFE0
FFF000000001FFE0
FFF000000001FFE0
FFF000000001FFE0
FFF000000001FFE0
FFF000000001FFE0
FFF000000001FFE0
FFF000000001FFE0
FFF000000001FFE0
FFF000000001FFE0
FFF000000001FFE0
FFF000000001FFE0
FFF000000001FFE0
FFF000000001FFE0
FFF000000001FFE0
FFF000000001FFE0
FFF000000001FFE0
FFF000000001FFE0
FFF000000001FFE0
FFF000000001FFE0
FFF000000001FFE0
FFF000000001FFE0
FFF000000001FFE0
FFF000000001FFE0
FFF000000001FFE0
FFF000000001FFE0
FFF000000003FFE0
FFF800000003FFE0
FFF800000003FFE0
FFF800000003FFE0
FFF800000003FFE0
FFF800000003FFC0
7FFC00000007FFC0
7FFC00000007FFC0
7FFC00000007FFC0
7FFE0000000FFFC0
3FFF0000001FFF80
3FFF0000001FFF80
3FFF8000003FFF80
1FFFC000007FFF00
1FFFF00001FFFF00
0FFFF80003FFFE00
0FFFFF001FFFFE00
07FFFFFFFFFFFC00
03FFFFFFFFFFF800
01FFFFFFFFFFF000
00FFFFFFFFFFE000
007FFFFFFFFFC000
003FFFFFFFFF8000
001FFFFFFFFF0000
000FFFFFFFFC0000
0003FFFFFFF80000
0000FFFFFFE00000
00001FFFFF000000
000001FFF0000000
ENDCHAR
STARTCHAR 00DB
ENCODING 219
SWIDTH 720 0
DWIDTH 73 0
BBX 59 99 7 -2
BITMAP
000000FFE0000000
000001FFF0000000
000003FFF8000000
000007FFF8000000
00000FFFFC000000
00001FFFFE000000
00001FFFFF000000
00003FFBFF800000
00007FF1FFC00000
0000FFE1FFE00000
0001FFC0FFF00000
0003FFC07FF00000
0007FF803FF80000
000FFF001FFC0000
000FFE000FFE0000
001FFC000FFF0000
0000000000000000
0000000000000000
0000000000000000
0000000000000000
0000000000000000
0000000000000000
0000000000000000
0000000000000000
FFF000000001FFE0
FFF000000001FFE0
FFF000000001FFE0
FFF000000001FFE0
FFF000000001FFE0
FFF000000001FFE0
FFF000000001FFE0
FFF000000001FFE0
FFF000000001FFE0
FFF000000001FFE0
FFF000000001FFE0
FFF000000001FFE0
FFF000000001FFE0
FFF000000001FFE0
FFF000000001FFE0
FFF000000001FFE0
FFF000000001FFE0
FFF000000001FFE0
FFF000000001FFE0
FFF000000001FFE0
FFF000000001FFE0
FFF000000001FFE0
FFF000000001FFE0
FFF000000001FFE0
FFF000000001FFE0
FFF000000001FFE0
FFF000000001FFE0
FFF000000001FFE0
FFF000000001FFE0
FFF000000001FFE0
FFF000000001FFE0
FFF000000001FFE0
FFF000000001FFE0
FFF000000001FFE0
FFF000000001FFE0
FFF000000001FFE0
FFF000000001FFE0
FFF000000001FFE0
FFF000000001FFE0
FFF000000001FFE0
FFF000000001FFE0
FFF000000001FFE0
FFF000000001FFE0
FFF000000001FFE0
FFF000000001FFE0
FFF000000001FFE0
FFF000000003FFE0
FFF800000003FFE0
FFF800000003FFE0
FFF800000003FFE0
FFF800000003FFE0
FFF800000003FFC0
7FFC00000007FFC0
7FFC00000007FFC0
7FFC00000007FFC0
7FFE0000000FFFC0
3FFF0000001FFF80
3FFF0000001FFF80
3FFF8000003FFF80
1FFFC000007FFF00
1FFFF00001FFFF00
0FFFF80003FFFE00
0FFFFF001FFFFE00
07FFFFFFFFFFFC00
03FFFFFFFFFFF800
01FFFFFFFFFFF000
00FFFFFFFFFFE000
007FFFFFFFFFC000
003FFFFFFFFF8000
001FFFFFFFFF0000
000FFFFFFFFC0000
0003FFFFFFF80000
0000FFFFFFE00000
00001FFFFF000000
000001FFF0000000
ENDCHAR
STARTCHAR 00DC
ENCODING 220
SWIDTH 720 0
DWIDTH 73 0
BBX 59 95 7 -2
BITMAP
0007FF803FFC0000
0007FF803FFC0000
0007FF803FFC0000
0007FF803FFC0000
0007FF803FFC0000
0007FF803FFC0000
0007FF803FFC0000
0007FF803FFC0000
0007FF803FFC0000
0007FF803FFC0000
0007FF803FFC0000
0000000000000000
0000000000000000
0000000000000000
0000000000000000
0000000000000000
0000000000000000
0000000000000000
0000000000000000
0000000000000000
FFF000000001FFE0
FFF000000001FFE0
FFF000000001FFE0
FFF000000001FFE0
FFF000000001FFE0
FFF000000001FFE0
FFF000000001FFE0
FFF000000001FFE0
FFF000000001FFE0
FFF000000001FFE0
FFF000000001FFE0
FFF000000001FFE0
FFF000000001FFE0
FFF000000001FFE0
FFF000000001FFE0
FFF000000001FFE0
FFF000000001FFE0
FFF000000001FFE0
FFF000000001FFE0
FFF000000001FFE0
FFF000000001FFE0
FFF000000001FFE0
FFF000000001FFE0
FFF000000001FFE0
FFF000000001FFE0
FFF000000001FFE0
FFF000000001FFE0
FFF000000001FFE0
FFF000000001FFE0
FFF000000001FFE0
FFF000000001FFE0
FFF000000001FFE0
FFF000000001FFE0
FFF000000001FFE0
FFF000000001FFE0
FFF000000001FFE0
FFF000000001FFE0
FFF000000001FFE0
FFF000000001FFE0
FFF000000001FFE0
FFF000000001FFE0
FFF000000001FFE0
FFF000000001FFE0
FFF000000001FFE0
FFF000000001FFE0
FFF000000001FFE0
FFF000000003FFE0
FFF800000003FFE0
FFF800000003FFE0
FFF800000003FFE0
FFF800000003FFE0
FFF800000003FFC0
7FFC00000007FFC0
7FFC00000007FFC0
7FFC00000007FFC0
7FFE0000000FFFC0
3FFF0000001FFF80
3FFF0000001FFF80
3FFF8000003FFF80
1FFFC000007FFF00
1FFFF00001FFFF00
0FFFF80003FFFE00
0FFFFF001FFFFE00
07FFFFFFFFFFFC00
03FFFFFFFFFFF800
01FFFFFFFFFFF000
00FFFFFFFFFFE000
007FFFFFFFFFC000
003FFFFFFFFF8000
001FFFFFFFFF0000
000FFFFFFFFC0000
0003FFFFFFF80000
0000FFFFFFE00000
00001FFFFF000000
000001FFF0000000
ENDCHAR
STARTCHAR 00DD
ENCODING 221
SWIDTH 611 0
DWIDTH 62 0
BBX 62 100 0 0
BITMAP
000000003FE00000
000000007FE00000
000000007FC00000
000000007FC00000
00000000FF800000
00000000FF800000
00000001FF800000
00000001FF000000
00000001FF000000
00000003FE000000
00000003FE000000
00000007FE000000
00000007FC000000
0000000FFC000000
0000000FF8000000
0000000FF8000000
0000001FF0000000
0000001FF0000000
0000003FF0000000
0000000000000000
0000000000000000
0000000000000000
0000000000000000
0000000000000000
0000000000000000
0000000000000000
0000000000000000
FFFE00000001FFFC
7FFE00000001FFF8
7FFF00000003FFF8
3FFF00000003FFF0
1FFF80000007FFE0
1FFF80000007FFE0
0FFFC000000FFFC0
0FFFE000001FFFC0
07FFE000001FFF80
07FFF000003FFF80
03FFF000003FFF00
01FFF800007FFE00
01FFF800007FFE00
00FFFC0000FFFC00
00FFFE0001FFFC00
007FFE0001FFF800
007FFF0003FFF800
003FFF0003FFF000
001FFF8007FFE000
001FFF8007FFE000
000FFFC00FFFC000
000FFFE01FFFC000
0007FFE01FFF8000
0003FFF03FFF0000
0003FFF03FFF0000
0001FFF87FFE0000
0001FFFC7FFE0000
0000FFFCFFFC0000
0000FFFFFFFC0000
00007FFFFFF80000
00003FFFFFF00000
00003FFFFFF00000
00001FFFFFE00000
00001FFFFFE00000
00000FFFFFC00000
00000FFFFFC00000
000007FFFF800000
000003FFFF000000
000003FFFF000000
000001FFFE000000
000001FFFE000000
000000FFFC000000
000000FFFC000000
0000007FF8000000
0000007FF8000000
0000007FF8000000
0000007FF8000000
0000007FF8000000
0000007FF8000000
0000007FF8000000
0000007FF8000000
0000007FF8000000
0000007FF8000000
0000007FF8000000
0000007FF8000000
0000007FF8000000
0000007FF8000000
0000007FF8000000
0000007FF8000000
0000007FF8000000
0000007FF8000000
0000007FF8000000
0000007FF8000000
0000007FF8000000
0000007FF8000000
0000007FF8000000
0000007FF8000000
0000007FF8000000
0000007FF8000000
0000007FF8000000
0000007FF8000000
0000007FF8000000
0000007FF8000000
ENDCHAR
STARTCHAR 00DE
ENCODING 222
SWIDTH 631 0
DWIDTH 64 0
BBX 54 73 7 0
BITMAP
FFF00000000000
FFF00000000000
FFF00000000000
FFF00000000000
FFF00000000000
FFF00000000000
FFF00000000000
FFF00000000000
FFF00000000000
FFF00000000000
FFF00000000000
FFF00000000000
FFF00000000000
FFFFFFFFC00000
FFFFFFFFFC0000
FFFFFFFFFF0000
FFFFFFFFFFC000
FFFFFFFFFFF000
FFFFFFFFFFF800
FFFFFFFFFFFC00
FFFFFFFFFFFE00
FFFFFFFFFFFF00
FFFFFFFFFFFF80
FFFFFFFFFFFFC0
FFFFFFFFFFFFC0
FFF000003FFFE0
FFF000000FFFE0
FFF0000007FFF0
FFF0000003FFF0
FFF0000001FFF8
FFF0000000FFF8
FFF0000000FFF8
FFF00000007FF8
FFF00000007FFC
FFF00000007FFC
FFF00000007FFC
FFF00000007FFC
FFF00000007FFC
FFF00000007FFC
FFF00000007FFC
FFF00000007FF8
FFF0000000FFF8
FFF0000000FFF8
FFF0000001FFF8
FFF0000003FFF0
FFF0000007FFF0
FFF000000FFFE0
FFF000003FFFE0
FFF00003FFFFC0
FFFFFFFFFFFFC0
FFFFFFFFFFFF80
FFFFFFFFFFFF00
FFFFFFFFFFFE00
FFFFFFFFFFFC00
FFFFFFFFFFF800
FFFFFFFFFFF000
FFFFFFFFFFC000
FFFFFFFFFF8000
FFFFFFFFFC0000
FFFFFFFFE00000
FFF00000000000
FFF00000000000
FFF00000000000
FFF00000000000
FFF00000000000
FFF00000000000
FFF00000000000
FFF00000000000
FFF00000000000
FFF00000000000
FFF00000000000
FFF00000000000
FFF00000000000
ENDCHAR
STARTCHAR 00DF
ENCODING 223
SWIDTH 631 0
DWIDTH 64 0
BBX 51 77 7 -2
BITMAP
00007FF0000000
0007FFFE000000
001FFFFFC00000
007FFFFFE00000
01FFFFFFF80000
03FFFFFFFC0000
07FFFFFFFE0000
0FFFFFFFFF0000
1FFFFFFFFF8000
1FFFFFFFFFC000
3FFFFFFFFFC000
3FFFFDFFFFE000
7FFFC00FFFF000
7FFF0007FFF000
7FFE0003FFF000
FFFC0001FFF800
FFFC0000FFF800
FFF80000FFF800
FFF800007FF800
FFF800007FF800
FFF800007FF800
FFF000007FF800
FFF000007FF800
FFF000007FF800
FFF00000FFF800
FFF00000FFF800
FFF00001FFF800
FFF00001FFF000
FFF00003FFF000
FFF0000FFFE000
FFF0003FFFE000
FFF001FFFFC000
FFF001FFFF8000
FFF001FFFF8000
FFF001FFFE0000
FFF001FFFF8000
FFF001FFFFE000
FFF001FFFFF000
FFF001FFFFF800
FFF001FFFFFC00
FFF001FFFFFE00
FFF001FFFFFF00
FFF00007FFFF00
FFF00000FFFF80
FFF000003FFF80
FFF000000FFFC0
FFF0000007FFC0
FFF0000007FFC0
FFF0000003FFE0
FFF0000003FFE0
FFF0000001FFE0
FFF0000001FFE0
FFF0000001FFE0
FFF0000001FFE0
FFF0000001FFE0
FFF0000001FFE0
FFF0000001FFE0
FFF0000003FFE0
FFF0000003FFE0
FFF0000003FFE0
FFF0000007FFC0
FFF000000FFFC0
FFF000001FFFC0
FFF000007FFFC0
FFF03C01FFFF80
FFF03FFFFFFF80
FFF03FFFFFFF00
FFF03FFFFFFF00
FFF03FFFFFFE00
FFF03FFFFFFC00
FFF03FFFFFFC00
FFF03FFFFFF800
FFF03FFFFFE000
FFF03FFFFFC000
FFF03FFFFF0000
00001FFFFC0000
000003FFC00000
ENDCHAR
STARTCHAR 00E0
ENCODING 224
SWIDTH 572 0
DWIDTH 58 0
BBX 48 83 4 -2
BITMAP
0003FE000000
0003FE000000
0003FF000000
0001FF000000
0001FF800000
0000FF800000
0000FF800000
00007FC00000
00007FC00000
00007FE00000
00003FE00000
00003FF00000
00001FF00000
00001FF00000
00001FF80000
00000FF80000
00000FFC0000
000007FC0000
000007FC0000
000000000000
000000000000
000000000000
000000000000
000000000000
000000000000
00001FFE0000
0001FFFFF000
0007FFFFFC00
001FFFFFFF00
007FFFFFFF80
00FFFFFFFFE0
01FFFFFFFFF0
03FFFFFFFFF8
07FFFFFFFFF8
07FFFFFFFFFC
0FFFFFFFFFFC
0FFFFE07FFFE
1FFFE000FFFE
1FFF80007FFE
3FFF00003FFF
3FFE00001FFF
07FC00001FFF
00FC00000FFF
001800000FFF
000000000FFF
000000000FFF
00000000FFFF
0000007FFFFF
00000FFFFFFF
0001FFFFFFFF
000FFFFFFFFF
003FFFFFFFFF
00FFFFFFFFFF
03FFFFFFFFFF
07FFFFFFFFFF
0FFFFFFFFFFF
1FFFFFFF0FFF
3FFFFFC00FFF
3FFFF8000FFF
7FFFC0000FFF
7FFF00000FFF
7FFC00000FFF
FFF800001FFF
FFF800001FFF
FFF000001FFF
FFF000003FFF
FFF000003FFF
FFF000007FFF
FFF00000FFFF
FFF80001FFFF
FFF80003FFFF
7FFC000FFFFF
7FFF003FFFFF
7FFFFFFFFFFF
3FFFFFFFFBFF
1FFFFFFFFBFF
1FFFFFFFF3FF
0FFFFFFFE3FF
07FFFFFF83FF
03FFFFFF03FF
00FFFFFC03FF
003FFFF00000
0007FF000000
ENDCHAR
STARTCHAR 00E1
ENCODING 225
SWIDTH 572 0
DWIDTH 58 0
BBX 48 83 4 -2
BITMAP
00000007FC00
00000007FC00
0000000FFC00
0000000FF800
0000001FF800
0000001FF000
0000001FF000
0000003FF000
0000003FE000
0000007FE000
0000007FC000
0000007FC000
000000FF8000
000000FF8000
000001FF8000
000001FF0000
000003FF0000
000003FE0000
000003FE0000
000000000000
000000000000
000000000000
000000000000
000000000000
000000000000
00001FFE0000
0001FFFFF000
0007FFFFFC00
001FFFFFFF00
007FFFFFFF80
00FFFFFFFFE0
01FFFFFFFFF0
03FFFFFFFFF8
07FFFFFFFFF8
07FFFFFFFFFC
0FFFFFFFFFFC
0FFFFE07FFFE
1FFFE000FFFE
1FFF80007FFE
3FFF00003FFF
3FFE00001FFF
07FC00001FFF
00FC00000FFF
001800000FFF
000000000FFF
000000000FFF
00000000FFFF
0000007FFFFF
00000FFFFFFF
0001FFFFFFFF
000FFFFFFFFF
003FFFFFFFFF
00FFFFFFFFFF
03FFFFFFFFFF
07FFFFFFFFFF
0FFFFFFFFFFF
1FFFFFFF0FFF
3FFFFFC00FFF
3FFFF8000FFF
7FFFC0000FFF
7FFF00000FFF
7FFC00000FFF
FFF800001FFF
FFF800001FFF
FFF000001FFF
FFF000003FFF
FFF000003FFF
FFF000007FFF
FFF00000FFFF
FFF80001FFFF
FFF80003FFFF
7FFC000FFFFF
7FFF003FFFFF
7FFFFFFFFFFF
3FFFFFFFFBFF
1FFFFFFFFBFF
1FFFFFFFF3FF
0FFFFFFFE3FF
07FFFFFF83FF
03FFFFFF03FF
00FFFFFC03FF
003FFFF00000
0007FF000000
ENDCHAR
STARTCHAR 00E2
ENCODING 226
SWIDTH 572 0
DWIDTH 58 0
BBX 48 80 4 -2
BITMAP
00000FFE0000
00001FFF0000
00001FFF8000
00003FFFC000
00007FFFE000
0000FFFFF000
0001FFFFF800
0003FFBFFC00
0007FF9FFC00
000FFF0FFE00
000FFE07FF00
001FFC03FF80
003FF801FFC0
007FF001FFE0
00FFF000FFF0
01FFE0007FF0
000000000000
000000000000
000000000000
000000000000
000000000000
000000000000
00001FFE0000
0001FFFFF000
0007FFFFFC00
001FFFFFFF00
007FFFFFFF80
00FFFFFFFFE0
01FFFFFFFFF0
03FFFFFFFFF8
07FFFFFFFFF8
07FFFFFFFFFC
0FFFFFFFFFFC
0FFFFE07FFFE
1FFFE000FFFE
1FFF80007FFE
3FFF00003FFF
3FFE00001FFF
07FC00001FFF
00FC00000FFF
001800000FFF
000000000FFF
000000000FFF
00000000FFFF
0000007FFFFF
00000FFFFFFF
0001FFFFFFFF
000FFFFFFFFF
003FFFFFFFFF
00FFFFFFFFFF
03FFFFFFFFFF
07FFFFFFFFFF
0FFFFFFFFFFF
1FFFFFFF0FFF
3FFFFFC00FFF
3FFFF8000FFF
7FFFC0000FFF
7FFF00000FFF
7FFC00000FFF
FFF800001FFF
FFF800001FFF
FFF000001FFF
FFF000003FFF
FFF000003FFF
FFF000007FFF
FFF00000FFFF
FFF80001FFFF
FFF80003FFFF
7FFC000FFFFF
7FFF003FFFFF
7FFFFFFFFFFF
3FFFFFFFFBFF
1FFFFFFFFBFF
1FFFFFFFF3FF
0FFFFFFFE3FF
07FFFFFF83FF
03FFFFFF03FF
00FFFFFC03FF
003FFFF00000
0007FF000000
ENDCHAR
STARTCHAR 00E3
ENCODING 227
SWIDTH 572 0
DWIDTH 58 0
BBX 48 81 4 -2
BITMAP
0001F8000000
0007FE000FF0
000FFF8007F0
001FFFE007F0
003FFFF007F8
003FFFFC0FF8
007FFFFF0FF8
007FFFFFFFF8
007FFFFFFFF0
007FC7FFFFF0
007F81FFFFF0
007F807FFFE0
007F803FFFE0
007F800FFFC0
003F8003FF80
00000000FE00
000000000000
000000000000
000000000000
000000000000
000000000000
000000000000
000000000000
00001FFE0000
0001FFFFF000
0007FFFFFC00
001FFFFFFF00
007FFFFFFF80
00FFFFFFFFE0
01FFFFFFFFF0
03FFFFFFFFF8
07FFFFFFFFF8
07FFFFFFFFFC
0FFFFFFFFFFC
0FFFFE07FFFE
1FFFE000FFFE
1FFF80007FFE
3FFF00003FFF
3FFE00001FFF
07FC00001FFF
00FC00000FFF
001800000FFF
000000000FFF
000000000FFF
00000000FFFF
0000007FFFFF
00000FFFFFFF
0001FFFFFFFF
000FFFFFFFFF
003FFFFFFFFF
00FFFFFFFFFF
03FFFFFFFFFF
07FFFFFFFFFF
0FFFFFFFFFFF
1FFFFFFF0FFF
3FFFFFC00FFF
3FFFF8000FFF
7FFFC0000FFF
7FFF00000FFF
7FFC00000FFF
FFF800001FFF
FFF800001FFF
FFF000001FFF
FFF000003FFF
FFF000003FFF
FFF000007FFF
FFF00000FFFF
FFF80001FFFF
FFF80003FFFF
7FFC000FFFFF
7FFF003FFFFF
7FFFFFFFFFFF
3FFFFFFFFBFF
1FFFFFFFFBFF
1FFFFFFFF3FF
0FFFFFFFE3FF
07FFFFFF83FF
03FFFFFF03FF
00FFFFFC03FF
003FFFF00000
0007FF000000
ENDCHAR
STARTCHAR 00E4
ENCODING 228
SWIDTH 572 0
DWIDTH 58 0
BBX 48 76 4 -2
BITMAP
003FF801FFC0
003FF801FFC0
003FF801FFC0
003FF801FFC0
003FF801FFC0
003FF801FFC0
003FF801FFC0
003FF801FFC0
003FF801FFC0
003FF801FFC0
003FF801FFC0
000000000000
000000000000
000000000000
000000000000
000000000000
000000000000
000000000000
00001FFE0000
0001FFFFF000
0007FFFFFC00
001FFFFFFF00
007FFFFFFF80
00FFFFFFFFE0
01FFFFFFFFF0
03FFFFFFFFF8
07FFFFFFFFF8
07FFFFFFFFFC
0FFFFFFFFFFC
0FFFFE07FFFE
1FFFE000FFFE
1FFF80007FFE
3FFF00003FFF
3FFE00001FFF
07FC00001FFF
00FC00000FFF
001800000FFF
000000000FFF
000000000FFF
00000000FFFF
0000007FFFFF
00000FFFFFFF
0001FFFFFFFF
000FFFFFFFFF
003FFFFFFFFF
00FFFFFFFFFF
03FFFFFFFFFF
07FFFFFFFFFF
0FFFFFFFFFFF
1FFFFFFF0FFF
3FFFFFC00FFF
3FFFF8000FFF
7FFFC0000FFF
7FFF00000FFF
7FFC00000FFF
FFF800001FFF
FFF800001FFF
FFF000001FFF
FFF000003FFF
FFF000003FFF
FFF000007FFF
FFF00000FFFF
FFF80001FFFF
FFF80003FFFF
7FFC000FFFFF
7FFF003FFFFF
7FFFFFFFFFFF
3FFFFFFFFBFF
1FFFFFFFFBFF
1FFFFFFFF3FF
0FFFFFFFE3FF
07FFFFFF83FF
03FFFFFF03FF
00FFFFFC03FF
003FFFF00000
0007FF000000
ENDCHAR
STARTCHAR 00E5
ENCODING 229
SWIDTH 572 0
DWIDTH 58 0
BBX 48 88 4 -2
BITMAP
000003F80000
00000FFF0000
00003FFFC000
00007FFFE000
0000FFFFF000
0001FFFFF800
0001FFFFF800
0003FFFFFC00
0003FE07FC00
0007FC03FC00
0007F801FE00
0007F801FE00
0007F001FE00
0007F001FE00
0007F801FE00
0007F801FE00
0007FC03FC00
0003FE07FC00
0003FFFFFC00
0001FFFFF800
0001FFFFF800
0000FFFFF000
00007FFFE000
00003FFFC000
00000FFF0000
000003FC0000
000000000000
000000000000
000000000000
000000000000
00001FFE0000
0001FFFFF000
0007FFFFFC00
001FFFFFFF00
007FFFFFFF80
00FFFFFFFFE0
01FFFFFFFFF0
03FFFFFFFFF8
07FFFFFFFFF8
07FFFFFFFFFC
0FFFFFFFFFFC
0FFFFE07FFFE
1FFFE000FFFE
1FFF80007FFE
3FFF00003FFF
3FFE00001FFF
07FC00001FFF
00FC00000FFF
001800000FFF
000000000FFF
000000000FFF
00000000FFFF
0000007FFFFF
00000FFFFFFF
0001FFFFFFFF
000FFFFFFFFF
003FFFFFFFFF
00FFFFFFFFFF
03FFFFFFFFFF
07FFFFFFFFFF
0FFFFFFFFFFF
1FFFFFFF0FFF
3FFFFFC00FFF
3FFFF8000FFF
7FFFC0000FFF
7FFF00000FFF
7FFC00000FFF
FFF800001FFF
FFF800001FFF
FFF000001FFF
FFF000003FFF
FFF000003FFF
FFF000007FFF
FFF00000FFFF
FFF80001FFFF
FFF80003FFFF
7FFC000FFFFF
7FFF003FFFFF
7FFFFFFFFFFF
3FFFFFFFFBFF
1FFFFFFFFBFF
1FFFFFFFF3FF
0FFFFFFFE3FF
07FFFFFF83FF
03FFFFFF03FF
00FFFFFC03FF
003FFFF00000
0007FF000000
ENDCHAR
STARTCHAR 00E6
ENCODING 230
SWIDTH 936 0
DWIDTH 95 0
BBX 87 58 4 -2
BITMAP
00000FFE0000007FF00000
0000FFFFE00007FFFE0000
0003FFFFFC001FFFFFC000
000FFFFFFE007FFFFFE000
001FFFFFFF80FFFFFFF800
007FFFFFFFC3FFFFFFFC00
00FFFFFFFFE7FFFFFFFE00
01FFFFFFFFFFFFFFFFFF00
03FFFFFFFFFFFFFFFFFF80
07FFFFFFFFFFFFFFFFFFC0
07FFFFFFFFFFFFFFFFFFC0
0FFFFE0FFFFFFFC00FFFE0
1FFFE001FFFFFF0003FFE0
1FFF80007FFFFC0001FFF0
3FFF00003FFFF80000FFF0
3FFE00003FFFF000007FF8
07FC00001FFFF000007FF8
007C00001FFFE000003FF8
000800000FFFE000003FF8
000000000FFFC000003FFC
000000000FFFC000003FFC
000000000FFFC000001FFC
000000000FFFC000001FFC
00000001FFFFFFFFFFFFFC
000007FFFFFFFFFFFFFFFE
0000FFFFFFFFFFFFFFFFFE
000FFFFFFFFFFFFFFFFFFE
003FFFFFFFFFFFFFFFFFFE
00FFFFFFFFFFFFFFFFFFFE
03FFFFFFFFFFFFFFFFFFFE
07FFFFFFFFFFFFFFFFFFFE
0FFFFFFFFFFFFFFFFFFFFE
1FFFFFE00FFFFFFFFFFFFE
3FFFF8000FFF8000000000
3FFFC0000FFF8000000000
7FFF00000FFFC000000000
7FFC00000FFFC000000000
7FF800000FFFC000000000
FFF800001FFFE000000000
FFF000001FFFE000003800
FFF000001FFFF000003F00
FFF000003FFFF000007FE0
FFF000007FFFF80000FFFC
FFF00000FFFFFC0001FFFC
FFF80001FFFFFE0003FFF8
FFF80003FFFFFF800FFFF8
7FFC000FFFFFFFFDFFFFF0
7FFF003FFFBFFFFFFFFFE0
7FFFFFFFFF1FFFFFFFFFE0
3FFFFFFFFE1FFFFFFFFFC0
3FFFFFFFFC0FFFFFFFFF80
1FFFFFFFF807FFFFFFFF00
0FFFFFFFF001FFFFFFFE00
07FFFFFFE000FFFFFFF800
03FFFFFF80003FFFFFF000
00FFFFFF00001FFFFFC000
003FFFF8000003FFFF0000
0007FF800000003FF00000
ENDCHAR
STARTCHAR 00E7
ENCODING 231
SWIDTH 572 0
DWIDTH 58 0
BBX 51 80 4 -24
BITMAP
000007FF800000
00007FFFF00000
0001FFFFFE0000
0007FFFFFF8000
001FFFFFFFE000
003FFFFFFFF000
007FFFFFFFF800
00FFFFFFFFFC00
01FFFFFFFFFE00
03FFFFFFFFFF00
07FFFFFFFFFF00
07FFFFFFFFFF80
0FFFF800FFFF80
0FFFE0003FFFC0
1FFFC0001FFFC0
1FFF80000FFFE0
3FFF000007FFE0
3FFF000003FFE0
7FFE000003FE00
7FFE000001F000
7FFC0000010000
7FFC0000000000
7FFC0000000000
FFF80000000000
FFF80000000000
FFF80000000000
FFF80000000000
FFF80000000000
FFF80000000000
FFF80000000000
FFF80000000000
FFF80000000000
FFF80000000000
FFF80000000000
FFFC0000000000
7FFC0000000000
7FFC0000000000
7FFC0000010000
7FFE000003F000
3FFE000003FF80
3FFF000007FFE0
3FFF800007FFE0
1FFFC0000FFFC0
1FFFE0001FFFC0
0FFFF8007FFF80
0FFFFE03FFFF80
07FFFFFFFFFF00
03FFFFFFFFFF00
01FFFFFFFFFE00
00FFFFFFFFFC00
007FFFFFFFF800
003FFFFFFFF000
001FFFFFFFE000
000FFFFFFF8000
0003FFFFFF0000
00007FFFF80000
00000FFFC00000
000001FC000000
000001FC000000
000003FC000000
000003FE000000
000003FF000000
000007FF800000
000007FFC00000
000007FFE00000
000000FFE00000
0000003FE00000
0000001FF00000
0000001FF00000
0000001FF00000
0000001FF00000
0000067FF00000
00000FFFE00000
00000FFFE00000
00001FFFC00000
00001FFFC00000
00001FFF800000
00003FFF000000
00001FFE000000
000007F0000000
ENDCHAR
STARTCHAR 00E8
ENCODING 232
SWIDTH 601 0
DWIDTH 61 0
BBX 53 83 4 -2
BITMAP
0001FF00000000
0000FF80000000
0000FF80000000
0000FFC0000000
00007FC0000000
00007FE0000000
00003FE0000000
00003FE0000000
00003FF0000000
00001FF0000000
00001FF8000000
00000FF8000000
00000FF8000000
000007FC000000
000007FC000000
000007FE000000
000003FE000000
000003FF000000
000001FF000000
00000000000000
00000000000000
00000000000000
00000000000000
00000000000000
00000000000000
000003FF800000
00003FFFF80000
0001FFFFFE0000
0007FFFFFF8000
000FFFFFFFC000
003FFFFFFFF000
007FFFFFFFF800
00FFFFFFFFFC00
01FFFFFFFFFE00
03FFFFFFFFFE00
03FFFFFFFFFF00
07FFFC007FFF80
0FFFF0001FFF80
0FFFC0000FFFC0
1FFF800007FFC0
1FFF000003FFE0
3FFF000001FFE0
3FFE000001FFE0
3FFE000001FFF0
7FFC000000FFF0
7FFC000000FFF0
7FFC000000FFF0
7FF8000000FFF0
FFFFFFFFFFFFF8
FFFFFFFFFFFFF8
FFFFFFFFFFFFF8
FFFFFFFFFFFFF8
FFFFFFFFFFFFF8
FFFFFFFFFFFFF8
FFFFFFFFFFFFF8
FFFFFFFFFFFFF8
FFFFFFFFFFFFF8
FFF80000000000
FFF80000000000
FFF80000000000
7FFC0000000000
7FFC0000000000
7FFC0000000000
7FFE0000000000
3FFE000000E000
3FFF000001FC00
3FFF000003FFC0
1FFF800007FFF0
1FFFC0000FFFF0
0FFFE0001FFFE0
0FFFF8007FFFE0
07FFFFEFFFFFC0
03FFFFFFFFFF80
03FFFFFFFFFF00
01FFFFFFFFFF00
00FFFFFFFFFE00
007FFFFFFFFC00
001FFFFFFFF000
000FFFFFFFE000
0003FFFFFFC000
0000FFFFFF0000
00003FFFF80000
000003FFC00000
ENDCHAR
STARTCHAR 00E9
ENCODING 233
SWIDTH 601 0
DWIDTH 61 0
BBX 53 83 4 -2
BITMAP
00000001FF8000
00000001FF0000
00000003FF0000
00000003FE0000
00000003FE0000
00000007FE0000
00000007FC0000
0000000FFC0000
0000000FF80000
0000000FF80000
0000001FF00000
0000001FF00000
0000003FF00000
0000003FE00000
0000007FE00000
0000007FC00000
0000007FC00000
000000FFC00000
000000FF800000
00000000000000
00000000000000
00000000000000
00000000000000
00000000000000
00000000000000
000003FF800000
00003FFFF80000
0001FFFFFE0000
0007FFFFFF8000
000FFFFFFFC000
003FFFFFFFF000
007FFFFFFFF800
00FFFFFFFFFC00
01FFFFFFFFFE00
03FFFFFFFFFE00
03FFFFFFFFFF00
07FFFC007FFF80
0FFFF0001FFF80
0FFFC0000FFFC0
1FFF800007FFC0
1FFF000003FFE0
3FFF000001FFE0
3FFE000001FFE0
3FFE000001FFF0
7FFC000000FFF0
7FFC000000FFF0
7FFC000000FFF0
7FF8000000FFF0
FFFFFFFFFFFFF8
FFFFFFFFFFFFF8
FFFFFFFFFFFFF8
FFFFFFFFFFFFF8
FFFFFFFFFFFFF8
FFFFFFFFFFFFF8
FFFFFFFFFFFFF8
FFFFFFFFFFFFF8
FFFFFFFFFFFFF8
FFF80000000000
FFF80000000000
FFF80000000000
7FFC0000000000
7FFC0000000000
7FFC0000000000
7FFE0000000000
3FFE000000E000
3FFF000001FC00
3FFF000003FFC0
1FFF800007FFF0
1FFFC0000FFFF0
0FFFE0001FFFE0
0FFFF8007FFFE0
07FFFFEFFFFFC0
03FFFFFFFFFF80
03FFFFFFFFFF00
01FFFFFFFFFF00
00FFFFFFFFFE00
007FFFFFFFFC00
001FFFFFFFF000
000FFFFFFFE000
0003FFFFFFC000
0000FFFFFF0000
00003FFFF80000
000003FFC00000
ENDCHAR
STARTCHAR 00EA
ENCODING 234
SWIDTH 601 0
DWIDTH 61 0
BBX 53 80 4 -2
BITMAP
000003FF800000
000007FFC00000
00000FFFC00000
00001FFFE00000
00003FFFF00000
00007FFFF80000
0000FFFFFC0000
0001FFEFFE0000
0001FFCFFF0000
0003FF87FF0000
0007FF03FF8000
000FFE01FFC000
001FFC00FFE000
003FFC007FF000
007FF8007FF800
00FFF0003FFC00
00000000000000
00000000000000
00000000000000
00000000000000
00000000000000
00000000000000
000003FF800000
00003FFFF80000
0001FFFFFE0000
0007FFFFFF8000
000FFFFFFFC000
003FFFFFFFF000
007FFFFFFFF800
00FFFFFFFFFC00
01FFFFFFFFFE00
03FFFFFFFFFE00
03FFFFFFFFFF00
07FFFC007FFF80
0FFFF0001FFF80
0FFFC0000FFFC0
1FFF800007FFC0
1FFF000003FFE0
3FFF000001FFE0
3FFE000001FFE0
3FFE000001FFF0
7FFC000000FFF0
7FFC000000FFF0
7FFC000000FFF0
7FF8000000FFF0
FFFFFFFFFFFFF8
FFFFFFFFFFFFF8
FFFFFFFFFFFFF8
FFFFFFFFFFFFF8
FFFFFFFFFFFFF8
FFFFFFFFFFFFF8
FFFFFFFFFFFFF8
FFFFFFFFFFFFF8
FFFFFFFFFFFFF8
FFF80000000000
FFF80000000000
FFF80000000000
7FFC0000000000
7FFC0000000000
7FFC0000000000
7FFE0000000000
3FFE000000E000
3FFF000001FC00
3FFF000003FFC0
1FFF800007FFF0
1FFFC0000FFFF0
0FFFE0001FFFE0
0FFFF8007FFFE0
07FFFFEFFFFFC0
03FFFFFFFFFF80
03FFFFFFFFFF00
01FFFFFFFFFF00
00FFFFFFFFFE00
007FFFFFFFFC00
001FFFFFFFF000
000FFFFFFFE000
0003FFFFFFC000
0000FFFFFF0000
00003FFFF80000
000003FFC00000
ENDCHAR
STARTCHAR 00EB
ENCODING 235
SWIDTH 601 0
DWIDTH 61 0
BBX 53 76 4 -2
BITMAP
001FFC00FFE000
001FFC00FFE000
001FFC00FFE000
001FFC00FFE000
001FFC00FFE000
001FFC00FFE000
001FFC00FFE000
001FFC00FFE000
001FFC00FFE000
001FFC00FFE000
001FFC00FFE000
00000000000000
00000000000000
00000000000000
00000000000000
00000000000000
00000000000000
00000000000000
000003FF800000
00003FFFF80000
0001FFFFFE0000
0007FFFFFF8000
000FFFFFFFC000
003FFFFFFFF000
007FFFFFFFF800
00FFFFFFFFFC00
01FFFFFFFFFE00
03FFFFFFFFFE00
03FFFFFFFFFF00
07FFFC007FFF80
0FFFF0001FFF80
0FFFC0000FFFC0
1FFF800007FFC0
1FFF000003FFE0
3FFF000001FFE0
3FFE000001FFE0
3FFE000001FFF0
7FFC000000FFF0
7FFC000000FFF0
7FFC000000FFF0
7FF8000000FFF0
FFFFFFFFFFFFF8
FFFFFFFFFFFFF8
FFFFFFFFFFFFF8
FFFFFFFFFFFFF8
FFFFFFFFFFFFF8
FFFFFFFFFFFFF8
FFFFFFFFFFFFF8
FFFFFFFFFFFFF8
FFFFFFFFFFFFF8
FFF80000000000
FFF80000000000
FFF80000000000
7FFC0000000000
7FFC0000000000
7FFC0000000000
7FFE0000000000
3FFE000000E000
3FFF000001FC00
3FFF000003FFC0
1FFF800007FFF0
1FFFC0000FFFF0
0FFFE0001FFFE0
0FFFF8007FFFE0
07FFFFEFFFFFC0
03FFFFFFFFFF80
03FFFFFFFFFF00
01FFFFFFFFFF00
00FFFFFFFFFE00
007FFFFFFFFC00
001FFFFFFFF000
000FFFFFFFE000
0003FFFFFFC000
0000FFFFFF0000
00003FFFF80000
000003FFC00000
ENDCHAR
STARTCHAR 00EC
ENCODING 236
SWIDTH 276 0
DWIDTH 28 0
BBX 18 82 2 0
BITMAP
FF8000
FF8000
FFC000
7FC000
7FE000
3FE000
3FE000
1FF000
1FF000
1FF800
0FF800
0FF800
07FC00
07FC00
07FE00
03FE00
03FF00
01FF00
01FF00
000000
000000
000000
000000
000000
000000
000000
000000
03FFC0
03FFC0
03FFC0
03FFC0
03FFC0
03FFC0
03FFC0
03FFC0
03FFC0
03FFC0
03FFC0
03FFC0
03FFC0
03FFC0
03FFC0
03FFC0
03FFC0
03FFC0
03FFC0
03FFC0
03FFC0
03FFC0
03FFC0
03FFC0
03FFC0
03FFC0
03FFC0
03FFC0
03FFC0
03FFC0
03FFC0
03FFC0
03FFC0
03FFC0
03FFC0
03FFC0
03FFC0
03FFC0
03FFC0
03FFC0
03FFC0
03FFC0
03FFC0
03FFC0
03FFC0
03FFC0
03FFC0
03FFC0
03FFC0
03FFC0
03FFC0
03FFC0
03FFC0
03FFC0
03FFC0
ENDCHAR
STARTCHAR 00ED
ENCODING 237
SWIDTH 276 0
DWIDTH 28 0
BBX 19 82 8 0
BITMAP
003FE0
007FC0
007FC0
00FFC0
00FF80
01FF80
01FF00
01FF00
03FE00
03FE00
07FE00
07FC00
07FC00
0FF800
0FF800
1FF800
1FF000
3FF000
3FE000
000000
000000
000000
000000
000000
000000
000000
000000
FFF000
FFF000
FFF000
FFF000
FFF000
FFF000
FFF000
FFF000
FFF000
FFF000
FFF000
FFF000
FFF000
FFF000
FFF000
FFF000
FFF000
FFF000
FFF000
FFF000
FFF000
FFF000
FFF000
FFF000
FFF000
FFF000
FFF000
FFF000
FFF000
FFF000
FFF000
FFF000
FFF000
FFF000
FFF000
FFF000
FFF000
FFF000
FFF000
FFF000
FFF000
FFF000
FFF000
FFF000
FFF000
FFF000
FFF000
FFF000
FFF000
FFF000
FFF000
FFF000
FFF000
FFF000
FFF000
ENDCHAR
STARTCHAR 00EE
ENCODING 238
SWIDTH 276 0
DWIDTH 28 0
BBX 37 79 -4 0
BITMAP
0007FF0000
000FFF8000
000FFFC000
001FFFE000
003FFFF000
007FFFF800
00FFFFFC00
01FFDFFC00
03FFCFFE00
03FF87FF00
07FF03FF80
0FFE01FFC0
1FFC00FFE0
3FF800FFF0
7FF8007FF8
FFF0003FF8
0000000000
0000000000
0000000000
0000000000
0000000000
0000000000
0000000000
0000000000
000FFF0000
000FFF0000
000FFF0000
000FFF0000
000FFF0000
000FFF0000
000FFF0000
000FFF0000
000FFF0000
000FFF0000
000FFF0000
000FFF0000
000FFF0000
000FFF0000
000FFF0000
000FFF0000
000FFF0000
000FFF0000
000FFF0000
000FFF0000
000FFF0000
000FFF0000
000FFF0000
000FFF0000
000FFF0000
000FFF0000
000FFF0000
000FFF0000
000FFF0000
000FFF0000
000FFF0000
000FFF0000
000FFF0000
000FFF0000
000FFF0000
000FFF0000
000FFF0000
000FFF0000
000FFF0000
000FFF0000
000FFF0000
000FFF0000
000FFF0000
000FFF0000
000FFF0000
000FFF0000
000FFF0000
000FFF0000
000FFF0000
000FFF0000
000FFF0000
000FFF0000
000FFF0000
000FFF0000
000FFF0000
ENDCHAR
STARTCHAR 00EF
ENCODING 239
SWIDTH 276 0
DWIDTH 28 0
BBX 32 74 -2 0
BITMAP
FFE007FF
FFE007FF
FFE007FF
FFE007FF
FFE007FF
FFE007FF
FFE007FF
FFE007FF
FFE007FF
FFE007FF
FFE007FF
00000000
00000000
00000000
00000000
00000000
00000000
00000000
00000000
003FFC00
003FFC00
003FFC00
003FFC00
003FFC00
003FFC00
003FFC00
003FFC00
003FFC00
003FFC00
003FFC00
003FFC00
003FFC00
003FFC00
003FFC00
003FFC00
003FFC00
003FFC00
003FFC00
003FFC00
003FFC00
003FFC00
003FFC00
003FFC00
003FFC00
003FFC00
003FFC00
003FFC00
003FFC00
003FFC00
003FFC00
003FFC00
003FFC00
003FFC00
003FFC00
003FFC00
003FFC00
003FFC00
003FFC00
003FFC00
003FFC00
003FFC00
003FFC00
003FFC00
003FFC00
003FFC00
003FFC00
003FFC00
003FFC00
003FFC00
003FFC00
003FFC00
003FFC00
003FFC00
003FFC00
ENDCHAR
STARTCHAR 00F0
ENCODING 240
SWIDTH 591 0
DWIDTH 60 0
BBX 52 81 4 -2
BITMAP
00000000040000
000000000E0000
000000001F8000
00001F801FC000
00003FF83FE000
00003FFE7FF000
00003FFFFFF000
00003FFFFFE000
00003FFFFFC000
00007FFFFFC000
00007FFFFF8000
00007FFFFF0000
00001FFFFF8000
000001FFFFC000
0000007FFFE000
000000FFFFF000
000001FFFFF000
000001FFFFF800
000003FFFFFC00
000003FFBFFC00
000001FF1FFE00
000000FE0FFE00
0000007C07FF00
0000003807FF00
0000000803FF00
0000000001FF80
0000000001FF80
000007FE00FFC0
00007FFFE0FFC0
0003FFFFF8FFC0
000FFFFFFE7FC0
001FFFFFFFFFE0
007FFFFFFFFFE0
00FFFFFFFFFFE0
01FFFFFFFFFFE0
03FFFFFFFFFFE0
03FFFFFFFFFFE0
07FFFFFFFFFFF0
0FFFFC01FFFFF0
0FFFE0007FFFF0
1FFFC0001FFFF0
1FFF00000FFFF0
3FFF000007FFF0
3FFE000007FFF0
7FFC000003FFF0
7FFC000001FFF0
7FF8000001FFF0
7FF8000001FFF0
FFF8000000FFF0
FFF8000000FFF0
FFF8000000FFF0
FFF0000000FFF0
FFF0000000FFF0
FFF0000000FFF0
FFF0000000FFF0
FFF0000000FFF0
FFF0000000FFF0
FFF8000000FFF0
FFF8000000FFF0
FFF8000000FFF0
7FF8000001FFF0
7FF8000001FFF0
7FFC000001FFE0
7FFC000003FFE0
3FFE000007FFE0
3FFF000007FFC0
1FFF00000FFFC0
1FFFC0001FFFC0
0FFFE0007FFF80
0FFFF801FFFF00
07FFFFFFFFFF00
03FFFFFFFFFE00
03FFFFFFFFFC00
01FFFFFFFFF800
00FFFFFFFFF000
007FFFFFFFE000
001FFFFFFFC000
000FFFFFFF0000
0003FFFFFE0000
00007FFFF00000
00000FFF000000
ENDCHAR
STARTCHAR 00F1
ENCODING 241
SWIDTH 621 0
DWIDTH 63 0
BBX 50 79 7 0
BITMAP
0007E000000000
001FFC003FC000
003FFE001FC000
007FFF801FC000
00FFFFC01FE000
00FFFFF03FE000
01FFFFFC3FE000
01FFFFFFFFE000
01FFFFFFFFC000
01FF1FFFFFC000
01FE07FFFFC000
01FE01FFFF8000
01FE00FFFF8000
01FE003FFF0000
00FE000FFE0000
00000003F80000
00000000000000
00000000000000
00000000000000
00000000000000
00000000000000
00000000000000
00000008000000
000007FFF00000
FFE03FFFFE0000
FFE0FFFFFF0000
FFE1FFFFFFC000
FFE3FFFFFFE000
FFEFFFFFFFF000
FFFFFFFFFFF800
FFFFFFFFFFFC00
FFFFFFFFFFFC00
FFFFFFFFFFFE00
FFFFFFFFFFFE00
FFFFF807FFFF00
FFFFE001FFFF00
FFFF80007FFF80
FFFF00003FFF80
FFFE00001FFF80
FFFE00001FFF80
FFFC00000FFFC0
FFFC00000FFFC0
FFF8000007FFC0
FFF8000007FFC0
FFF8000007FFC0
FFF8000007FFC0
FFF8000003FFC0
FFF0000003FFC0
FFF0000003FFC0
FFF0000003FFC0
FFF0000003FFC0
FFF0000003FFC0
FFF0000003FFC0
FFF0000003FFC0
FFF0000003FFC0
FFF0000003FFC0
FFF0000003FFC0
FFF0000003FFC0
FFF0000003FFC0
FFF0000003FFC0
FFF0000003FFC0
FFF0000003FFC0
FFF0000003FFC0
FFF0000003FFC0
FFF0000003FFC0
FFF0000003FFC0
FFF0000003FFC0
FFF0000003FFC0
FFF0000003FFC0
FFF0000003FFC0
FFF0000003FFC0
FFF0000003FFC0
FFF0000003FFC0
FFF0000003FFC0
FFF0000003FFC0
FFF0000003FFC0
FFF0000003FFC0
FFF0000003FFC0
FFF0000003FFC0
ENDCHAR
STARTCHAR 00F2
ENCODING 242
SWIDTH 621 0
DWIDTH 63 0
BBX 55 83 4 -2
BITMAP
0001FF00000000
0001FF00000000
0001FF80000000
0000FF80000000
0000FF80000000
00007FC0000000
00007FC0000000
00007FE0000000
00003FE0000000
00003FF0000000
00001FF0000000
00001FF0000000
00000FF8000000
00000FF8000000
00000FFC000000
000007FC000000
000007FC000000
000003FE000000
000003FE000000
00000000000000
00000000000000
00000000000000
00000000000000
00000000000000
00000000000000
000003FF800000
00003FFFF80000
0001FFFFFE0000
0007FFFFFF8000
000FFFFFFFE000
003FFFFFFFF000
007FFFFFFFF800
00FFFFFFFFFC00
01FFFFFFFFFE00
03FFFFFFFFFF00
07FFFFFFFFFF80
07FFFFEFFFFFC0
0FFFFC007FFFC0
0FFFF0001FFFE0
1FFFC0000FFFE0
1FFF800007FFF0
3FFF000003FFF0
3FFF000001FFF8
3FFE000001FFF8
7FFE000000FFF8
7FFC000000FFFC
7FFC0000007FFC
7FFC0000007FFC
FFF80000007FFC
FFF80000007FFC
FFF80000007FFC
FFF80000003FFE
FFF80000003FFE
FFF80000003FFE
FFF80000003FFE
FFF80000003FFE
FFF80000003FFC
FFF80000007FFC
FFF80000007FFC
FFF80000007FFC
7FFC0000007FFC
7FFC0000007FFC
7FFC000000FFFC
7FFE000000FFF8
3FFE000001FFF8
3FFF000001FFF8
3FFF000003FFF0
1FFF800007FFF0
1FFFC0000FFFE0
0FFFF0001FFFE0
0FFFF8007FFFC0
07FFFFEFFFFFC0
03FFFFFFFFFF80
03FFFFFFFFFF00
01FFFFFFFFFE00
00FFFFFFFFFE00
007FFFFFFFF800
003FFFFFFFF000
000FFFFFFFE000
0007FFFFFF8000
0001FFFFFE0000
00003FFFF80000
000007FF800000
ENDCHAR
STARTCHAR 00F3
ENCODING 243
SWIDTH 621 0
DWIDTH 63 0
BBX 55 83 4 -2
BITMAP
00000003FF0000
00000003FE0000
00000003FE0000
00000007FC0000
00000007FC0000
0000000FFC0000
0000000FF80000
0000001FF80000
0000001FF00000
0000001FF00000
0000003FE00000
0000003FE00000
0000007FE00000
0000007FC00000
0000007FC00000
000000FF800000
000000FF800000
000001FF800000
000001FF000000
00000000000000
00000000000000
00000000000000
00000000000000
00000000000000
00000000000000
000003FF800000
00003FFFF80000
0001FFFFFE0000
0007FFFFFF8000
000FFFFFFFE000
003FFFFFFFF000
007FFFFFFFF800
00FFFFFFFFFC00
01FFFFFFFFFE00
03FFFFFFFFFF00
07FFFFFFFFFF80
07FFFFEFFFFFC0
0FFFFC007FFFC0
0FFFF0001FFFE0
1FFFC0000FFFE0
1FFF800007FFF0
3FFF000003FFF0
3FFF000001FFF8
3FFE000001FFF8
7FFE000000FFF8
7FFC000000FFFC
7FFC0000007FFC
7FFC0000007FFC
FFF80000007FFC
FFF80000007FFC
FFF80000007FFC
FFF80000003FFE
FFF80000003FFE
FFF80000003FFE
FFF80000003FFE
FFF80000003FFE
FFF80000003FFC
FFF80000007FFC
FFF80000007FFC
FFF80000007FFC
7FFC0000007FFC
7FFC0000007FFC
7FFC000000FFFC
7FFE000000FFF8
3FFE000001FFF8
3FFF000001FFF8
3FFF000003FFF0
1FFF800007FFF0
1FFFC0000FFFE0
0FFFF0001FFFE0
0FFFF8007FFFC0
07FFFFEFFFFFC0
03FFFFFFFFFF80
03FFFFFFFFFF00
01FFFFFFFFFE00
00FFFFFFFFFE00
007FFFFFFFF800
003FFFFFFFF000
000FFFFFFFE000
0007FFFFFF8000
0001FFFFFE0000
00003FFFF80000
000007FF800000
ENDCHAR
STARTCHAR 00F4
ENCODING 244
SWIDTH 621 0
DWIDTH 63 0
BBX 55 80 4 -2
BITMAP
000003FF800000
000007FFC00000
00000FFFE00000
00001FFFE00000
00003FFFF00000
00007FFFF80000
0000FFFFFC0000
0000FFEFFE0000
0001FFCFFF0000
0003FF87FF8000
0007FF03FF8000
000FFE01FFC000
001FFE00FFE000
003FFC007FF000
007FF8003FF800
007FF0003FFC00
00000000000000
00000000000000
00000000000000
00000000000000
00000000000000
00000000000000
000003FF800000
00003FFFF80000
0001FFFFFE0000
0007FFFFFF8000
000FFFFFFFE000
003FFFFFFFF000
007FFFFFFFF800
00FFFFFFFFFC00
01FFFFFFFFFE00
03FFFFFFFFFF00
07FFFFFFFFFF80
07FFFFEFFFFFC0
0FFFFC007FFFC0
0FFFF0001FFFE0
1FFFC0000FFFE0
1FFF800007FFF0
3FFF000003FFF0
3FFF000001FFF8
3FFE000001FFF8
7FFE000000FFF8
7FFC000000FFFC
7FFC0000007FFC
7FFC0000007FFC
FFF80000007FFC
FFF80000007FFC
FFF80000007FFC
FFF80000003FFE
FFF80000003FFE
FFF80000003FFE
FFF80000003FFE
FFF80000003FFE
FFF80000003FFC
FFF80000007FFC
FFF80000007FFC
FFF80000007FFC
7FFC0000007FFC
7FFC0000007FFC
7FFC000000FFFC
7FFE000000FFF8
3FFE000001FFF8
3FFF000001FFF8
3FFF000003FFF0
1FFF800007FFF0
1FFFC0000FFFE0
0FFFF0001FFFE0
0FFFF8007FFFC0
07FFFFEFFFFFC0
03FFFFFFFFFF80
03FFFFFFFFFF00
01FFFFFFFFFE00
00FFFFFFFFFE00
007FFFFFFFF800
003FFFFFFFF000
000FFFFFFFE000
0007FFFFFF8000
0001FFFFFE0000
00003FFFF80000
000007FF800000
ENDCHAR
STARTCHAR 00F5
ENCODING 245
SWIDTH 621 0
DWIDTH 63 0
BBX 55 81 4 -2
BITMAP
0000F800000000
0003FF0007F800
000FFFC007F800
001FFFF007F800
001FFFF807F800
003FFFFE07F800
003FFFFF0FF800
003FFFFFFFF800
003FFFFFFFF800
003FE3FFFFF800
003FC0FFFFF000
003FC07FFFF000
003FC01FFFE000
003FC007FFE000
003FC003FF8000
000000007E0000
00000000000000
00000000000000
00000000000000
00000000000000
00000000000000
00000000000000
00000000000000
000003FF800000
00003FFFF80000
0001FFFFFE0000
0007FFFFFF8000
000FFFFFFFE000
003FFFFFFFF000
007FFFFFFFF800
00FFFFFFFFFC00
01FFFFFFFFFE00
03FFFFFFFFFF00
07FFFFFFFFFF80
07FFFFEFFFFFC0
0FFFFC007FFFC0
0FFFF0001FFFE0
1FFFC0000FFFE0
1FFF800007FFF0
3FFF000003FFF0
3FFF000001FFF8
3FFE000001FFF8
7FFE000000FFF8
7FFC000000FFFC
7FFC0000007FFC
7FFC0000007FFC
FFF80000007FFC
FFF80000007FFC
FFF80000007FFC
FFF80000003FFE
FFF80000003FFE
FFF80000003FFE
FFF80000003FFE
FFF80000003FFE
FFF80000003FFC
FFF80000007FFC
FFF80000007FFC
FFF80000007FFC
7FFC0000007FFC
7FFC0000007FFC
7FFC000000FFFC
7FFE000000FFF8
3FFE000001FFF8
3FFF000001FFF8
3FFF000003FFF0
1FFF800007FFF0
1FFFC0000FFFE0
0FFFF0001FFFE0
0FFFF8007FFFC0
07FFFFEFFFFFC0
03FFFFFFFFFF80
03FFFFFFFFFF00
01FFFFFFFFFE00
00FFFFFFFFFE00
007FFFFFFFF800
003FFFFFFFF000
000FFFFFFFE000
0007FFFFFF8000
0001FFFFFE0000
00003FFFF80000
000007FF800000
ENDCHAR
STARTCHAR 00F6
ENCODING 246
SWIDTH 621 0
DWIDTH 63 0
BBX 55 76 4 -2
BITMAP
001FFC00FFE000
001FFC00FFE000
001FFC00FFE000
001FFC00FFE000
001FFC00FFE000
001FFC00FFE000
001FFC00FFE000
001FFC00FFE000
001FFC00FFE000
001FFC00FFE000
001FFC00FFE000
00000000000000
00000000000000
00000000000000
00000000000000
00000000000000
00000000000000
00000000000000
000003FF800000
00003FFFF80000
0001FFFFFE0000
0007FFFFFF8000
000FFFFFFFE000
003FFFFFFFF000
007FFFFFFFF800
00FFFFFFFFFC00
01FFFFFFFFFE00
03FFFFFFFFFF00
07FFFFFFFFFF80
07FFFFEFFFFFC0
0FFFFC007FFFC0
0FFFF0001FFFE0
1FFFC0000FFFE0
1FFF800007FFF0
3FFF000003FFF0
3FFF000001FFF8
3FFE000001FFF8
7FFE000000FFF8
7FFC000000FFFC
7FFC0000007FFC
7FFC0000007FFC
FFF80000007FFC
FFF80000007FFC
FFF80000007FFC
FFF80000003FFE
FFF80000003FFE
FFF80000003FFE
FFF80000003FFE
FFF80000003FFE
FFF80000003FFC
FFF80000007FFC
FFF80000007FFC
FFF80000007FFC
7FFC0000007FFC
7FFC0000007FFC
7FFC000000FFFC
7FFE000000FFF8
3FFE000001FFF8
3FFF000001FFF8
3FFF000003FFF0
1FFF800007FFF0
1FFFC0000FFFE0
0FFFF0001FFFE0
0FFFF8007FFFC0
07FFFFEFFFFFC0
03FFFFFFFFFF80
03FFFFFFFFFF00
01FFFFFFFFFE00
00FFFFFFFFFE00
007FFFFFFFF800
003FFFFFFFF000
000FFFFFFFE000
0007FFFFFF8000
0001FFFFFE0000
00003FFFF80000
000007FF800000
ENDCHAR
STARTCHAR 00F7
ENCODING 247
SWIDTH 542 0
DWIDTH 55 0
BBX 43 44 6 15
BITMAP
0000FFE00000
0000FFE00000
0000FFE00000
0000FFE00000
0000FFE00000
0000FFE00000
0000FFE00000
0000FFE00000
0000FFE00000
0000FFE00000
0000FFE00000
0000FFE00000
000000000000
000000000000
000000000000
000000000000
000000000000
FFFFFFFFFFE0
FFFFFFFFFFE0
FFFFFFFFFFE0
FFFFFFFFFFE0
FFFFFFFFFFE0
FFFFFFFFFFE0
FFFFFFFFFFE0
FFFFFFFFFFE0
FFFFFFFFFFE0
FFFFFFFFFFE0
000000000000
000000000000
000000000000
000000000000
000000000000
0000FFE00000
0000FFE00000
0000FFE00000
0000FFE00000
0000FFE00000
0000FFE00000
0000FFE00000
0000FFE00000
0000FFE00000
0000FFE00000
0000FFE00000
0000FFE00000
ENDCHAR
STARTCHAR 00F8
ENCODING 248
SWIDTH 621 0
DWIDTH 63 0
BBX 57 58 3 -2
BITMAP
000001FFC0008000
00001FFFFC01C000
0000FFFFFF01E000
0003FFFFFFC3F000
0007FFFFFFF7F800
001FFFFFFFFFFC00
003FFFFFFFFFFE00
007FFFFFFFFFFF00
00FFFFFFFFFFFF80
01FFFFFFFFFFFF00
03FFFFFFFFFFFE00
03FFFFF7FFFFFC00
07FFFE003FFFF800
07FFF8000FFFF000
0FFFE0000FFFF800
0FFFC0001FFFF800
1FFF80003FFFF800
1FFF80007FFFFC00
1FFF0000FFFFFC00
3FFF0001FFFFFC00
3FFE0003FFFFFE00
3FFE0007FFFFFE00
3FFE000FFFBFFE00
7FFC001FFF3FFE00
7FFC003FFE3FFE00
7FFC007FFC3FFE00
7FFC00FFF81FFE00
7FFC01FFF01FFF00
7FFC03FFE01FFF00
7FFC07FFC01FFF00
7FFC0FFF801FFF00
7FFC1FFF001FFE00
7FFC3FFE003FFE00
7FFC7FFC003FFE00
7FFCFFF8003FFE00
3FFFFFF0003FFE00
3FFFFFE0003FFE00
3FFFFFC0007FFE00
3FFFFF80007FFC00
1FFFFF0000FFFC00
1FFFFE0000FFFC00
1FFFFC0001FFF800
0FFFF80003FFF800
0FFFF00007FFF000
07FFF8000FFFF000
0FFFFC003FFFE000
1FFFFFF7FFFFE000
3FFFFFFFFFFFC000
7FFFFFFFFFFF8000
FFFFFFFFFFFF0000
7FFFFFFFFFFF0000
3FFFFFFFFFFC0000
1FFFFFFFFFF80000
0FF7FFFFFFF00000
07E3FFFFFFC00000
03C0FFFFFF000000
01001FFFFC000000
000003FFC0000000
ENDCHAR
ENDFONT
